<svg id="prefix__Layer_1" data-name="Layer 1" xmlns="http://www.w3.org/2000/svg" xmlns:xlink="http://www.w3.org/1999/xlink" viewBox="0 0 800 400"><defs><linearGradient id="prefix__linear-gradient" x1="471.8" y1="6.1" x2="588.4" y2="319.1" gradientTransform="matrix(1 0 0 -1 0 497)" gradientUnits="userSpaceOnUse"><stop offset=".2" stop-color="#fdb81d" stop-opacity="0"/><stop offset="1" stop-color="#fdb81d" stop-opacity=".7"/></linearGradient><linearGradient id="prefix__linear-gradient-2" x1="468.7" y1="-2.2" x2="585.3" y2="310.8" xlink:href="#prefix__linear-gradient"/><linearGradient id="prefix__linear-gradient-3" x1="468.7" y1="-2.3" x2="585.3" y2="310.8" xlink:href="#prefix__linear-gradient"/><linearGradient id="prefix__linear-gradient-4" x1="468.7" y1="-2.3" x2="585.3" y2="310.8" xlink:href="#prefix__linear-gradient"/><linearGradient id="prefix__linear-gradient-5" x1="468.7" y1="-2.2" x2="585.3" y2="310.8" xlink:href="#prefix__linear-gradient"/><linearGradient id="prefix__linear-gradient-6" x1="469.5" y1=".1" x2="585" y2="310.1" xlink:href="#prefix__linear-gradient"/><linearGradient id="prefix__linear-gradient-7" x1="472.6" y1="8.3" x2="584.4" y2="308.5" xlink:href="#prefix__linear-gradient"/><linearGradient id="prefix__linear-gradient-8" x1="475.5" y1="16.2" x2="584.2" y2="307.9" xlink:href="#prefix__linear-gradient"/><linearGradient id="prefix__linear-gradient-9" x1="478.5" y1="24.1" x2="584.2" y2="308" xlink:href="#prefix__linear-gradient"/><linearGradient id="prefix__linear-gradient-10" x1="481.1" y1="31.1" x2="584.5" y2="308.8" xlink:href="#prefix__linear-gradient"/><linearGradient id="prefix__linear-gradient-11" x1="483.8" y1="38.5" x2="585.1" y2="310.4" xlink:href="#prefix__linear-gradient"/><linearGradient id="prefix__linear-gradient-12" x1="485.9" y1="44.1" x2="585.7" y2="312" xlink:href="#prefix__linear-gradient"/><linearGradient id="prefix__linear-gradient-13" x1="84.6" y1="316.7" x2="353.9" y2="493.2" gradientTransform="matrix(1 0 0 -1 0 497)" gradientUnits="userSpaceOnUse"><stop offset="0" stop-color="#4f97b8" stop-opacity=".1"/><stop offset="1" stop-color="#4f97b8"/></linearGradient><linearGradient id="prefix__linear-gradient-14" x1="27.2" y1="328.2" x2="124.6" y2="432.8" gradientTransform="matrix(1 0 0 -1 0 497)" gradientUnits="userSpaceOnUse"><stop offset="0" stop-color="#b4d2e0" stop-opacity=".1"/><stop offset="1" stop-color="#b4d2e0"/></linearGradient><style>.prefix__cls-15{fill:#ededed;fill-opacity:.95}.prefix__cls-18{fill:#fdb81d}.prefix__cls-19{fill:#fff}.prefix__cls-21{fill:none}</style><mask id="prefix__mask" x="574.5" y="33.5" width="225.5" height="277" maskUnits="userSpaceOnUse"><g transform="translate(-1 -.5)"><path fill="#c4c4c4" id="prefix__mask0_1504_36085" data-name="mask0 1504 36085" d="M575.5 34H800.5V311H575.5z"/></g></mask></defs><path d="M531.1 320.4a11.2 11.2 0 1 0 11.2 11.2 11.2 11.2 0 0 0-11.2-11.2Zm0 19.6a8.4 8.4 0 1 1 8.4-8.4 8.4 8.4 0 0 1-8.4 8.4Z" transform="translate(-1 -.5)" fill="url(#prefix__linear-gradient)"/><path d="M531.1 307a24.6 24.6 0 1 0 24.6 24.6 24.6 24.6 0 0 0-24.6-24.6Zm0 46.4a21.8 21.8 0 1 1 21.9-21.8 21.8 21.8 0 0 1-21.9 21.8Z" transform="translate(-1 -.5)" fill="url(#prefix__linear-gradient-2)"/><path d="M531.1 293.4a38.2 38.2 0 1 0 38.2 38.2 38.2 38.2 0 0 0-38.2-38.2Zm0 73.5a35.4 35.4 0 1 1 35.4-35.3 35.4 35.4 0 0 1-35.4 35.3Z" transform="translate(-1 -.5)" fill="url(#prefix__linear-gradient-3)"/><path d="M531.1 278.5a53 53 0 1 0 53 53 53 53 0 0 0-53-53Zm0 103.3a50.3 50.3 0 1 1 50.3-50.2 50.3 50.3 0 0 1-50.3 50.2Z" transform="translate(-1 -.5)" fill="url(#prefix__linear-gradient-4)"/><path d="M531.1 265.3a66.3 66.3 0 1 0 66.3 66.3 66.3 66.3 0 0 0-66.3-66.3Zm0 129.8a63.5 63.5 0 1 1 63.5-63.5 63.6 63.6 0 0 1-63.5 63.5Z" transform="translate(-1 -.5)" fill="url(#prefix__linear-gradient-5)"/><path d="M531.1 250.7a81 81 0 0 0-42.4 149.8h5.7a78.1 78.1 0 1 1 73.4 0h5.7A81 81 0 0 0 531 250.7Z" transform="translate(-1 -.5)" fill="url(#prefix__linear-gradient-6)"/><path d="M531.1 236.1a95.5 95.5 0 0 0-66 164.4h4.2a92.7 92.7 0 1 1 123.7 0h4.2a95.5 95.5 0 0 0-66-164.4Z" transform="translate(-1 -.5)" fill="url(#prefix__linear-gradient-7)"/><path d="M531.1 222.8A108.8 108.8 0 0 0 447 400.5h3.7a106 106 0 1 1 161 0h3.8A108.8 108.8 0 0 0 531 222.8Z" transform="translate(-1 -.5)" fill="url(#prefix__linear-gradient-8)"/><path d="M531.1 208.6a123 123 0 0 0-101.8 191.9h3.3a120.2 120.2 0 1 1 197 0h3.4a123 123 0 0 0-101.9-191.9Z" transform="translate(-1 -.5)" fill="url(#prefix__linear-gradient-9)"/><path d="M531.1 195a136.5 136.5 0 0 0-117.8 205.5h3.2a133.7 133.7 0 1 1 229.3 0h3.2a136.5 136.5 0 0 0-117.9-205.4Z" transform="translate(-1 -.5)" fill="url(#prefix__linear-gradient-10)"/><path d="M531.1 180a151.6 151.6 0 0 0-135 220.5h3.2a148.7 148.7 0 1 1 263.7 0h3a151.6 151.6 0 0 0-135-220.4Z" transform="translate(-1 -.5)" fill="url(#prefix__linear-gradient-11)"/><path d="M531.1 168a163.7 163.7 0 0 0-148.4 232.5h3a160.8 160.8 0 1 1 290.8 0h3A163.7 163.7 0 0 0 531.1 168Z" transform="translate(-1 -.5)" fill="url(#prefix__linear-gradient-12)"/><g mask="url(#prefix__mask)"><path class="prefix__cls-15" d="M720 216.3h24.9l-12.4-36Z" transform="translate(-1 -.5)"/><path class="prefix__cls-15" d="M712.7 52.5A126.8 126.8 0 1 0 801 270.3v-182a126.4 126.4 0 0 0-88.3-35.8Zm-73.3 179c3.6 5 8.7 7.4 15.3 7.4a17.2 17.2 0 0 0 9-2.3 18.2 18.2 0 0 0 6-6.2 25.3 25.3 0 0 0 3.3-8.4h14.7a39.5 39.5 0 0 1-2.9 10.7 29.1 29.1 0 0 1-6 9.2 28.1 28.1 0 0 1-9.8 6.4 38.1 38.1 0 0 1-14 2.3q-11.4 0-19.5-5.2a34 34 0 0 1-12.5-15c-2.9-6.4-4.3-14-4.3-22.9s1.4-16.3 4.3-22.6a32 32 0 0 1 12.5-14.3q8.1-5 19.6-5a33.9 33.9 0 0 1 16.1 3.7 31 31 0 0 1 11.3 10 29.6 29.6 0 0 1 5.2 14H673a22 22 0 0 0-3.2-8.2 16.6 16.6 0 0 0-6-5.7 18 18 0 0 0-9-2.1 19.5 19.5 0 0 0-11.3 3.1c-3 2-5.4 5.3-7 9.9s-2.4 10.3-2.4 17.5c-.1 10.8 1.7 18.7 5.3 23.6Zm116.3 17.9-7.4-20.8h-31.6l-7.5 20.8h-14l29.7-82.8h15l29.7 82.8Z" transform="translate(-1 -.5)"/></g><path d="M276.8 203.3a1.8 1.8 0 1 0 1.8 1.8 1.8 1.8 0 0 0-1.8-1.8Zm-17-117.5a1.8 1.8 0 1 0 1.8 1.8 1.8 1.8 0 0 0-1.8-1.8Zm0 117.5a1.8 1.8 0 1 0 1.8 1.8 1.8 1.8 0 0 0-1.8-1.8Zm0-151a1.8 1.8 0 1 0 1.8 1.7 1.8 1.8 0 0 0-1.8-1.8Zm0 117.4a1.8 1.8 0 1 0 1.8 1.8 1.8 1.8 0 0 0-1.8-1.8Zm0 16.8a1.8 1.8 0 1 0 1.8 1.8 1.8 1.8 0 0 0-1.8-1.8Zm0-33.6a1.8 1.8 0 1 0 1.8 1.8 1.8 1.8 0 0 0-1.8-1.8Zm0-16.8a1.8 1.8 0 1 0 1.8 1.9 1.8 1.8 0 0 0-1.8-1.8Zm0-16.7a1.8 1.8 0 1 0 1.8 1.8 1.8 1.8 0 0 0-1.8-1.8Zm0-50.4a1.8 1.8 0 1 0 1.8 1.8 1.8 1.8 0 0 0-1.8-1.8Zm-17 151a1.8 1.8 0 1 0 1.8 1.9 1.8 1.8 0 0 0-1.8-1.8ZM259.8 2a1.8 1.8 0 1 0 1.8 1.8 1.8 1.8 0 0 0-1.8-1.8Zm0 16.8a1.8 1.8 0 1 0 1.8 1.8 1.8 1.8 0 0 0-1.8-1.8Zm0 16.7a1.8 1.8 0 1 0 1.8 1.9 1.8 1.8 0 0 0-1.8-1.9Zm17 16.8a1.8 1.8 0 1 0 1.8 1.8 1.8 1.8 0 0 0-1.8-1.8Zm0 67.2a1.8 1.8 0 1 0 1.8 1.8 1.8 1.8 0 0 0-1.8-1.8Zm0-16.8a1.8 1.8 0 1 0 1.8 1.8 1.8 1.8 0 0 0-1.8-1.8Zm0 33.6a1.8 1.8 0 1 0 1.8 1.8 1.8 1.8 0 0 0-1.8-1.8Zm0-50.4a1.8 1.8 0 1 0 1.8 1.8 1.8 1.8 0 0 0-1.8-1.8Zm-34 151a1.8 1.8 0 1 0 1.9 1.9 1.8 1.8 0 0 0-1.8-1.8Zm34-167.8a1.8 1.8 0 1 0 1.8 1.8 1.8 1.8 0 0 0-1.8-1.8Zm0 117.5a1.8 1.8 0 1 0 1.8 1.8 1.8 1.8 0 0 0-1.8-1.8Zm0 33.6a1.8 1.8 0 1 0 1.8 1.8 1.8 1.8 0 0 0-1.8-1.8Zm0-67.2a1.8 1.8 0 1 0 1.8 1.8 1.8 1.8 0 0 0-1.8-1.8Zm0 16.8a1.8 1.8 0 1 0 1.8 1.8 1.8 1.8 0 0 0-1.8-1.8Zm-17 67.1a1.8 1.8 0 1 0 1.8 1.9 1.8 1.8 0 0 0-1.8-1.8Zm0-16.7a1.8 1.8 0 1 0 1.8 1.8 1.8 1.8 0 0 0-1.8-1.8Zm17-184.7a1.8 1.8 0 1 0 1.8 1.9 1.8 1.8 0 0 0-1.8-1.8Zm0-16.7a1.8 1.8 0 1 0 1.8 1.8 1.8 1.8 0 0 0-1.8-1.8Zm0-16.8a1.8 1.8 0 1 0 1.8 1.8 1.8 1.8 0 0 0-1.8-1.8Zm-17 100.7a1.8 1.8 0 0 0-1.9 1.8 1.8 1.8 0 1 0 1.9-1.8Zm-33.9 84a1.8 1.8 0 1 0 1.8 1.7 1.8 1.8 0 0 0-1.8-1.8Zm0-117.6a1.8 1.8 0 1 0 1.8 1.8A1.8 1.8 0 0 0 226 69Zm0 16.8a1.8 1.8 0 1 0 1.8 1.8 1.8 1.8 0 0 0-1.8-1.8Zm0-33.6a1.8 1.8 0 1 0 1.8 1.8 1.8 1.8 0 0 0-1.8-1.8Zm0-16.8a1.8 1.8 0 1 0 1.8 1.9 1.8 1.8 0 0 0-1.8-1.8Zm0 134.3a1.8 1.8 0 1 0 1.8 1.8 1.8 1.8 0 0 0-1.8-1.8Zm0-151a1.8 1.8 0 1 0 1.8 1.8 1.8 1.8 0 0 0-1.8-1.8Zm0 134.3a1.8 1.8 0 1 0 1.8 1.8 1.8 1.8 0 0 0-1.8-1.8Zm0-33.6a1.8 1.8 0 1 0 1.8 1.8 1.8 1.8 0 0 0-1.8-1.8Zm0 16.7a1.8 1.8 0 1 0 1.8 1.9 1.8 1.8 0 0 0-1.8-1.8Zm0-33.5a1.8 1.8 0 1 0 1.8 1.8 1.8 1.8 0 0 0-1.8-1.8Zm0-100.7a1.8 1.8 0 1 0 1.8 1.8 1.8 1.8 0 0 0-1.8-1.8Zm0 235a1.8 1.8 0 1 0 1.8 1.8 1.8 1.8 0 0 0-1.8-1.8Zm17-134.3a1.8 1.8 0 1 0 1.8 1.8 1.8 1.8 0 0 0-1.8-1.8Zm0-16.8a1.8 1.8 0 1 0 1.8 1.8 1.8 1.8 0 0 0-1.8-1.8Zm0 117.5a1.8 1.8 0 1 0 1.8 1.8 1.8 1.8 0 0 0-1.8-1.8Zm0-134.3a1.8 1.8 0 1 0 1.8 1.9A1.8 1.8 0 0 0 243 69Zm0-16.7a1.8 1.8 0 1 0 1.8 1.8 1.8 1.8 0 0 0-1.8-1.9Zm0 67.1a1.8 1.8 0 1 0 1.8 1.8 1.8 1.8 0 0 0-1.8-1.8Zm0 50.4a1.8 1.8 0 1 0 1.8 1.8 1.8 1.8 0 0 0-1.8-1.9Zm0-33.6a1.8 1.8 0 1 0 1.8 1.8 1.8 1.8 0 0 0-1.8-1.8Zm0 50.3a1.8 1.8 0 1 0 1.8 1.9 1.8 1.8 0 0 0-1.8-1.9Zm0-33.5a1.8 1.8 0 1 0 1.8 1.8 1.8 1.8 0 0 0-1.8-1.9Zm-17 50.3a1.8 1.8 0 1 0 1.8 1.8 1.8 1.8 0 0 0-1.8-1.8Zm0 16.8a1.8 1.8 0 1 0 1.8 1.8 1.8 1.8 0 0 0-1.8-1.8Zm17-218.2a1.8 1.8 0 1 0 1.8 1.8A1.8 1.8 0 0 0 243 2Zm0 33.6a1.8 1.8 0 1 0 1.8 1.8 1.8 1.8 0 0 0-1.8-1.9Zm0-16.8a1.8 1.8 0 1 0 1.8 1.8 1.8 1.8 0 0 0-1.8-1.8Zm118.7 67.1a1.8 1.8 0 1 0 1.8 1.8 1.8 1.8 0 0 0-1.8-1.8Zm17 16.8a1.8 1.8 0 1 0 1.8 1.8 1.8 1.8 0 0 0-1.9-1.8Zm0-16.8a1.8 1.8 0 1 0 1.8 1.8 1.8 1.8 0 0 0-1.9-1.8Zm0 33.6a1.8 1.8 0 1 0 1.8 1.8 1.8 1.8 0 0 0-1.9-1.8Zm0-84a1.8 1.8 0 1 0 1.8 1.9 1.8 1.8 0 0 0-1.9-1.9Zm0 16.8a1.8 1.8 0 1 0 1.7 1.8 1.8 1.8 0 0 0-1.8-1.8Zm0 16.8a1.8 1.8 0 1 0 1.8 1.8 1.8 1.8 0 0 0-1.9-1.8Zm-17 67.2a1.8 1.8 0 1 0 1.8 1.8 1.8 1.8 0 0 0-1.8-1.9Zm-34-84a1.8 1.8 0 1 0 1.9 1.8 1.8 1.8 0 0 0-1.9-1.8Zm34 100.7a1.8 1.8 0 1 0 1.8 1.8 1.8 1.8 0 0 0-1.8-1.8Zm0-50.3a1.8 1.8 0 1 0 1.8 1.8 1.8 1.8 0 0 0-1.8-1.8Zm-34-16.8a1.8 1.8 0 0 0-1.8 1.8 1.8 1.8 0 1 0 1.8-1.8Zm0 16.8a1.8 1.8 0 1 0 1.9 1.8 1.8 1.8 0 0 0-1.9-1.8Zm0-33.6a1.8 1.8 0 1 0 1.9 1.8 1.8 1.8 0 0 0-1.9-1.8Zm0 50.3a1.8 1.8 0 1 0 1.9 1.9 1.8 1.8 0 0 0-1.9-1.9Zm0 50.4a1.8 1.8 0 1 0 1.9 1.8 1.8 1.8 0 0 0-1.9-1.8Zm0 16.8a1.8 1.8 0 1 0 1.9 1.8 1.8 1.8 0 0 0-1.9-1.8Zm0-50.4a1.8 1.8 0 1 0 1.9 1.8 1.8 1.8 0 0 0-1.9-1.8Zm0 16.8a1.8 1.8 0 1 0 1.9 1.8 1.8 1.8 0 0 0-1.9-1.8Zm34-33.6a1.8 1.8 0 1 0 1.8 1.8 1.8 1.8 0 0 0-1.8-1.8Zm-17-16.8a1.8 1.8 0 1 0 1.8 1.9 1.8 1.8 0 0 0-1.8-1.9Zm0-16.7a1.8 1.8 0 1 0 1.8 1.8 1.8 1.8 0 0 0-1.8-1.8Zm0 33.5a1.8 1.8 0 1 0 1.8 1.9 1.8 1.8 0 0 0-1.8-1.9Zm0-50.3a1.8 1.8 0 1 0 1.8 1.8 1.8 1.8 0 0 0-1.8-1.8Zm0 83.9a1.8 1.8 0 1 0 1.8 1.8 1.8 1.8 0 0 0-1.8-1.8Zm0-100.7a1.8 1.8 0 1 0 1.8 1.8 1.8 1.8 0 0 0-1.8-1.8Zm0 134.3a1.8 1.8 0 1 0 0 3.6 2.1 2.1 0 0 0 .4-.1l1.4-1.6v-.2a1.8 1.8 0 0 0-1.8-1.7Zm0-16.8a1.8 1.8 0 1 0 1.8 1.8 1.8 1.8 0 0 0-1.8-1.8Zm0-33.6a1.8 1.8 0 1 0 1.8 1.8 1.8 1.8 0 0 0-1.8-1.8Zm0-117.5a1.8 1.8 0 1 0 1.8 1.8 1.8 1.8 0 0 0-1.8-1.8Zm17 33.6a1.8 1.8 0 1 0 1.8 1.8 1.8 1.8 0 0 0-1.8-1.8Zm0-50.3a1.8 1.8 0 1 0 1.8 1.8 1.8 1.8 0 0 0-1.8-1.9Zm0 33.5a1.8 1.8 0 1 0 1.8 1.8 1.8 1.8 0 0 0-1.8-1.8Zm-17 0a1.8 1.8 0 1 0 1.8 1.8 1.8 1.8 0 0 0-1.8-1.8Zm17 33.6a1.8 1.8 0 1 0 1.8 1.8 1.8 1.8 0 0 0-1.8-1.8Zm-17-67.1a1.8 1.8 0 1 0 1.8 1.8 1.8 1.8 0 0 0-1.8-1.9Zm-17 201.4a1.8 1.8 0 1 0 0 3.6 1.7 1.7 0 0 0 .7-.2l.8-.7a1.9 1.9 0 0 0 .3-1 1.8 1.8 0 0 0-1.8-1.7Zm34-184.7a1.8 1.8 0 1 0 1.8 1.8 1.8 1.8 0 0 0-1.8-1.8Zm-67.9 151.1a1.8 1.8 0 1 0 1.9 1.8 1.8 1.8 0 0 0-1.9-1.8Zm0-33.6a1.8 1.8 0 1 0 1.9 1.8 1.8 1.8 0 0 0-1.9-1.8Zm0 16.8a1.8 1.8 0 1 0 1.9 1.8 1.8 1.8 0 0 0-1.9-1.8Zm0-33.6a1.8 1.8 0 1 0 1.9 1.9 1.8 1.8 0 0 0-1.9-1.9Zm0 100.7a1.8 1.8 0 1 0 1.9 1.9 1.8 1.8 0 0 0-1.9-1.9Zm0-33.5a1.8 1.8 0 1 0 1.9 1.8 1.8 1.8 0 0 0-1.9-1.8Zm0 16.7a1.8 1.8 0 1 0 1.9 1.9 1.8 1.8 0 0 0-1.9-1.9Zm0-100.7a1.8 1.8 0 1 0 1.9 1.9 1.8 1.8 0 0 0-1.9-1.9Zm0-50.3a1.8 1.8 0 1 0 1.9 1.8 1.8 1.8 0 0 0-1.9-1.8Zm0-50.4a1.8 1.8 0 1 0 1.9 1.9 1.8 1.8 0 0 0-1.9-1.9Zm0 84a1.8 1.8 0 1 0 1.9 1.8 1.8 1.8 0 0 0-1.9-1.8Zm0-16.8a1.8 1.8 0 1 0 1.9 1.8 1.8 1.8 0 0 0-1.9-1.8Zm34-33.6a1.8 1.8 0 1 0 1.8 1.8 1.8 1.8 0 0 0-1.9-1.8Zm-34-16.8a1.8 1.8 0 1 0 1.9 1.8 1.8 1.8 0 0 0-1.9-1.8Zm0 16.8a1.8 1.8 0 1 0 1.9 1.8 1.8 1.8 0 0 0-1.9-1.8Zm17 167.9a1.8 1.8 0 1 0 1.9 1.8 1.8 1.8 0 0 0-1.9-1.8Zm0-33.6a1.8 1.8 0 1 0 1.9 1.8 1.8 1.8 0 0 0-1.9-1.8Zm0 16.8a1.8 1.8 0 1 0 1.9 1.8 1.8 1.8 0 0 0-1.9-1.8Zm0-33.6a1.8 1.8 0 1 0 1.9 1.8 1.8 1.8 0 0 0-1.9-1.8Zm17-134.3a1.8 1.8 0 1 0 1.9 1.8 1.8 1.8 0 0 0-2-1.8Zm0-16.8a1.8 1.8 0 1 0 1.9 1.9 1.8 1.8 0 0 0-2-1.9Zm-17 134.3a1.8 1.8 0 1 0 1.9 1.9 1.8 1.8 0 0 0-2-1.8Zm0-83.9a1.8 1.8 0 1 0 1.8 1.8 1.8 1.8 0 0 0-1.8-1.8Zm0 67.2a1.8 1.8 0 1 0 1.9 1.8 1.8 1.8 0 0 0-2-1.8Zm0-100.7a1.8 1.8 0 1 0 1.9 1.8 1.8 1.8 0 0 0-2-1.8Zm0-16.8a1.8 1.8 0 1 0 1.9 1.8 1.8 1.8 0 0 0-2-1.8Zm0 33.6a1.8 1.8 0 1 0 1.9 1.8 1.8 1.8 0 0 0-2-1.8Zm0 50.3a1.8 1.8 0 1 0 1.9 1.8 1.8 1.8 0 0 0-2-1.8Zm0 16.8a1.8 1.8 0 1 0 1.9 1.8 1.8 1.8 0 0 0-2-1.8Zm0-33.6a1.8 1.8 0 1 0 1.9 1.8 1.8 1.8 0 0 0-2-1.8ZM109 205.1a1.8 1.8 0 0 0-3.6 0 1.8 1.8 0 0 0 .2.9l.9.8a1.9 1.9 0 0 0 .7.1 1.8 1.8 0 0 0 1.8-1.8Zm83-18.6a1.8 1.8 0 1 0 1.8 1.8 1.8 1.8 0 0 0-1.8-1.8Zm0 33.6a1.8 1.8 0 1 0 1.8 1.8 1.8 1.8 0 0 0-1.8-1.8Zm0 16.8a1.8 1.8 0 1 0 1.8 1.8 1.8 1.8 0 0 0-1.8-1.8Zm0-67.2a1.8 1.8 0 1 0 1.8 1.8 1.8 1.8 0 0 0-1.8-1.8Zm0-50.3a1.8 1.8 0 1 0 1.8 1.8 1.8 1.8 0 0 0-1.8-1.8Zm0-16.8a1.8 1.8 0 1 0 1.8 1.8 1.8 1.8 0 0 0-1.8-1.8Zm0 50.3a1.8 1.8 0 1 0 1.8 1.8 1.8 1.8 0 0 0-1.8-1.8Zm0-16.8a1.8 1.8 0 1 0 1.8 1.9 1.8 1.8 0 0 0-1.8-1.8Zm17-100.7a1.8 1.8 0 1 0 1.8 1.8 1.8 1.8 0 0 0-1.9-1.8Zm0 33.6a1.8 1.8 0 1 0 1.8 1.8A1.8 1.8 0 0 0 209 69Zm-34 16.8a1.8 1.8 0 1 0 1.8 1.8 1.8 1.8 0 0 0-1.8-1.8Zm34-33.6a1.8 1.8 0 1 0 1.8 1.8 1.8 1.8 0 0 0-1.9-1.8Zm0 33.6a1.8 1.8 0 1 0 1.7 1.8 1.8 1.8 0 0 0-1.8-1.8Zm0-67.1a1.8 1.8 0 1 0 1.7 1.8 1.8 1.8 0 0 0-1.8-1.8Zm0-16.8a1.8 1.8 0 1 0 1.7 1.8 1.8 1.8 0 0 0-1.8-1.8Zm-34 235a1.8 1.8 0 1 0 1.8 1.8 1.8 1.8 0 0 0-1.8-1.8Zm0-50.4a1.8 1.8 0 1 0 1.8 1.8 1.8 1.8 0 0 0-1.8-1.8Zm0 16.8a1.8 1.8 0 1 0 1.8 1.8 1.8 1.8 0 0 0-1.8-1.8Zm0 16.8a1.8 1.8 0 1 0 1.8 1.8 1.8 1.8 0 0 0-1.8-1.8Zm0-50.4a1.8 1.8 0 1 0 1.8 1.8 1.8 1.8 0 0 0-1.8-1.8ZM192 69a1.8 1.8 0 1 0 1.8 1.8A1.8 1.8 0 0 0 192 69Zm-17 33.6a1.8 1.8 0 1 0 1.8 1.8 1.8 1.8 0 0 0-1.8-1.8Zm0 50.4a1.8 1.8 0 1 0 1.8 1.8 1.8 1.8 0 0 0-1.8-1.8Zm0-16.8a1.8 1.8 0 1 0 1.8 1.8 1.8 1.8 0 0 0-1.8-1.8Zm0-16.8a1.8 1.8 0 1 0 1.8 1.8 1.8 1.8 0 0 0-1.8-1.8Zm17-100.7a1.8 1.8 0 1 0 1.8 1.8 1.8 1.8 0 0 0-1.8-1.8Zm0-16.8a1.8 1.8 0 1 0 1.8 1.8A1.8 1.8 0 0 0 192 2Zm0 50.4a1.8 1.8 0 1 0 1.8 1.8 1.8 1.8 0 0 0-1.8-1.9Zm0-16.8a1.8 1.8 0 1 0 1.8 1.8 1.8 1.8 0 0 0-1.8-1.8Zm17 67.1a1.8 1.8 0 1 0 1.8 1.8 1.8 1.8 0 0 0-1.9-1.8Zm-17-16.8a1.8 1.8 0 1 0 1.8 1.8 1.8 1.8 0 0 0-1.8-1.8ZM73.3 69a1.8 1.8 0 1 0 1.8 1.8 1.8 1.8 0 0 0-1.8-1.8Zm0 16.8a1.8 1.8 0 1 0 1.8 1.8 1.8 1.8 0 0 0-1.8-1.8Zm0-33.6A1.8 1.8 0 1 0 75 54a1.8 1.8 0 0 0-1.8-1.8Zm0 50.4a1.8 1.8 0 1 0 1.8 1.8 1.8 1.8 0 0 0-1.8-1.8Zm0 50.3a1.8 1.8 0 1 0 1.8 1.8 1.8 1.8 0 0 0-1.8-1.7Zm0-16.8A1.8 1.8 0 1 0 75 138a1.8 1.8 0 0 0-1.8-1.8Zm0-16.8a1.8 1.8 0 1 0 1.8 1.8 1.8 1.8 0 0 0-1.8-1.7Zm0-83.9a1.8 1.8 0 1 0 1.8 1.8 1.8 1.8 0 0 0-1.8-1.8Zm-17 0a1.8 1.8 0 1 0 1.8 1.8 1.8 1.8 0 0 0-1.8-1.8Zm0 16.8A1.8 1.8 0 1 0 58 54a1.8 1.8 0 0 0-1.8-1.8Zm0 67.1a1.8 1.8 0 1 0 1.8 1.8 1.8 1.8 0 0 0-1.8-1.7ZM90.3 2A1.8 1.8 0 1 0 92 3.7a1.8 1.8 0 0 0-1.9-1.8Zm0 184.6a1.8 1.8 0 0 0-1.9 1.8v.2l1.4 1.6a2.1 2.1 0 0 0 .4 0 1.8 1.8 0 1 0 0-3.6Zm118.6-67.1a1.8 1.8 0 1 0 1.9 1.8 1.8 1.8 0 0 0-1.9-1.8ZM73.3 18.7a1.8 1.8 0 1 0 1.8 1.8 1.8 1.8 0 0 0-1.8-1.8ZM56.3 69a1.8 1.8 0 1 0 1.8 1.8 1.8 1.8 0 0 0-1.8-1.8Zm17-67.1a1.8 1.8 0 1 0 1.8 1.8 1.8 1.8 0 0 0-1.8-1.8Zm-17 100.7a1.8 1.8 0 1 0 1.8 1.8 1.8 1.8 0 0 0-1.8-1.8Zm0-16.8a1.8 1.8 0 1 0 1.8 1.8 1.8 1.8 0 0 0-1.8-1.8ZM209 203.3a1.8 1.8 0 1 0 1.9 1.8 1.8 1.8 0 0 0-1.9-1.8Zm0 16.8a1.8 1.8 0 1 0 1.9 1.8 1.8 1.8 0 0 0-1.9-1.8ZM90.2 18.7a1.8 1.8 0 1 0 1.9 1.8 1.8 1.8 0 0 0-1.9-1.8ZM209 186.5a1.8 1.8 0 1 0 1.9 1.8 1.8 1.8 0 0 0-1.9-1.8Zm0-50.4a1.8 1.8 0 1 0 1.9 1.9 1.8 1.8 0 0 0-1.9-1.8Zm0 16.8a1.8 1.8 0 1 0 1.9 1.8 1.8 1.8 0 0 0-1.9-1.8Zm0 16.8a1.8 1.8 0 1 0 1.9 1.8 1.8 1.8 0 0 0-1.9-1.8Zm0 67.1a1.8 1.8 0 1 0 1.9 1.9 1.8 1.8 0 0 0-1.9-1.8ZM90.2 52.2a1.8 1.8 0 1 0 1.9 1.8 1.8 1.8 0 0 0-1.9-1.8Zm0 16.8a1.8 1.8 0 1 0 1.9 1.8 1.8 1.8 0 0 0-1.9-1.8Zm0-33.6a1.8 1.8 0 1 0 1.9 1.8 1.8 1.8 0 0 0-1.9-1.8Zm0 117.5a1.8 1.8 0 1 0 1.9 1.8 1.8 1.8 0 0 0-1.9-1.8Zm0-67.1a1.8 1.8 0 1 0 1.9 1.8 1.8 1.8 0 0 0-1.9-1.8Zm0 84a1.8 1.8 0 1 0 1.9 1.7 1.8 1.8 0 0 0-1.9-1.8Zm0-33.7a1.8 1.8 0 1 0 1.9 1.9 1.8 1.8 0 0 0-1.9-1.8Zm0-16.7a1.8 1.8 0 1 0 1.9 1.8 1.8 1.8 0 0 0-1.9-1.8Zm0-16.8a1.8 1.8 0 1 0 1.9 1.8 1.8 1.8 0 0 0-1.9-1.8ZM192 203.3a1.8 1.8 0 1 0 1.8 1.8 1.8 1.8 0 0 0-1.8-1.8ZM141.1 85.8a1.8 1.8 0 1 0 1.8 1.8 1.8 1.8 0 0 0-1.8-1.8Zm0 16.8a1.8 1.8 0 1 0 1.8 1.8 1.8 1.8 0 0 0-1.8-1.8Zm0 16.8a1.8 1.8 0 1 0 1.8 1.8 1.8 1.8 0 0 0-1.8-1.8Zm0-67.2A1.8 1.8 0 1 0 143 54a1.8 1.8 0 0 0-1.8-1.8Zm0 16.8a1.8 1.8 0 1 0 1.8 1.8 1.8 1.8 0 0 0-1.8-1.8Zm0 84a1.8 1.8 0 1 0 1.8 1.7 1.8 1.8 0 0 0-1.8-1.8Zm0 33.5a1.8 1.8 0 1 0 1.8 1.8 1.8 1.8 0 0 0-1.8-1.8Zm-17-33.6a1.8 1.8 0 1 0 1.8 1.8 1.8 1.8 0 0 0-1.8-1.8Zm17 67.2a1.8 1.8 0 1 0 1.8 1.8 1.8 1.8 0 0 0-1.8-1.8Zm0-184.7a1.8 1.8 0 1 0 1.8 1.8 1.8 1.8 0 0 0-1.8-1.8Zm0 100.8a1.8 1.8 0 1 0 1.8 1.8 1.8 1.8 0 0 0-1.8-1.8Zm-17 67a1.8 1.8 0 1 0 1.9 1.9 1.8 1.8 0 0 0-1.8-1.8Zm17-184.5a1.8 1.8 0 1 0 1.8 1.8 1.8 1.8 0 0 0-1.8-1.8Zm-17 167.8a1.8 1.8 0 1 0 1.8 1.8 1.8 1.8 0 0 0-1.8-1.8Zm0-16.8a1.8 1.8 0 1 0 1.8 1.8 1.8 1.8 0 0 0-1.8-1.8ZM141.1 2a1.8 1.8 0 1 0 1.8 1.8 1.8 1.8 0 0 0-1.8-1.8Zm0 167.8a1.8 1.8 0 1 0 1.8 1.8 1.8 1.8 0 0 0-1.8-1.8Zm17-50.3a1.8 1.8 0 1 0 1.8 1.8 1.8 1.8 0 0 0-1.8-1.8Zm0 16.7a1.8 1.8 0 1 0 1.8 1.9 1.8 1.8 0 0 0-1.8-1.8Zm0-33.5a1.8 1.8 0 1 0 1.8 1.8 1.8 1.8 0 0 0-1.8-1.8Zm0 50.3a1.8 1.8 0 1 0 1.8 1.8 1.8 1.8 0 0 0-1.8-1.8Zm0 16.8a1.8 1.8 0 1 0 1.8 1.8 1.8 1.8 0 0 0-1.8-1.8Zm0 50.4a1.8 1.8 0 1 0 1.8 1.8 1.8 1.8 0 0 0-1.8-1.8Zm0-16.8a1.8 1.8 0 1 0 1.8 1.8 1.8 1.8 0 0 0-1.8-1.8Zm0-117.5a1.8 1.8 0 1 0 1.8 1.8 1.8 1.8 0 0 0-1.8-1.8Zm0 100.7a1.8 1.8 0 1 0 1.8 1.8 1.8 1.8 0 0 0-1.8-1.8Zm0-117.5a1.8 1.8 0 0 0-1.8 1.8A1.8 1.8 0 1 0 158 69Zm-17 134.3a1.8 1.8 0 1 0 1.8 1.8 1.8 1.8 0 0 0-1.8-1.8Zm17-151A1.8 1.8 0 1 0 160 54a1.8 1.8 0 0 0-1.8-1.8Zm0-16.8a1.8 1.8 0 1 0 1.8 1.8 1.8 1.8 0 0 0-1.8-1.9Zm0-33.6a1.8 1.8 0 1 0 1.8 1.8 1.8 1.8 0 0 0-1.8-1.8Zm0 16.8a1.8 1.8 0 1 0 1.8 1.8 1.8 1.8 0 0 0-1.8-1.9Zm-50.9 151a1.8 1.8 0 1 0 1.8 1.8 1.8 1.8 0 0 0-1.8-1.8Zm0-167.8a1.8 1.8 0 1 0 1.8 1.8 1.8 1.8 0 0 0-1.8-1.8Zm0 50.3A1.8 1.8 0 1 0 109 54a1.8 1.8 0 0 0-1.8-1.8Zm0 16.8a1.8 1.8 0 1 0 1.8 1.8 1.8 1.8 0 0 0-1.8-1.8Zm0-33.6a1.8 1.8 0 1 0 1.8 1.9 1.8 1.8 0 0 0-1.8-1.8Zm0-16.7a1.8 1.8 0 1 0 1.8 1.8 1.8 1.8 0 0 0-1.8-1.8ZM175 1.9a1.8 1.8 0 1 0 1.8 1.8 1.8 1.8 0 0 0-1.8-1.8Zm-50.8 134.3a1.8 1.8 0 1 0 1.8 1.8 1.8 1.8 0 0 0-1.8-1.8ZM175 35.5a1.8 1.8 0 1 0 1.8 1.8 1.8 1.8 0 0 0-1.8-1.8Zm0 16.7a1.8 1.8 0 1 0 1.8 1.8 1.8 1.8 0 0 0-1.8-1.8Zm-67.8 33.6a1.8 1.8 0 1 0 1.8 1.8 1.8 1.8 0 0 0-1.8-1.8ZM175 18.7a1.8 1.8 0 1 0 1.8 1.8 1.8 1.8 0 0 0-1.8-1.8Zm-50.8 33.5A1.8 1.8 0 1 0 126 54a1.8 1.8 0 0 0-1.8-1.8Zm0-16.8a1.8 1.8 0 1 0 1.8 1.9 1.8 1.8 0 0 0-1.8-1.8Zm0-16.7a1.8 1.8 0 1 0 1.8 1.8 1.8 1.8 0 0 0-1.8-1.8Zm0-16.8a1.8 1.8 0 1 0 1.8 1.8 1.8 1.8 0 0 0-1.8-1.8Zm0 84a1.8 1.8 0 0 0-1.9 1.7 1.8 1.8 0 1 0 1.9-1.8Zm0 16.7a1.8 1.8 0 0 0-1.9 1.8 1.8 1.8 0 1 0 1.9-1.8Zm0 16.8a1.8 1.8 0 1 0 1.8 1.8 1.8 1.8 0 0 0-1.8-1.8Zm0-50.4a1.8 1.8 0 1 0 1.8 1.8 1.8 1.8 0 0 0-1.8-1.8Zm-17 84a1.8 1.8 0 1 0 1.8 1.8 1.8 1.8 0 0 0-1.8-1.8Zm0-16.8a1.8 1.8 0 1 0 1.8 1.8 1.8 1.8 0 0 0-1.8-1.8Zm0-16.8a1.8 1.8 0 0 0-1.8 1.8 1.8 1.8 0 1 0 1.8-1.8Zm0 67.2a1.8 1.8 0 1 0 1.8 1.8 1.8 1.8 0 0 0-1.8-1.9Zm0-84a1.8 1.8 0 1 0 1.8 1.8 1.8 1.8 0 0 0-1.8-1.8ZM175 69a1.8 1.8 0 1 0 1.8 1.8A1.8 1.8 0 0 0 175 69Z" transform="translate(-1 -.5)" fill="url(#prefix__linear-gradient-13)"/><path d="M76 45h-1l.3 25h.6V45Zm-6.4.3-.6.1h-.4l2.6 24.9h.6l-2.2-25Zm-6.2.9h-.2l-.8.1L67.1 71l.7-.2-4.4-24.5ZM57 47.6h-.3l-.6.2 7 24 .6-.1Zm-6 1.9-.4.2h-.4l9 23.4.7-.2-8.8-23.4Zm-5.8 2.4-.7.4h-.2l11 22.5.6-.3L45.3 52Zm-5.6 3-.8.5 13 21.4.6-.3-12.8-21.6Zm-5.3 3.5-.2.1-.2.2L48.5 79l.5-.4-14.5-20.3Zm-5 3.9-.7.6 16.5 18.8.5-.5Zm-4.7 4.3c0 .1 0 .2-.2.3l-.3.3 18 17.4.5-.5-17.9-17.5Zm-4.2 4.7c0 .2-.2.4-.4.6l19.4 15.8.4-.6-19.3-15.8Zm-3.7 5-.6.9 21 13.8.3-.5-20.7-14.1Zm-3.4 5.5-.2.3-.2.4 22 12 .3-.5-21.8-12.2Zm-2.8 5.6v.2l-.4.7 23 9.8.3-.6-22.9-10Zm-2.3 6v.1l-.3.8 23.8 7.8.2-.6-23.7-8.2Zm-1.8 6v.3l-.1.7 24.3 5.6.1-.6Zm-1.2 6.3-.1 1 24.7 3.4.1-.7Zm-.7 6.2v1l25 1.3v-.7Zm24.9 5.8-25 .6v1l25-1v-.6Zm.3 4-24.9 2.9v.2l.1.7 24.8-3v-.7Zm.6 4-24.5 5 .2 1 24.4-5.2v-.6Zm1 4-24 7.3v.1l.2.6v.2l24-7.5-.2-.6Zm1.3 4L9.5 143l.1.2v.2l.1.3v.1l23.3-9.5Zm1.7 3.7-22.3 11.3v.1l.2.4v.1L34.8 138l-.3-.6Zm2 3.6-21.1 13.3.5.8 21-13.5-.3-.6Zm2.3 3.4-20 15 .7.8L39 144.8l-.4-.5Zm2.6 3.1-18.5 16.8.1.2.2.2v.1l18.4-17-.4-.5Zm3 3-17 18.3.3.3.4.4L44.8 151l-.5-.4Zm3.1 2.7L32.1 173l.5.4.2.2 15.2-20-.5-.4Zm3.4 2.4-13.6 21 .8.5L51.4 156l-.6-.4Zm3.5 2-11.5 22.2.2.2h.2l.4.2L54.9 158l-.5-.3Zm3.7 1.8-9.6 23a1.4 1.4 0 0 1 .3.2l.7.2 9.2-23.2-.6-.2Zm3.9 1.4-7.6 23.8.6.2H55.2l7.3-23.8-.6-.2Zm4 1-5.4 24.5h.3l.7.2 5-24.5-.6-.1Zm4 .8-3.2 24.8h1l2.8-24.8Zm4 .3-1 25H74l.6-25h-.7Zm5 0h-.7l1.2 25h1l-1.6-25Zm4-.5h-.7l3.4 24.9h.4a3.9 3.9 0 0 1 .6-.1Zm4-.8-.6.2 5.5 24.3 1-.2Zm4-1.1c-.2 0-.4 0-.6.2l7.7 23.7h.4l.4-.2-7.8-23.7Zm3.8-1.5-.6.2 9.8 23 1-.4L94.8 159Zm3.6-1.9-.5.4 11.8 22 .6-.4h.2l-12-22Zm3.7-2.1-.5.4 13.7 20.9.8-.6-14-20.7Zm3.3-2.5-.5.5 15.5 19.5.3-.1.2-.3h.1l-15.8-19.4Zm3-2.7-.4.5 17.1 18.1h.1l.6-.6-17.5-18Zm3-3-.5.5 18.7 16.6.7-.8Zm2.5-3.2-.4.5 20 14.9.7-.8-20.3-14.6Zm2.2-3.4-.3.5 21.3 13 .2-.4.3-.4L116 140Zm2-3.7-.3.6 22.4 11 .1-.2.3-.6-22.5-10.7Zm1.6-3.8-.2.6 23.3 9 .3-.9-23.4-8.7Zm1.2-3.8-.1.6 24 6.9.2-1-24-6.6Zm1-4-.2.6 24.6 4.8.1-1-24.6-4.4Zm.5-4v.6l24.7 2.4v-.7a1.2 1.2 0 0 0 0-.3Zm.2-4.2v.7l25 .3v-1h-25Zm24.7-6.4-25 2.1v.6l25-1.8-.1-.6a3 3 0 0 1 0-.4Zm-.8-6.2-24.6 4.4v.6l24.8-4-.2-.9Zm-1.4-6.2-24.1 6.6.1.6 24.3-6.2-.1-.2v-.3l-.3-.6Zm-2-6.2-23.4 8.7.2.6 23.5-8.3v-.1Zm-2.4-5.8-22.7 10.8.3.5L141 86.8Zm-3-5.5L116 93l.3.6 21.8-12.4-.3-.4v-.2Zm-3.5-5.4-20.3 14.5.3.6 20.6-14.3-.3-.4Zm-3.9-5-19 16.3.4.5 19.2-16v-.1l-.5-.5Zm-4.3-4.6-17.5 18c.2 0 .3.2.5.4L126.6 66l-.5-.5Zm-4.8-4.3-15.8 19.4.5.4L122 62Zm-5-3.7L102 78l.5.3L117 58l-.1-.1-.6-.3Zm-5.3-3.3L98.5 75.9l.6.3 12.5-21.6-.8-.5Zm-5.8-2.9L94.8 74l.6.3L106 51.6l-.4-.2-.4-.1ZM99.1 49 91 72.6l.6.2 8.5-23.6h-.2l-.7-.3Zm-6-1.8-6 24.3.7.1L94 47.4l-.3-.1-.6-.2ZM87 46 83 70.6h.7L87.8 46h-1Zm-6.3-.7-1.6 25h.7l1.9-25h-1Z" transform="translate(-1 -.5)" fill="url(#prefix__linear-gradient-14)"/><path class="prefix__cls-18" d="M243.3 62.6a8.5 8.5 0 1 0-8.5-8.5 8.5 8.5 0 0 0 8.5 8.5Z" transform="translate(-1 -.5)"/><path class="prefix__cls-19" d="M226.3 45.8a8.5 8.5 0 1 0-8.5-8.5 8.5 8.5 0 0 0 8.5 8.5ZM328 113a8.5 8.5 0 1 0-8.5-8.6 8.5 8.5 0 0 0 8.5 8.5Z" transform="translate(-1 -.5)"/><path d="M277.1 146.5a8.5 8.5 0 1 0-8.5-8.5 8.5 8.5 0 0 0 8.5 8.5Z" transform="translate(-1 -.5)" fill="#4f97b8"/><path class="prefix__cls-18" d="M277.1 213.6a8.5 8.5 0 1 0-8.5-8.5 8.5 8.5 0 0 0 8.5 8.5Z" transform="translate(-1 -.5)"/><path class="prefix__cls-21" d="M0 0H800V400H0z"/><path class="prefix__cls-21" d="M0 0H800V400H0z"/></svg>