<svg id="prefix__Layer_1" data-name="Layer 1" xmlns="http://www.w3.org/2000/svg" xmlns:xlink="http://www.w3.org/1999/xlink" viewBox="0 0 760.8 388.9"><defs><linearGradient id="prefix__linear-gradient" x1="488" y1="111.7" x2="587.2" y2="378.2" gradientTransform="matrix(1 0 0 -1 0 497)" gradientUnits="userSpaceOnUse"><stop offset=".2" stop-color="#fdb81d" stop-opacity="0"/><stop offset="1" stop-color="#fdb81d" stop-opacity=".7"/></linearGradient><linearGradient id="prefix__linear-gradient-2" x1="485.3" y1="104.7" x2="584.6" y2="371.1" xlink:href="#prefix__linear-gradient"/><linearGradient id="prefix__linear-gradient-3" x1="485.3" y1="104.7" x2="584.6" y2="371.1" xlink:href="#prefix__linear-gradient"/><linearGradient id="prefix__linear-gradient-4" x1="485.3" y1="104.7" x2="584.6" y2="371.1" xlink:href="#prefix__linear-gradient"/><linearGradient id="prefix__linear-gradient-9" x1="485.3" y1="104.7" x2="584.6" y2="371.1" xlink:href="#prefix__linear-gradient"/><linearGradient id="prefix__linear-gradient-13" x1="102.9" y1="282.1" x2="334.9" y2="434.1" gradientTransform="matrix(1 0 0 -1 0 497)" gradientUnits="userSpaceOnUse"><stop offset="0" stop-color="#4f97b8" stop-opacity=".1"/><stop offset="1" stop-color="#4f97b8"/></linearGradient><linearGradient id="prefix__linear-gradient-14" x1="59.5" y1="283.5" x2="142.5" y2="372.5" gradientTransform="matrix(1 0 0 -1 0 497)" gradientUnits="userSpaceOnUse"><stop offset="0" stop-color="#b4d2e0" stop-opacity=".1"/><stop offset="1" stop-color="#b4d2e0"/></linearGradient><clipPath id="prefix__clip-path" transform="translate(-40.2)"><path class="prefix__cls-1" d="M399.2 110.3H677.8V388.9H399.2z"/></clipPath><style>.prefix__cls-1{fill:none}.prefix__cls-4{fill:url(#prefix__linear-gradient-2)}.prefix__cls-5{fill:url(#prefix__linear-gradient-3)}.prefix__cls-7{fill:url(#prefix__linear-gradient-9)}.prefix__cls-8{fill:#ededed;fill-opacity:.95}.prefix__cls-11{fill:#fdb81d}.prefix__cls-12{fill:#fff}</style></defs><g clip-path="url(#prefix__clip-path)"><path d="M538.5 242.5a7.2 7.2 0 1 1-7.2 7.1 7.2 7.2 0 0 1 7.2-7.1Zm0-2.4a9.5 9.5 0 1 0 9.5 9.5 9.5 9.5 0 0 0-9.5-9.5Z" transform="translate(-40.2)" fill="url(#prefix__linear-gradient)"/><path class="prefix__cls-4" d="M538.5 231a18.6 18.6 0 1 1-18.6 18.6 18.6 18.6 0 0 1 18.6-18.5Zm0-2.3a21 21 0 1 0 21 21 21 21 0 0 0-21-21Z" transform="translate(-40.2)"/><path class="prefix__cls-5" d="M538.5 219.5a30.1 30.1 0 1 1-30.1 30.1 30.1 30.1 0 0 1 30-30Zm0-2.4a32.5 32.5 0 1 0 32.5 32.5 32.5 32.5 0 0 0-32.5-32.5Z" transform="translate(-40.2)"/><path d="M538.5 206.8a42.8 42.8 0 1 1-42.8 42.8 42.8 42.8 0 0 1 42.8-42.8Zm0-2.3a45.1 45.1 0 1 0 45.1 45.1 45.1 45.1 0 0 0-45.1-45.1Z" transform="translate(-40.2)" fill="url(#prefix__linear-gradient-4)"/><path class="prefix__cls-4" d="M538.5 195.6a54 54 0 1 1-54 54 54.1 54.1 0 0 1 54-54Zm0-2.4a56.5 56.5 0 1 0 56.4 56.4 56.4 56.4 0 0 0-56.4-56.4Z" transform="translate(-40.2)"/><path class="prefix__cls-5" d="M538.5 183.1a66.5 66.5 0 1 1-66.5 66.5 66.6 66.6 0 0 1 66.5-66.5Zm0-2.3a68.9 68.9 0 1 0 68.9 68.8 68.8 68.8 0 0 0-69-68.8Z" transform="translate(-40.2)"/><path class="prefix__cls-5" d="M538.5 170.8a78.9 78.9 0 1 1-78.9 78.8 79 79 0 0 1 78.9-78.8Zm0-2.4a81.3 81.3 0 1 0 81.2 81.2 81.3 81.3 0 0 0-81.2-81.2Z" transform="translate(-40.2)"/><path class="prefix__cls-4" d="M538.5 159.4a90.3 90.3 0 1 1-90.3 90.2 90.3 90.3 0 0 1 90.3-90.2Zm0-2.4a92.6 92.6 0 1 0 92.6 92.6 92.6 92.6 0 0 0-92.6-92.6Z" transform="translate(-40.2)"/><path class="prefix__cls-7" d="M538.5 147.3a102.3 102.3 0 1 1-72.3 30 101.6 101.6 0 0 1 72.3-30Zm0-2.3a104.7 104.7 0 1 0 104.7 104.6A104.7 104.7 0 0 0 538.5 145Z" transform="translate(-40.2)"/><path class="prefix__cls-7" d="M538.5 135.8a113.8 113.8 0 1 1-80.5 33.4 113 113 0 0 1 80.5-33.4Zm0-2.4a116.2 116.2 0 1 0 116.2 116.2 116.2 116.2 0 0 0-116.2-116.2Z" transform="translate(-40.2)"/><path class="prefix__cls-7" d="M538.5 123a126.6 126.6 0 1 1-89.5 37.1 125.7 125.7 0 0 1 89.5-37.1Zm0-2.4a129 129 0 1 0 129 129 129 129 0 0 0-129-129Z" transform="translate(-40.2)"/><path class="prefix__cls-7" d="M538.5 112.7a137 137 0 1 1-96.8 40.1 136 136 0 0 1 96.8-40Zm0-2.4a139.3 139.3 0 1 0 139.3 139.3 139.3 139.3 0 0 0-139.3-139.3Z" transform="translate(-40.2)"/></g><path class="prefix__cls-8" d="M699.2 151.5h21.2L710 120.8Z" transform="translate(-40.2)"/><path class="prefix__cls-8" d="M693 12a108 108 0 1 0 108 108A108 108 0 0 0 693 12Zm-62.3 152.4a15 15 0 0 0 13 6.3 14.6 14.6 0 0 0 7.6-2 15.5 15.5 0 0 0 5.2-5.2 21.4 21.4 0 0 0 2.7-7.2h12.5a33.4 33.4 0 0 1-2.4 9.1 24.8 24.8 0 0 1-5.1 7.9 23.9 23.9 0 0 1-8.3 5.4 32.3 32.3 0 0 1-11.9 2 30.4 30.4 0 0 1-16.7-4.5 29 29 0 0 1-10.6-12.7A47.3 47.3 0 0 1 613 144c0-7.5 1.2-13.9 3.7-19.2a27.2 27.2 0 0 1 10.6-12.3 31.4 31.4 0 0 1 16.7-4.2 28.7 28.7 0 0 1 13.7 3.1 26.3 26.3 0 0 1 9.7 8.5 25.2 25.2 0 0 1 4.4 12h-12.5a18.7 18.7 0 0 0-2.8-7 14.2 14.2 0 0 0-5.1-4.9 15.4 15.4 0 0 0-7.7-1.8 16.6 16.6 0 0 0-9.6 2.7c-2.6 1.7-4.5 4.5-6 8.4s-2 8.8-2 14.9c0 9.2 1.6 16 4.6 20.2Zm99 15.2-6.4-17.6h-26.8l-6.4 17.7h-12l25.3-70.4h12.8l25.3 70.4Z" transform="translate(-40.2)"/><path class="prefix__cls-1" d="M42.6 0H320V274.6H42.6z"/><path d="M273.5 244.4a1.6 1.6 0 1 1-1.5-1.5 1.6 1.6 0 0 1 1.5 1.5Zm-16-101.6a1.5 1.5 0 1 0 1.6 1.6 1.5 1.5 0 0 0-1.6-1.6Zm0 100a1.5 1.5 0 1 0 1.6 1.6 1.5 1.5 0 0 0-1.6-1.5Zm0-128.6a1.6 1.6 0 1 0 1.6 1.6 1.5 1.5 0 0 0-1.6-1.5Zm0 100a1.5 1.5 0 1 0 1.6 1.6 1.5 1.5 0 0 0-1.6-1.5Zm0 14.3a1.5 1.5 0 1 0 1.6 1.6 1.5 1.5 0 0 0-1.6-1.5Zm0-28.5a1.6 1.6 0 1 0 1.6 1.5 1.5 1.5 0 0 0-1.6-1.5Zm0-14.3a1.5 1.5 0 1 0 1.6 1.5 1.5 1.5 0 0 0-1.6-1.5Zm0-14.3a1.5 1.5 0 1 0 1.6 1.5 1.5 1.5 0 0 0-1.6-1.5Zm0-42.9a1.5 1.5 0 1 0 1.6 1.6 1.5 1.5 0 0 0-1.6-1.5Zm0-114.3a1.5 1.5 0 1 0 1.6 1.6 1.5 1.5 0 0 0-1.6-1.5Zm0 14.3a1.5 1.5 0 1 0 1.6 1.5 1.5 1.5 0 0 0-1.6-1.4Zm0-28.6a1.6 1.6 0 1 0 1.6 1.6 1.5 1.5 0 0 0-1.6-1.5Zm-14.4 257.3a1.5 1.5 0 1 0 1.6 1.5 1.5 1.5 0 0 0-1.6-1.5Zm14.4-200a1.5 1.5 0 1 0 1.6 1.5 1.5 1.5 0 0 0-1.6-1.6Zm0 14.2a1.5 1.5 0 1 0 1.6 1.6 1.5 1.5 0 0 0-1.6-1.6Zm0-28.5a1.5 1.5 0 1 0 1.6 1.5 1.5 1.5 0 0 0-1.6-1.6Zm0 42.8a1.5 1.5 0 1 0 1.6 1.6 1.5 1.5 0 0 0-1.6-1.6Zm0 14.3a1.5 1.5 0 1 0 1.6 1.5 1.5 1.5 0 0 0-1.6-1.5Zm14.5 14.3a1.6 1.6 0 1 0 1.6 1.5 1.5 1.5 0 0 0-1.6-1.5Zm0 57.1a1.5 1.5 0 1 0 1.6 1.6 1.5 1.5 0 0 0-1.6-1.6Zm0-14.3a1.6 1.6 0 1 0 1.6 1.6 1.5 1.5 0 0 0-1.6-1.6Zm0 28.6a1.5 1.5 0 1 0 1.6 1.6 1.5 1.5 0 0 0-1.6-1.6Zm0-42.8a1.5 1.5 0 1 0 1.6 1.5 1.5 1.5 0 0 0-1.6-1.6Zm-28.9 128.5a1.5 1.5 0 1 0 1.6 1.6 1.5 1.5 0 0 0-1.6-1.6ZM272 128.6a1.5 1.5 0 1 0 1.6 1.5 1.5 1.5 0 0 0-1.6-1.5Zm0 100a1.5 1.5 0 1 0 1.6 1.5 1.5 1.5 0 0 0-1.6-1.5Zm0 28.5a1.5 1.5 0 1 0 1.6 1.6 1.5 1.5 0 0 0-1.6-1.5Zm0-57.1a1.6 1.6 0 1 0 1.6 1.5 1.5 1.5 0 0 0-1.6-1.5Zm0 14.3a1.5 1.5 0 1 0 1.6 1.5 1.5 1.5 0 0 0-1.6-1.5Zm0-200a1.5 1.5 0 1 0 1.6 1.5 1.5 1.5 0 0 0-1.6-1.5Zm-14.5 257.1a1.5 1.5 0 1 0 1.6 1.6 1.5 1.5 0 0 0-1.6-1.6ZM272 3.1a1.6 1.6 0 0 0 .8-.3l-2.3-.9a1.6 1.6 0 0 0 1.5 1.2Zm0 25.4a1.5 1.5 0 1 0 1.6 1.6 1.5 1.5 0 0 0-1.6-1.6Zm-14.5 228.7a1.5 1.5 0 1 0 1.6 1.5 1.5 1.5 0 0 0-1.6-1.5ZM272 100a1.5 1.5 0 1 0 1.6 1.5 1.5 1.5 0 0 0-1.6-1.5Zm0-14.3a1.5 1.5 0 1 0 1.6 1.6 1.5 1.5 0 0 0-1.6-1.6Zm0-14.3a1.5 1.5 0 1 0 1.5 1.6 1.5 1.5 0 0 0-1.5-1.6Zm0-28.5a1.6 1.6 0 1 0 1.6 1.5 1.5 1.5 0 0 0-1.6-1.6Zm0 14.2a1.5 1.5 0 1 0 1.6 1.6A1.5 1.5 0 0 0 272 57Zm-14.4 100a1.5 1.5 0 1 0 1.5 1.6 1.5 1.5 0 0 0-1.6-1.5Zm-29 71.5a1.5 1.5 0 1 0 1.6 1.5 1.5 1.5 0 0 0-1.5-1.5Zm0-100a1.5 1.5 0 1 0 1.6 1.5 1.5 1.5 0 0 0-1.5-1.5Zm0 14.3a1.5 1.5 0 1 0 1.6 1.5 1.5 1.5 0 0 0-1.5-1.5Zm0-28.6a1.6 1.6 0 1 0 1.6 1.5 1.5 1.5 0 0 0-1.5-1.5Zm0-14.3a1.5 1.5 0 1 0 1.6 1.5 1.5 1.5 0 0 0-1.5-1.5Zm0 114.3a1.5 1.5 0 1 0 1.6 1.5 1.5 1.5 0 0 0-1.5-1.5Zm0-128.6a1.5 1.5 0 1 0 1.6 1.6 1.5 1.5 0 0 0-1.5-1.6Zm0 114.3a1.5 1.5 0 1 0 1.6 1.6 1.5 1.5 0 0 0-1.5-1.6Zm0-28.6a1.5 1.5 0 1 0 1.6 1.6 1.5 1.5 0 0 0-1.5-1.6Zm0 14.3a1.5 1.5 0 1 0 1.6 1.6 1.5 1.5 0 0 0-1.5-1.6Zm0-28.5a1.5 1.5 0 1 0 1.6 1.5 1.5 1.5 0 0 0-1.5-1.6Zm42 115.4 2.2-.9a1.6 1.6 0 0 0-.8-.3 1.5 1.5 0 0 0-1.5 1.2Zm-42-201.2a1.5 1.5 0 1 0 1.6 1.6 1.5 1.5 0 0 0-1.5-1.6Zm70.8 186.8 1.6-1h-.2a1.6 1.6 0 0 0-1.4 1ZM228.7 0a1.6 1.6 0 1 0 1.5 1.6 1.5 1.5 0 0 0-1.5-1.6Zm0 274.6a1.5 1.5 0 1 0-1.6-1.6 1.5 1.5 0 0 0 1.6 1.5Zm0-217.5a1.5 1.5 0 1 0 1.5 1.6 1.5 1.5 0 0 0-1.5-1.6Zm0-42.8a1.5 1.5 0 1 0 1.5 1.5 1.5 1.5 0 0 0-1.5-1.5Zm0 28.6a1.5 1.5 0 1 0 1.5 1.5 1.5 1.5 0 0 0-1.5-1.6Zm0-14.3a1.5 1.5 0 1 0 1.5 1.5 1.5 1.5 0 0 0-1.5-1.6ZM243 157.2a1.5 1.5 0 1 0 1.6 1.5 1.5 1.5 0 0 0-1.6-1.6Zm0-14.3a1.5 1.5 0 1 0 1.6 1.5 1.5 1.5 0 0 0-1.6-1.5Zm0 100a1.6 1.6 0 1 0 1.6 1.5 1.5 1.5 0 0 0-1.6-1.5Zm0-114.3a1.5 1.5 0 1 0 1.6 1.5 1.5 1.5 0 0 0-1.6-1.5Zm0-14.3a1.5 1.5 0 1 0 1.6 1.5 1.5 1.5 0 0 0-1.6-1.5Zm0 57.2a1.5 1.5 0 1 0 1.6 1.5 1.5 1.5 0 0 0-1.6-1.6Zm0 42.8a1.5 1.5 0 1 0 1.6 1.6 1.5 1.5 0 0 0-1.6-1.6Zm0-28.6a1.5 1.5 0 1 0 1.6 1.6 1.5 1.5 0 0 0-1.6-1.6Zm0 42.9a1.5 1.5 0 1 0 1.6 1.5 1.5 1.5 0 0 0-1.6-1.5Zm0-28.6a1.6 1.6 0 1 0 1.6 1.6 1.5 1.5 0 0 0-1.6-1.6Zm0-157.1a1.5 1.5 0 1 0 1.6 1.5 1.5 1.5 0 0 0-1.6-1.6Zm0-43a1.6 1.6 0 1 0 1.6 1.6A1.5 1.5 0 0 0 243 0Zm0 14.4a1.5 1.5 0 1 0 1.6 1.5 1.5 1.5 0 0 0-1.6-1.5Zm-14.4 228.6a1.5 1.5 0 1 0 1.5 1.5 1.5 1.5 0 0 0-1.5-1.5ZM243 28.5a1.5 1.5 0 1 0 1.6 1.6 1.5 1.5 0 0 0-1.6-1.6Zm-14.4 228.6a1.5 1.5 0 1 0 1.5 1.6 1.5 1.5 0 0 0-1.5-1.6ZM243 71.4a1.6 1.6 0 1 0 1.6 1.5 1.5 1.5 0 0 0-1.6-1.5Zm0 28.6a1.5 1.5 0 1 0 1.6 1.5 1.5 1.5 0 0 0-1.6-1.5Zm0-14.3a1.5 1.5 0 1 0 1.6 1.5 1.5 1.5 0 0 0-1.6-1.5Zm0-28.6a1.5 1.5 0 1 0 1.6 1.6A1.5 1.5 0 0 0 243 57Zm101 88.8a1.5 1.5 0 1 0-1.5-1.5 1.5 1.5 0 0 0 1.6 1.5Zm14.5 14.3a1.6 1.6 0 1 0-1.5-1.5 1.5 1.5 0 0 0 1.5 1.5ZM329.7 42.8a1.5 1.5 0 1 0 1.6 1.6s0-.1 0-.2L330 43a1.1 1.1 0 0 0-.4 0ZM358.6 146a1.5 1.5 0 1 0-1.5-1.5 1.5 1.5 0 0 0 1.5 1.5Zm0 28.6a1.5 1.5 0 1 0-1.5-1.5 1.5 1.5 0 0 0 1.5 1.5Zm0-74.5a1.5 1.5 0 1 0 1.5 1.5 1.5 1.5 0 0 0-1.5-1.5Zm0 17.3a1.5 1.5 0 1 0-1.5-1.5 1.5 1.5 0 0 0 1.5 1.5Zm0 14.3a1.5 1.5 0 1 0-1.5-1.5 1.5 1.5 0 0 0 1.5 1.5Zm-14.4 57.2a1.6 1.6 0 1 0-1.6-1.6 1.5 1.5 0 0 0 1.6 1.6Zm-29-74.6a1.5 1.5 0 1 0 1.6 1.6 1.5 1.5 0 0 0-1.5-1.5Zm29 88.9a1.5 1.5 0 1 0-1.6-1.6 1.5 1.5 0 0 0 1.6 1.6Zm0-42.9a1.5 1.5 0 1 0-1.6-1.5 1.5 1.5 0 0 0 1.6 1.5Zm-29-17.4a1.5 1.5 0 1 0 1.6 1.6 1.5 1.5 0 0 0-1.5-1.6Zm0 14.3a1.5 1.5 0 1 0 1.6 1.6 1.5 1.5 0 0 0-1.5-1.6Zm0-28.6a1.5 1.5 0 1 0 1.6 1.6 1.5 1.5 0 0 0-1.5-1.6Zm0 42.9a1.5 1.5 0 1 0 1.6 1.5 1.5 1.5 0 0 0-1.5-1.5Zm0 42.9a1.5 1.5 0 1 0 1.6 1.5 1.5 1.5 0 0 0-1.5-1.5Zm0 14.2a1.5 1.5 0 1 0 1.6 1.6 1.5 1.5 0 0 0-1.5-1.5Zm0-200a1.5 1.5 0 1 0 1.6 1.6 1.7 1.7 0 0 0-.2-.8l-.7-.6a1.6 1.6 0 0 0-.6-.2Zm0 157.2a1.5 1.5 0 1 0 1.6 1.6 1.5 1.5 0 0 0-1.5-1.6Zm0 14.3a1.5 1.5 0 1 0 1.6 1.5 1.5 1.5 0 0 0-1.5-1.5Zm29-25.5a1.5 1.5 0 1 0-1.6-1.5 1.5 1.5 0 0 0 1.6 1.5Zm-14.5-17.4a1.5 1.5 0 1 0 1.6 1.6 1.5 1.5 0 0 0-1.6-1.6Zm0-14.3a1.6 1.6 0 1 0 1.6 1.6 1.5 1.5 0 0 0-1.6-1.6Zm0 28.6a1.5 1.5 0 1 0 1.6 1.6 1.5 1.5 0 0 0-1.6-1.6Zm0-42.8a1.5 1.5 0 1 0 1.6 1.5 1.5 1.5 0 0 0-1.6-1.6Zm0 71.4a1.5 1.5 0 1 0 1.6 1.5 1.5 1.5 0 0 0-1.6-1.5Zm0-85.7a1.5 1.5 0 1 0 1.6 1.5 1.5 1.5 0 0 0-1.6-1.5Zm0 114.3a1.5 1.5 0 1 0 0 3 1.5 1.5 0 0 0 .4 0l1.2-1.3v-.1a1.6 1.6 0 0 0-1.6-1.6Zm0-14.3a1.5 1.5 0 1 0 1.6 1.5 1.5 1.5 0 0 0-1.6-1.5Zm0-28.6a1.6 1.6 0 1 0 1.6 1.6 1.5 1.5 0 0 0-1.6-1.6Zm0-100a1.5 1.5 0 1 0 1.6 1.6 1.5 1.5 0 0 0-1.6-1.6Zm14.5 31.7a1.5 1.5 0 1 0-1.6-1.6 1.5 1.5 0 0 0 1.6 1.5Zm0-42.9a1.5 1.5 0 1 0-1.6-1.5 1.5 1.5 0 0 0 1.6 1.5Zm0 28.6a1.6 1.6 0 1 0-1.6-1.6 1.5 1.5 0 0 0 1.6 1.5Zm-14.5-3.1a1.6 1.6 0 1 0 1.6 1.5 1.5 1.5 0 0 0-1.6-1.5Zm14.5 31.7a1.5 1.5 0 1 0-1.6-1.6 1.5 1.5 0 0 0 1.6 1.5Zm-14.5-60.3a1.5 1.5 0 1 0 1.6 1.5 1.5 1.5 0 0 0-1.6-1.5Zm-14.4 171.4a1.5 1.5 0 1 0 0 3.1 1.6 1.6 0 0 0 .6 0l.7-.7a1.7 1.7 0 0 0 .2-.8 1.6 1.6 0 0 0-1.5-1.6Zm14.4-185.7a1.5 1.5 0 1 0 1.6 1.5 1.5 1.5 0 0 0-1.6-1.5Zm14.5 31.7a1.5 1.5 0 1 0-1.6-1.6 1.5 1.5 0 0 0 1.6 1.6Zm-29-31.7a1.5 1.5 0 1 0 1.6 1.5 1.5 1.5 0 0 0-1.5-1.5Zm-28.8 157.2a1.5 1.5 0 1 0 1.6 1.5 1.5 1.5 0 0 0-1.6-1.5Zm0-28.6a1.6 1.6 0 1 0 1.6 1.5 1.5 1.5 0 0 0-1.6-1.5Zm0 14.3a1.5 1.5 0 1 0 1.6 1.5 1.5 1.5 0 0 0-1.6-1.5Zm0-28.6a1.5 1.5 0 1 0 1.6 1.5 1.5 1.5 0 0 0-1.6-1.5Zm0 85.7a1.6 1.6 0 1 0 1.6 1.6 1.5 1.5 0 0 0-1.6-1.6Zm0-28.6a1.5 1.5 0 1 0 1.6 1.6 1.5 1.5 0 0 0-1.6-1.5ZM301 17.4h.1l-1.6-1a1.6 1.6 0 0 0 1.5 1Zm-14.5 225.5a1.5 1.5 0 1 0 1.6 1.6 1.5 1.5 0 0 0-1.6-1.6Zm0-85.7a1.5 1.5 0 1 0 1.6 1.6 1.5 1.5 0 0 0-1.6-1.6Zm0-42.9a1.5 1.5 0 1 0 1.6 1.6 1.5 1.5 0 0 0-1.6-1.6Zm0-71.4a1.5 1.5 0 1 0 1.6 1.5 1.5 1.5 0 0 0-1.6-1.5Zm0 28.6a1.5 1.5 0 1 0 1.6 1.5 1.5 1.5 0 0 0-1.6-1.5Zm0 71.4a1.6 1.6 0 1 0 1.6 1.6 1.5 1.5 0 0 0-1.6-1.6Zm0-114.3a1.5 1.5 0 1 0 1.6 1.6 1.5 1.5 0 0 0-1.6-1.6Zm0 28.6a1.6 1.6 0 1 0 1.6 1.5 1.5 1.5 0 0 0-1.6-1.5ZM301 28.5a1.5 1.5 0 1 0 1.5 1.6 1.5 1.5 0 0 0-1.5-1.6Zm-14.5 100a1.5 1.5 0 1 0 1.6 1.6 1.5 1.5 0 0 0-1.6-1.6Zm28.9-28.5a1.5 1.5 0 1 0 1.5 1.5 1.5 1.5 0 0 0-1.5-1.5Zm-28.9-14.3a1.5 1.5 0 1 0 1.6 1.5 1.5 1.5 0 0 0-1.6-1.5Zm0 14.3a1.5 1.5 0 1 0 1.6 1.5 1.5 1.5 0 0 0-1.6-1.5ZM301 242.8a1.5 1.5 0 1 0 1.5 1.6 1.5 1.5 0 0 0-1.5-1.6Zm0-28.5a1.5 1.5 0 1 0 1.5 1.5 1.5 1.5 0 0 0-1.5-1.5Zm0 14.2a1.5 1.5 0 1 0 1.5 1.6 1.5 1.5 0 0 0-1.5-1.5Zm0-28.5a1.5 1.5 0 1 0 1.5 1.5 1.5 1.5 0 0 0-1.5-1.5Zm14.4-157.2a1.5 1.5 0 1 0 1.6 1.5 1.5 1.5 0 0 0-1.6-1.5Zm0 42.9a1.5 1.5 0 1 0 1.6 1.5 1.5 1.5 0 0 0-1.6-1.5Zm0-14.3a1.5 1.5 0 1 0 1.6 1.5 1.5 1.5 0 0 0-1.6-1.5Zm-28.9-57.1a1.5 1.5 0 1 0 1.6 1.5 1.5 1.5 0 0 0-1.6-1.5ZM301 185.7a1.5 1.5 0 1 0 1.5 1.6 1.5 1.5 0 0 0-1.5-1.6Zm0-71.4a1.6 1.6 0 1 0 1.5 1.5 1.5 1.5 0 0 0-1.5-1.5Zm0 57.1a1.5 1.5 0 1 0 1.5 1.6 1.5 1.5 0 0 0-1.5-1.6Zm0-85.7a1.5 1.5 0 1 0 1.5 1.5 1.5 1.5 0 0 0-1.5-1.5Zm0-14.3a1.5 1.5 0 1 0 1.5 1.6 1.5 1.5 0 0 0-1.5-1.6Zm0-14.3a1.5 1.5 0 1 0 1.5 1.6 1.5 1.5 0 0 0-1.5-1.6Zm0 42.9a1.5 1.5 0 1 0 1.5 1.5 1.5 1.5 0 0 0-1.5-1.5Zm0 42.9a1.5 1.5 0 1 0 1.5 1.5 1.5 1.5 0 0 0-1.5-1.5Zm0-100a1.5 1.5 0 1 0 1.5 1.5 1.5 1.5 0 0 0-1.5-1.6Zm0 114.3a1.5 1.5 0 1 0 1.5 1.5 1.5 1.5 0 0 0-1.5-1.6Zm0-28.6a1.5 1.5 0 1 0 1.5 1.5 1.5 1.5 0 0 0-1.5-1.5ZM111.6 44.4a1.6 1.6 0 1 0 1.6-1.6 1.2 1.2 0 0 0-.4 0l-1.2 1.4v.2Zm17.6 200a1.6 1.6 0 0 0-3.1 0 1.6 1.6 0 0 0 .2.7l.7.7a1.8 1.8 0 0 0 .6.1 1.5 1.5 0 0 0 1.6-1.5Zm70.6-12.8a1.5 1.5 0 1 0-1.6-1.5 1.5 1.5 0 0 0 1.6 1.6Zm0 28.6a1.5 1.5 0 1 0-1.6-1.5 1.5 1.5 0 0 0 1.6 1.5Zm0 14.3a1.5 1.5 0 1 0-1.6-1.6 1.5 1.5 0 0 0 1.6 1.6Zm0-57.2a1.5 1.5 0 1 0-1.6-1.5 1.5 1.5 0 0 0 1.6 1.6Zm0-42.8a1.5 1.5 0 1 0-1.6-1.6 1.5 1.5 0 0 0 1.6 1.6Zm14.4-142.9a1.5 1.5 0 1 0-1.5-1.5 1.5 1.5 0 0 0 1.5 1.5Zm-14.4 128.6a1.6 1.6 0 1 0-1.6-1.5 1.5 1.5 0 0 0 1.6 1.5Zm0 42.9a1.5 1.5 0 1 0-1.6-1.6 1.5 1.5 0 0 0 1.6 1.6Zm0-14.3a1.5 1.5 0 1 0-1.6-1.6 1.5 1.5 0 0 0 1.6 1.6Zm14.4-85.7a1.5 1.5 0 1 0-1.5-1.6 1.5 1.5 0 0 0 1.5 1.6Zm0 28.5a1.5 1.5 0 1 0-1.5-1.5 1.5 1.5 0 0 0 1.5 1.5ZM185.4 146a1.5 1.5 0 1 0-1.6-1.5 1.5 1.5 0 0 0 1.6 1.5Zm28.8-28.6a1.6 1.6 0 1 0-1.5-1.5 1.5 1.5 0 0 0 1.5 1.5Zm0 28.6a1.5 1.5 0 1 0-1.5-1.5 1.5 1.5 0 0 0 1.5 1.5Zm0-57.1a1.5 1.5 0 1 0-1.5-1.6 1.5 1.5 0 0 0 1.5 1.6Zm0-71.5a1.5 1.5 0 1 0-1.5-1.5 1.5 1.5 0 0 0 1.5 1.5Zm0 42.9a1.5 1.5 0 1 0-1.5-1.5 1.5 1.5 0 0 0 1.5 1.5Zm0-14.3a1.5 1.5 0 1 0-1.5-1.5 1.5 1.5 0 0 0 1.5 1.5Zm0 28.6a1.5 1.5 0 1 0-1.5-1.5 1.5 1.5 0 0 0 1.5 1.5Zm-14.4-14.3a1.5 1.5 0 1 0-1.6-1.5 1.5 1.5 0 0 0 1.6 1.5Zm-14.4 214.3a1.5 1.5 0 1 0-1.6-1.5 1.5 1.5 0 0 0 1.6 1.5Zm0-42.8a1.5 1.5 0 1 0-1.6-1.6 1.5 1.5 0 0 0 1.6 1.6Zm0 14.3a1.6 1.6 0 1 0-1.6-1.6 1.5 1.5 0 0 0 1.6 1.6Zm0 14.2a1.5 1.5 0 1 0-1.6-1.5 1.5 1.5 0 0 0 1.6 1.5Zm0-42.8a1.5 1.5 0 1 0-1.6-1.6 1.5 1.5 0 0 0 1.6 1.6Zm14.4-85.8a1.5 1.5 0 1 0-1.6-1.5 1.5 1.5 0 0 0 1.6 1.6Zm-14.4 28.6a1.5 1.5 0 1 0-1.6-1.5 1.5 1.5 0 0 0 1.6 1.5Zm0 42.9a1.5 1.5 0 1 0-1.6-1.6 1.5 1.5 0 0 0 1.6 1.6Zm0-14.3a1.5 1.5 0 1 0-1.6-1.5 1.5 1.5 0 0 0 1.6 1.5Zm0-14.3a1.6 1.6 0 1 0-1.6-1.5 1.5 1.5 0 0 0 1.6 1.5Zm14.4-85.7a1.6 1.6 0 1 0-1.6-1.6 1.5 1.5 0 0 0 1.6 1.6Zm0-71.4a1.5 1.5 0 1 0-1.6-1.6 1.5 1.5 0 0 0 1.6 1.6Zm0 57.1a1.5 1.5 0 1 0-1.6-1.5 1.5 1.5 0 0 0 1.6 1.5Zm0 42.9a1.5 1.5 0 1 0-1.6-1.6 1.5 1.5 0 0 0 1.6 1.6Zm0-14.3a1.5 1.5 0 1 0-1.6-1.6 1.5 1.5 0 0 0 1.6 1.6Zm0-100a1.5 1.5 0 1 0-1.6-1.6 1.5 1.5 0 0 0 1.6 1.6Zm14.4 157.2a1.5 1.5 0 1 0-1.5-1.6 1.5 1.5 0 0 0 1.5 1.5ZM199.8 31.6a1.5 1.5 0 1 0-1.6-1.5 1.5 1.5 0 0 0 1.6 1.5Zm0 14.3a1.5 1.5 0 1 0-1.6-1.5 1.5 1.5 0 0 0 1.6 1.5Zm0 100a1.5 1.5 0 1 0-1.6-1.5 1.5 1.5 0 0 0 1.6 1.6Zm-101-17.3a1.5 1.5 0 1 0 1.5 1.5 1.5 1.5 0 0 0-1.5-1.5Zm0 14.3a1.5 1.5 0 1 0 1.5 1.5 1.5 1.5 0 0 0-1.5-1.5Zm0-28.6a1.5 1.5 0 1 0 1.5 1.5 1.5 1.5 0 0 0-1.5-1.5Zm0 42.9a1.5 1.5 0 1 0 1.5 1.5 1.5 1.5 0 0 0-1.5-1.5Zm0 42.8a1.5 1.5 0 1 0 1.5 1.6 1.5 1.5 0 0 0-1.5-1.6Zm0-14.3a1.5 1.5 0 1 0 1.5 1.6 1.5 1.5 0 0 0-1.5-1.6Zm14.4-128.6a1.5 1.5 0 1 0 1.5 1.6 1.5 1.5 0 0 0-1.5-1.6ZM98.7 171.4a1.5 1.5 0 1 0 1.6 1.6 1.5 1.5 0 0 0-1.5-1.6Zm0-71.4a1.5 1.5 0 1 0 1.6 1.5 1.5 1.5 0 0 0-1.5-1.5Zm-14.4 0a1.5 1.5 0 1 0 1.6 1.5 1.5 1.5 0 0 0-1.6-1.5Zm0 14.3a1.6 1.6 0 1 0 1.6 1.5 1.5 1.5 0 0 0-1.6-1.5Zm0 60.2a1.5 1.5 0 1 0-1.5-1.5 1.5 1.5 0 0 0 1.5 1.5Zm28.9-103a1.5 1.5 0 1 0 1.5 1.5 1.5 1.5 0 0 0-1.5-1.6Zm1.5 158.6a1.6 1.6 0 0 0-3 0s0 .1 0 .2l1.1 1.3a1.1 1.1 0 0 0 .4 0 1.5 1.5 0 0 0 1.5-1.5Zm99.5-55.6a1.5 1.5 0 1 0-1.5-1.5 1.5 1.5 0 0 0 1.5 1.5ZM98.8 85.7a1.5 1.5 0 1 0 1.5 1.5 1.5 1.5 0 0 0-1.5-1.5Zm-14.5 42.9A1.5 1.5 0 1 0 86 130a1.5 1.5 0 0 0-1.6-1.5Zm14.5-57.2a1.5 1.5 0 1 0 1.5 1.6 1.5 1.5 0 0 0-1.5-1.6Zm-14.5 85.7a1.5 1.5 0 1 0 1.6 1.6 1.5 1.5 0 0 0-1.6-1.6Zm0-14.2a1.5 1.5 0 1 0 1.6 1.5 1.5 1.5 0 0 0-1.6-1.5Zm130 103.1a1.6 1.6 0 1 0-1.6-1.6 1.5 1.5 0 0 0 1.5 1.6Zm0 14.3a1.5 1.5 0 1 0-1.6-1.6 1.5 1.5 0 0 0 1.5 1.5ZM113.1 85.7a1.5 1.5 0 1 0 1.5 1.5 1.5 1.5 0 0 0-1.5-1.5ZM214.2 0a1.6 1.6 0 1 0 1.6 1.6 1.5 1.5 0 0 0-1.6-1.6Zm0 231.7a1.5 1.5 0 1 0-1.5-1.5 1.5 1.5 0 0 0 1.5 1.5ZM171 3a1.5 1.5 0 0 0 1.5-1.2l-2.3.9a1.6 1.6 0 0 0 .8.3Zm43.3 185.7a1.5 1.5 0 1 0-1.5-1.5 1.5 1.5 0 0 0 1.5 1.5Zm0 14.3a1.6 1.6 0 1 0-1.5-1.6 1.5 1.5 0 0 0 1.5 1.6Zm0 14.3a1.5 1.5 0 1 0-1.5-1.6 1.5 1.5 0 0 0 1.5 1.6Zm0 57.1a1.5 1.5 0 1 0-1.5-1.5 1.5 1.5 0 0 0 1.5 1.5Zm-101-160.2a1.6 1.6 0 1 0 1.5 1.5 1.5 1.5 0 0 0-1.5-1.5Zm0 14.3a1.5 1.5 0 1 0 1.5 1.5 1.5 1.5 0 0 0-1.5-1.5Zm0-28.6a1.5 1.5 0 1 0 1.5 1.5 1.5 1.5 0 0 0-1.5-1.5Zm0 100a1.6 1.6 0 1 0 1.5 1.5 1.5 1.5 0 0 0-1.5-1.5Zm0-57.2a1.5 1.5 0 1 0 1.5 1.6 1.5 1.5 0 0 0-1.5-1.6Zm0 71.5a1.5 1.5 0 1 0 1.5 1.5 1.5 1.5 0 0 0-1.5-1.5Zm0-28.6a1.5 1.5 0 1 0 1.5 1.5 1.5 1.5 0 0 0-1.5-1.5Zm0-14.3a1.5 1.5 0 1 0 1.5 1.5 1.5 1.5 0 0 0-1.5-1.5Zm0-14.3a1.5 1.5 0 1 0 1.5 1.6 1.5 1.5 0 0 0-1.5-1.6Zm86.6 88.9a1.5 1.5 0 1 0-1.6-1.5 1.5 1.5 0 0 0 1.6 1.5Zm-43.3-103.1a1.5 1.5 0 1 0 1.6 1.5 1.5 1.5 0 0 0-1.6-1.6Zm0 14.3a1.6 1.6 0 1 0 1.6 1.5 1.5 1.5 0 0 0-1.6-1.6Zm0 14.3a1.5 1.5 0 1 0 1.6 1.5 1.5 1.5 0 0 0-1.6-1.6Zm0-57.2a1.6 1.6 0 1 0 1.6 1.6 1.5 1.5 0 0 0-1.6-1.6Zm0 14.3a1.5 1.5 0 1 0 1.6 1.5 1.5 1.5 0 0 0-1.6-1.5Zm0 71.5a1.5 1.5 0 1 0 1.6 1.5 1.5 1.5 0 0 0-1.6-1.6Zm0 28.5a1.5 1.5 0 1 0 1.6 1.6 1.5 1.5 0 0 0-1.6-1.6ZM142.1 200a1.5 1.5 0 1 0 1.5 1.5 1.5 1.5 0 0 0-1.5-1.5Zm14.4 57.1a1.5 1.5 0 1 0 1.6 1.6 1.5 1.5 0 0 0-1.6-1.6Zm0-157.1a1.5 1.5 0 1 0 1.6 1.5 1.5 1.5 0 0 0-1.6-1.5Zm0 85.7a1.5 1.5 0 1 0 1.6 1.5 1.5 1.5 0 0 0-1.6-1.5ZM142.1 243a1.5 1.5 0 1 0 1.5 1.5 1.5 1.5 0 0 0-1.5-1.5Zm14.4-157.2a1.5 1.5 0 1 0 1.6 1.5 1.5 1.5 0 0 0-1.6-1.5Zm-14.4 142.9a1.5 1.5 0 1 0 1.5 1.5 1.5 1.5 0 0 0-1.5-1.5Zm0-14.3a1.5 1.5 0 1 0 1.5 1.5 1.5 1.5 0 0 0-1.5-1.5Zm14.4-200a1.5 1.5 0 1 0 1.6 1.5 1.5 1.5 0 0 0-1.6-1.5Zm0 42.9a1.5 1.5 0 1 0 1.6 1.5 1.5 1.5 0 0 0-1.6-1.6Zm0-28.6a1.5 1.5 0 1 0 1.6 1.5 1.5 1.5 0 0 0-1.6-1.6Zm0 42.8a1.6 1.6 0 1 0 1.6 1.6 1.5 1.5 0 0 0-1.6-1.6Zm0-28.5a1.5 1.5 0 1 0 1.6 1.5 1.5 1.5 0 0 0-1.6-1.6Zm0 171.4a1.5 1.5 0 1 0 1.6 1.6 1.5 1.5 0 0 0-1.6-1.6Zm14.4-42.8a1.5 1.5 0 1 0 1.6 1.5 1.5 1.5 0 0 0-1.6-1.6Zm0 14.3a1.5 1.5 0 1 0 1.6 1.5 1.5 1.5 0 0 0-1.6-1.6Zm0-28.6a1.6 1.6 0 1 0 1.6 1.5 1.5 1.5 0 0 0-1.6-1.6Zm0 42.8a1.5 1.5 0 1 0 1.6 1.6 1.5 1.5 0 0 0-1.6-1.6Zm0 14.3a1.5 1.5 0 1 0 1.6 1.6 1.5 1.5 0 0 0-1.6-1.6Zm0 42.9a1.5 1.5 0 1 0 1.6 1.5 1.5 1.5 0 0 0-1.6-1.6Zm0-14.3a1.5 1.5 0 1 0 1.6 1.5 1.5 1.5 0 0 0-1.6-1.5Zm0-100a1.5 1.5 0 1 0 1.6 1.5 1.5 1.5 0 0 0-1.6-1.6Zm0 85.7a1.6 1.6 0 1 0 1.6 1.6 1.5 1.5 0 0 0-1.6-1.6Zm0-171.4a1.5 1.5 0 1 0 1.6 1.5 1.5 1.5 0 0 0-1.6-1.6Zm0-14.3a1.5 1.5 0 1 0 1.6 1.5 1.5 1.5 0 0 0-1.6-1.6Zm0 85.7a1.5 1.5 0 1 0 1.6 1.5 1.5 1.5 0 0 0-1.6-1.6Zm-14.4 114.3a1.5 1.5 0 1 0 1.6 1.5 1.5 1.5 0 0 0-1.6-1.6Zm14.4-228.6a1.5 1.5 0 1 0 1.6 1.5 1.5 1.5 0 0 0-1.6-1.5Zm0 14.2a1.5 1.5 0 1 0 1.6 1.6 1.5 1.5 0 0 0-1.6-1.6Zm0 85.8a1.6 1.6 0 1 0 1.6 1.5 1.5 1.5 0 0 0-1.6-1.5Zm0-14.3a1.5 1.5 0 1 0 1.6 1.5 1.5 1.5 0 0 0-1.6-1.5Zm0-28.6a1.6 1.6 0 1 0 1.6 1.5 1.5 1.5 0 0 0-1.6-1.5Zm0 14.3a1.5 1.5 0 1 0 1.6 1.5 1.5 1.5 0 0 0-1.6-1.5Zm-43.3 128.6a1.5 1.5 0 1 0 1.6 1.5 1.5 1.5 0 0 0-1.6-1.5Zm0-157.2a1.5 1.5 0 1 0 1.6 1.6 1.5 1.5 0 0 0-1.6-1.6Zm0-14.3a1.6 1.6 0 1 0 1.6 1.6 1.5 1.5 0 0 0-1.6-1.6Zm0 28.6a1.5 1.5 0 1 0 1.6 1.6 1.5 1.5 0 0 0-1.6-1.6Zm14.5 185.8h-.2l1.6 1a1.6 1.6 0 0 0-1.4-1Zm-14.5-143a1.5 1.5 0 1 0 1.6 1.6 1.5 1.5 0 0 0-1.6-1.5Zm0 14.4a1.5 1.5 0 1 0 1.6 1.5 1.5 1.5 0 0 0-1.6-1.5ZM171 271.4a1.5 1.5 0 0 0-.8.3l2.3.9a1.6 1.6 0 0 0-1.5-1.2ZM127.6 100a1.5 1.5 0 1 0 1.6 1.5 1.5 1.5 0 0 0-1.6-1.5Zm0-14.3a1.5 1.5 0 1 0 1.6 1.6 1.5 1.5 0 0 0-1.6-1.6Zm57.8-25.5a1.5 1.5 0 1 0-1.6-1.5 1.5 1.5 0 0 0 1.6 1.5Zm0 14.3a1.5 1.5 0 1 0-1.6-1.5 1.5 1.5 0 0 0 1.6 1.5ZM142 185.7a1.5 1.5 0 1 0 1.5 1.6 1.5 1.5 0 0 0-1.5-1.6Zm43.3-82.6a1.5 1.5 0 1 0-1.6-1.6 1.5 1.5 0 0 0 1.6 1.6Zm0 14.3a1.6 1.6 0 1 0-1.6-1.6 1.5 1.5 0 0 0 1.6 1.6Zm0-85.8a1.5 1.5 0 1 0-1.6-1.5 1.5 1.5 0 0 0 1.6 1.5Zm0-14.2a1.5 1.5 0 1 0-1.6-1.6 1.5 1.5 0 0 0 1.6 1.6Zm-57.8 125.5a1.5 1.5 0 1 0 1.6 1.5 1.5 1.5 0 0 0-1.6-1.5ZM185.4 3a1.6 1.6 0 1 0-1.6-1.6 1.5 1.5 0 0 0 1.6 1.6Zm0 42.8a1.5 1.5 0 1 0-1.6-1.5 1.5 1.5 0 0 0 1.6 1.5Zm0 42.9a1.5 1.5 0 1 0-1.6-1.6 1.5 1.5 0 0 0 1.6 1.6ZM142 114.3a1.6 1.6 0 1 0 1.5 1.5 1.5 1.5 0 0 0-1.5-1.5Zm0-14.3a1.5 1.5 0 1 0 1.5 1.5 1.5 1.5 0 0 0-1.5-1.5Zm0-14.3a1.5 1.5 0 1 0 1.5 1.5 1.5 1.5 0 0 0-1.5-1.5Zm0-14.3a1.5 1.5 0 1 0 1.5 1.6 1.5 1.5 0 0 0-1.5-1.6Zm0 71.5a1.5 1.5 0 1 0 1.5 1.5 1.5 1.5 0 0 0-1.5-1.5Zm0 14.2a1.5 1.5 0 1 0 1.5 1.6 1.5 1.5 0 0 0-1.5-1.5Zm0 14.3a1.5 1.5 0 1 0 1.5 1.6 1.5 1.5 0 0 0-1.5-1.6Zm0-114.3a1.5 1.5 0 1 0 1.5 1.6 1.5 1.5 0 0 0-1.5-1.6Zm0 71.5a1.5 1.5 0 1 0 1.5 1.5 1.5 1.5 0 0 0-1.5-1.5Zm-14.5-97a1.5 1.5 0 1 0 0-3 1.5 1.5 0 0 0-.6 0l-.7.7a1.6 1.6 0 0 0-.2.8 1.6 1.6 0 0 0 1.5 1.5Zm0 168.4a1.5 1.5 0 1 0 1.6 1.5 1.5 1.5 0 0 0-1.6-1.5Zm0-14.3a1.5 1.5 0 1 0 1.6 1.6 1.5 1.5 0 0 0-1.6-1.6Zm0-14.3a1.6 1.6 0 1 0 1.6 1.6 1.5 1.5 0 0 0-1.6-1.6Zm0 57.2a1.5 1.5 0 1 0 1.6 1.5 1.5 1.5 0 0 0-1.6-1.5Zm16-212.3-1.7 1h.2a1.6 1.6 0 0 0 1.4-1ZM142 42.8a1.5 1.5 0 1 0 1.5 1.6 1.5 1.5 0 0 0-1.5-1.6Zm0-14.2a1.5 1.5 0 1 0 1.5 1.5 1.5 1.5 0 0 0-1.5-1.6ZM127.6 157a1.5 1.5 0 1 0 1.6 1.6 1.5 1.5 0 0 0-1.6-1.6Zm57.8-25.5a1.5 1.5 0 1 0-1.6-1.5 1.5 1.5 0 0 0 1.6 1.5Z" transform="translate(-40.2)" fill="url(#prefix__linear-gradient-13)"/><path d="M101 108.2h-.8l.2 21.3h.6v-21.3Zm-5.3.2H94.8l2.1 21.2h.6l-1.8-21.2Zm-5.4.7-.8.2 4 20.9.6-.2-3.7-21Zm-5.3 1.2-.3.1-.5.1 5.9 20.5.5-.1Zm-5 1.7-.5.1a1.7 1.7 0 0 0-.3.2L87 132l.5-.2-7.4-20Zm-5 2-.6.3h-.2l9.4 19.2a4.6 4.6 0 0 1 .5-.3L75 114Zm-4.8 2.5-.7.5 11 18.2.5-.3-10.8-18.3Zm-4.5 3-.2.1-.5.4 12.6 17.1.5-.3-12.4-17.3Zm-4.2 3.3-.7.5 14.1 16 .4-.3Zm-4 3.7-.2.2-.3.3 15.3 14.8.4-.4-15.2-14.9Zm-3.6 4-.4.5L70 144.4l.3-.4L54 130.5Zm-3.2 4.3-.5.7L68 147.3l.3-.5-17.6-12Zm-2.9 4.6-.1.3-.2.4 18.7 10 .3-.4-18.7-10.2Zm-2.4 4.8v.2l-.3.6 19.6 8.4.2-.5-19.4-8.7Zm-2 5v.2l-.1.5 20.1 6.8.2-.5-20.2-7Zm-1.5 5.3a.8.8 0 0 1 0 .1l-.2.7 20.8 4.7.1-.5Zm-1 5.2-.1.9 21 2.9.1-.6Zm-.6 5.4v.8l21.2 1.1v-.6Zm21.2 4.9-21.3.5v.9l21.3-.8v-.6Zm.2 3.5-21.1 2.4V176.7l21.2-2.7-.1-.5Zm.5 3.4-20.8 4.3.2.8 20.8-4.5-.1-.6Zm1 3.5-20.5 6v.2l.2.5v.1l20.3-6.4-.2-.5Zm1 3.2-19.7 7.9V191.8l.2.3v.1l19.6-8.1Zm1.5 3.2-19 9.6.2.5 18.8-9.9-.2-.5Zm1.7 3-18 11.3.4.8 18-11.6-.4-.4Zm2 3-17 12.8.5.6 16.9-13-.4-.5Zm2.2 2.7-15.8 14.2.1.1.1.1v.1L72 196l-.4-.4Zm2.5 2.5-14.5 15.6.3.2.3.3 14.3-15.8-.4-.3Zm2.7 2.3-13 16.8.3.3.2.1 12.8-17-.4-.3Zm2.8 2L68.1 220l.7.5 11.3-18Zm3 1.7L72.7 223l.3.1.4.1 9.6-19-.5-.2Zm3.2 1.5-8.2 19.7h.2l.6.3 7.9-19.8-.5-.2Zm3.2 1.2L82.7 227l.4.1h.2l6.2-20.3-.5-.2Zm3.4 1L88 228.3h.2l.6.1 4.3-20.8Zm3.5.5-2.7 21.1h.2l.6.1 2.4-21.1Zm3.5.3-.9 21.3H99.4l.5-21.3h-.5Zm4 0h-.5l1 21.2h.8l-1.3-21.2Zm3.6-.4h-.6l2.9 21.1h.8Zm3.4-.7-.6.1 4.8 20.8.8-.2Zm3.4-1-.6.2 6.6 20.2H120.1l.4-.2-6.9-20.1Zm3.2-1.3-.5.3 8.4 19.6.8-.3-8.7-19.5Zm3.1-1.5-.5.3 10 18.7c.3 0 .4-.2.6-.3h.2L120 203.5Zm3-1.9-.4.3 11.7 17.8.7-.5-12-17.6Zm2.8-2-.4.3 13.2 16.7.2-.2.2-.2h.1L126 199.6Zm2.6-2.4-.4.4 14.7 15.5v-.1l.5-.5-14.8-15.2Zm2.5-2.6-.4.5 16 14 .5-.6Zm2.1-2.7-.3.4 17.2 12.7.5-.7-17.3-12.4Zm2-3-.3.5 18.2 11.2.2-.4.2-.3-18.3-10.9Zm1.6-3-.2.4 19 9.5.1-.2.3-.5-19.2-9.2Zm1.3-3.3c0 .2 0 .4-.2.6l20 7.7.2-.8-20-7.4Zm1.1-3.3-.1.6 20.4 5.9.3-.8-20.6-5.6Zm.8-3.4-.1.5 20.9 4 .1-.7L140 176Zm.4-3.5v.6l21.2 2.2v-.6a1 1 0 0 0 0-.3Zm.2-3.5v.6l21.3.3v-.8h-21.3Zm21-5.4-21.2 1.9v.5l21.2-1.5v-.6a1.1 1.1 0 0 1 0-.3Zm-.7-5.3-21 3.7v.6l21-3.4v-.8Zm-1.2-5.2-20.5 5.5.1.6 20.8-5.3a1.2 1.2 0 0 0 0-.2v-.2a.9.9 0 0 1-.3-.4Zm-1.6-5.2-20 7.4.2.5 20-7.1v-.1l-.1-.7Zm-2-4.9-19.2 9.1.2.5 19.4-8.8Zm-2.5-4.7L135.2 149l.2.5L154 139l-.2-.4Zm-3-4.6L133.2 146l.3.5 17.5-12.2-.2-.3Zm-3.3-4.2L131 143.3l.4.4 16.3-13.6-.4-.5Zm-3.7-4-14.9 15.3.4.4 15.1-15v-.1l-.4-.4Zm-4-3.6L126 138.4l.4.3 13.7-16.3Zm-4.3-3.2-12 17.6.4.3 12.2-17.4v-.1l-.5-.3Zm-4.6-2.8-10.4 18.6.5.2 10.7-18.4-.7-.4Zm-4.9-2.5-8.6 19.5.5.2 8.9-19.3-.4-.2a2.3 2.3 0 0 0-.3-.1Zm-5-2-6.9 20.2.5.2 7.2-20h-.1l-.6-.2Zm-5.1-1.5-5.1 20.7.5.1 5.4-20.6h-.2l-.5-.2Zm-5.4-1-3.2 21h.6l3.5-21h-.6Zm-5.3-.6-1.3 21.2h.5l1.7-21.2h-.9Z" transform="translate(-40.2)" fill="url(#prefix__linear-gradient-14)"/><path class="prefix__cls-11" d="M243.5 123a7.2 7.2 0 1 0-7.3-7.2 7.2 7.2 0 0 0 7.3 7.3Z" transform="translate(-40.2)"/><path class="prefix__cls-12" d="M229 108.8a7.2 7.2 0 1 0-7.2-7.2 7.2 7.2 0 0 0 7.2 7.2ZM315.6 166a7.2 7.2 0 1 0-7.2-7.3 7.2 7.2 0 0 0 7.2 7.2Z" transform="translate(-40.2)"/><path d="M272.3 194.5a7.2 7.2 0 1 0-7.2-7.2 7.2 7.2 0 0 0 7.2 7.2Z" transform="translate(-40.2)" fill="#4f97b8"/><path class="prefix__cls-11" d="M272.3 251.7a7.2 7.2 0 1 0-7.2-7.3 7.2 7.2 0 0 0 7.2 7.3Z" transform="translate(-40.2)"/></svg>