<svg width="472" height="444" viewBox="0 0 472 444" fill="none" xmlns="http://www.w3.org/2000/svg">
<g clip-path="url(#clip0_1365_39646)">
<path d="M163.62 271.22C168.25 271.22 172.02 274.99 172.02 279.62C172.02 284.25 168.25 288.02 163.62 288.02C158.99 288.02 155.22 284.25 155.22 279.62C155.22 274.99 158.99 271.22 163.62 271.22ZM163.62 268.43C157.44 268.43 152.43 273.44 152.43 279.62C152.43 285.8 157.44 290.81 163.62 290.81C169.8 290.81 174.81 285.8 174.81 279.62C174.81 273.44 169.8 268.43 163.62 268.43Z" fill="url(#paint0_linear_1365_39646)"/>
<path d="M163.62 257.8C175.66 257.8 185.45 267.59 185.45 279.63C185.45 291.67 175.66 301.46 163.62 301.46C151.58 301.46 141.79 291.67 141.79 279.63C141.79 267.59 151.58 257.8 163.62 257.8ZM163.62 255.01C150.02 255.01 139 266.03 139 279.63C139 293.23 150.02 304.25 163.62 304.25C177.22 304.25 188.24 293.23 188.24 279.63C188.24 266.03 177.22 255.01 163.62 255.01Z" fill="url(#paint1_linear_1365_39646)"/>
<path d="M163.62 244.25C183.12 244.25 198.99 260.12 198.99 279.62C198.99 299.12 183.12 314.99 163.62 314.99C144.12 314.99 128.25 299.12 128.25 279.62C128.25 260.12 144.12 244.25 163.62 244.25ZM163.62 241.46C142.54 241.46 125.46 258.55 125.46 279.62C125.46 300.69 142.55 317.78 163.62 317.78C184.69 317.78 201.78 300.69 201.78 279.62C201.78 258.55 184.69 241.46 163.62 241.46V241.46Z" fill="url(#paint2_linear_1365_39646)"/>
<path d="M163.62 229.37C191.33 229.37 213.87 251.91 213.87 279.62C213.87 307.33 191.33 329.87 163.62 329.87C135.91 329.87 113.37 307.33 113.37 279.62C113.37 251.91 135.91 229.37 163.62 229.37ZM163.62 226.58C134.32 226.58 110.58 250.33 110.58 279.62C110.58 308.91 134.33 332.66 163.62 332.66C192.91 332.66 216.66 308.91 216.66 279.62C216.66 250.33 192.91 226.58 163.62 226.58V226.58Z" fill="url(#paint3_linear_1365_39646)"/>
<path d="M163.62 216.11C198.64 216.11 227.13 244.6 227.13 279.62C227.13 314.64 198.64 343.13 163.62 343.13C128.6 343.13 100.11 314.64 100.11 279.62C100.11 244.6 128.6 216.11 163.62 216.11V216.11ZM163.62 213.32C127 213.32 97.3096 243.01 97.3096 279.63C97.3096 316.25 127 345.94 163.62 345.94C200.24 345.94 229.93 316.25 229.93 279.63C229.93 243.01 200.24 213.32 163.62 213.32V213.32Z" fill="url(#paint4_linear_1365_39646)"/>
<path d="M163.62 201.52C206.68 201.52 241.72 236.56 241.72 279.62C241.72 322.68 206.68 357.72 163.62 357.72C120.56 357.72 85.5205 322.68 85.5205 279.62C85.5205 236.56 120.56 201.52 163.62 201.52V201.52ZM163.62 198.73C118.94 198.73 82.7305 234.95 82.7305 279.62C82.7305 324.29 118.95 360.51 163.62 360.51C208.29 360.51 244.51 324.29 244.51 279.62C244.51 234.95 208.29 198.73 163.62 198.73Z" fill="url(#paint5_linear_1365_39646)"/>
<path d="M163.62 186.96C214.71 186.96 256.28 228.53 256.28 279.62C256.28 330.71 214.71 372.28 163.62 372.28C112.53 372.28 70.9599 330.71 70.9599 279.62C70.9599 228.53 112.53 186.96 163.62 186.96V186.96ZM163.62 184.17C110.9 184.17 68.1699 226.91 68.1699 279.62C68.1699 332.33 110.91 375.07 163.62 375.07C216.33 375.07 259.07 332.33 259.07 279.62C259.07 226.91 216.33 184.17 163.62 184.17V184.17Z" fill="url(#paint6_linear_1365_39646)"/>
<path d="M163.62 173.6C222.08 173.6 269.64 221.16 269.64 279.62C269.64 338.08 222.08 385.64 163.62 385.64C105.16 385.64 57.5998 338.08 57.5998 279.62C57.5998 221.16 105.16 173.6 163.62 173.6ZM163.62 170.81C103.52 170.81 54.7998 219.53 54.7998 279.63C54.7998 339.73 103.52 388.45 163.62 388.45C223.72 388.45 272.44 339.73 272.44 279.63C272.44 219.53 223.72 170.81 163.62 170.81Z" fill="url(#paint7_linear_1365_39646)"/>
<path d="M163.62 159.45C195.72 159.45 225.9 171.95 248.59 194.65C271.29 217.35 283.79 247.52 283.79 279.62C283.79 311.72 271.29 341.9 248.59 364.59C225.89 387.29 195.72 399.79 163.62 399.79C131.52 399.79 101.34 387.29 78.6502 364.59C55.9502 341.89 43.4502 311.72 43.4502 279.62C43.4502 247.52 55.9502 217.34 78.6502 194.65C101.35 171.95 131.52 159.45 163.62 159.45V159.45ZM163.62 156.66C95.7101 156.66 40.6602 211.71 40.6602 279.62C40.6602 347.53 95.7101 402.58 163.62 402.58C231.53 402.58 286.58 347.53 286.58 279.62C286.58 211.71 231.53 156.66 163.62 156.66V156.66Z" fill="url(#paint8_linear_1365_39646)"/>
<path d="M163.62 145.93C199.33 145.93 232.91 159.84 258.16 185.09C283.41 210.34 297.32 243.92 297.32 279.63C297.32 315.34 283.41 348.92 258.16 374.17C232.91 399.42 199.33 413.33 163.62 413.33C127.91 413.33 94.3299 399.42 69.0799 374.17C43.8299 348.92 29.9199 315.34 29.9199 279.63C29.9199 243.92 43.8299 210.34 69.0799 185.09C94.3299 159.84 127.91 145.93 163.62 145.93V145.93ZM163.62 143.14C88.2399 143.13 27.1299 204.24 27.1299 279.62C27.1299 355 88.2399 416.11 163.62 416.11C239 416.11 300.11 355 300.11 279.62C300.11 204.24 239 143.13 163.62 143.13V143.14Z" fill="url(#paint9_linear_1365_39646)"/>
<path d="M163.62 130.91C203.34 130.91 240.69 146.38 268.77 174.47C296.86 202.56 312.33 239.9 312.33 279.62C312.33 319.34 296.86 356.69 268.77 384.77C240.68 412.86 203.34 428.33 163.62 428.33C123.9 428.33 86.5501 412.86 58.4701 384.77C30.3801 356.68 14.9101 319.34 14.9101 279.62C14.9101 239.9 30.3801 202.56 58.4701 174.47C86.5601 146.38 123.9 130.91 163.62 130.91ZM163.62 128.12C79.9501 128.12 12.1201 195.95 12.1201 279.62C12.1201 363.29 79.9501 431.12 163.62 431.12C247.29 431.12 315.12 363.29 315.12 279.62C315.12 195.95 247.3 128.12 163.62 128.12V128.12Z" fill="url(#paint10_linear_1365_39646)"/>
<path d="M163.62 118.79C206.58 118.79 246.97 135.52 277.34 165.9C307.72 196.28 324.45 236.66 324.45 279.62C324.45 322.58 307.72 362.97 277.34 393.34C246.96 423.72 206.58 440.45 163.62 440.45C120.66 440.45 80.27 423.72 49.9 393.34C19.52 362.97 2.79 322.58 2.79 279.62C2.79 236.66 19.52 196.28 49.9 165.9C80.28 135.52 120.66 118.79 163.62 118.79ZM163.62 116C73.26 116 0 189.26 0 279.62C0 369.98 73.26 443.24 163.62 443.24C253.98 443.24 327.24 369.98 327.24 279.62C327.24 189.26 253.99 116 163.62 116Z" fill="url(#paint11_linear_1365_39646)"/>
</g>
<path d="M352.439 164.311H377.379L364.959 128.271L352.439 164.311Z" fill="#EDEDED" fill-opacity="0.95"/>
<path d="M345.219 0.570312C275.199 0.570312 218.439 57.3303 218.439 127.35C218.439 197.37 275.199 254.13 345.219 254.13C415.239 254.13 472 197.37 472 127.35C472 57.3303 415.239 0.570312 345.219 0.570312V0.570312ZM271.909 179.49C275.489 184.46 280.579 186.92 287.179 186.92C290.699 186.92 293.689 186.15 296.199 184.64C298.709 183.07 300.729 181.03 302.269 178.46C303.839 175.86 304.899 173.04 305.469 170H320.169C319.729 173.73 318.749 177.31 317.299 180.74C315.879 184.17 313.899 187.25 311.289 189.94C308.689 192.6 305.43 194.73 301.5 196.3C297.62 197.84 292.949 198.58 287.539 198.58C279.939 198.58 273.429 196.83 267.979 193.37C262.569 189.85 258.389 184.91 255.469 178.49C252.569 172.04 251.12 164.41 251.12 155.56C251.12 146.71 252.569 139.23 255.469 132.96C258.369 126.69 262.509 121.92 267.929 118.61C273.369 115.27 279.909 113.58 287.549 113.58H287.579C293.649 113.58 299.029 114.82 303.699 117.31C308.399 119.77 312.159 123.08 315.029 127.25C317.929 131.45 319.649 136.13 320.179 141.27H305.479C304.919 138.22 303.849 135.5 302.279 133.1C300.739 130.7 298.729 128.78 296.209 127.39C293.699 125.97 290.679 125.26 287.189 125.26C282.809 125.26 279.049 126.3 275.979 128.4C272.929 130.47 270.599 133.73 268.939 138.25C267.339 142.75 266.539 148.58 266.539 155.76C266.539 166.62 268.339 174.55 271.919 179.49H271.909V179.49ZM388.149 197.42L380.779 176.65H349.209L341.669 197.42H327.679L357.409 114.7H372.439L402.109 197.42H388.149V197.42Z" fill="#EDEDED" fill-opacity="0.95"/>
<defs>
<linearGradient id="paint0_linear_1365_39646" x1="104.27" y1="438.95" x2="220.88" y2="125.91" gradientUnits="userSpaceOnUse">
<stop offset="0.22" stop-color="#FDB81D" stop-opacity="0.04"/>
<stop offset="1" stop-color="#FDB81D" stop-opacity="0.65"/>
</linearGradient>
<linearGradient id="paint1_linear_1365_39646" x1="101.17" y1="447.28" x2="217.78" y2="134.24" gradientUnits="userSpaceOnUse">
<stop offset="0.22" stop-color="#FDB81D" stop-opacity="0.04"/>
<stop offset="1" stop-color="#FDB81D" stop-opacity="0.65"/>
</linearGradient>
<linearGradient id="paint2_linear_1365_39646" x1="101.17" y1="447.28" x2="217.78" y2="134.24" gradientUnits="userSpaceOnUse">
<stop offset="0.22" stop-color="#FDB81D" stop-opacity="0.04"/>
<stop offset="1" stop-color="#FDB81D" stop-opacity="0.65"/>
</linearGradient>
<linearGradient id="paint3_linear_1365_39646" x1="101.17" y1="447.28" x2="217.78" y2="134.24" gradientUnits="userSpaceOnUse">
<stop offset="0.22" stop-color="#FDB81D" stop-opacity="0.04"/>
<stop offset="1" stop-color="#FDB81D" stop-opacity="0.65"/>
</linearGradient>
<linearGradient id="paint4_linear_1365_39646" x1="101.17" y1="447.28" x2="217.78" y2="134.24" gradientUnits="userSpaceOnUse">
<stop offset="0.22" stop-color="#FDB81D" stop-opacity="0.04"/>
<stop offset="1" stop-color="#FDB81D" stop-opacity="0.65"/>
</linearGradient>
<linearGradient id="paint5_linear_1365_39646" x1="101.17" y1="447.28" x2="217.78" y2="134.24" gradientUnits="userSpaceOnUse">
<stop offset="0.22" stop-color="#FDB81D" stop-opacity="0.04"/>
<stop offset="1" stop-color="#FDB81D" stop-opacity="0.65"/>
</linearGradient>
<linearGradient id="paint6_linear_1365_39646" x1="101.17" y1="447.28" x2="217.78" y2="134.24" gradientUnits="userSpaceOnUse">
<stop offset="0.22" stop-color="#FDB81D" stop-opacity="0.04"/>
<stop offset="1" stop-color="#FDB81D" stop-opacity="0.65"/>
</linearGradient>
<linearGradient id="paint7_linear_1365_39646" x1="101.17" y1="447.28" x2="217.78" y2="134.24" gradientUnits="userSpaceOnUse">
<stop offset="0.22" stop-color="#FDB81D" stop-opacity="0.04"/>
<stop offset="1" stop-color="#FDB81D" stop-opacity="0.65"/>
</linearGradient>
<linearGradient id="paint8_linear_1365_39646" x1="101.17" y1="447.28" x2="217.78" y2="134.24" gradientUnits="userSpaceOnUse">
<stop offset="0.22" stop-color="#FDB81D" stop-opacity="0.04"/>
<stop offset="1" stop-color="#FDB81D" stop-opacity="0.65"/>
</linearGradient>
<linearGradient id="paint9_linear_1365_39646" x1="101.17" y1="447.28" x2="217.78" y2="134.24" gradientUnits="userSpaceOnUse">
<stop offset="0.22" stop-color="#FDB81D" stop-opacity="0.04"/>
<stop offset="1" stop-color="#FDB81D" stop-opacity="0.65"/>
</linearGradient>
<linearGradient id="paint10_linear_1365_39646" x1="101.17" y1="447.28" x2="217.78" y2="134.24" gradientUnits="userSpaceOnUse">
<stop offset="0.22" stop-color="#FDB81D" stop-opacity="0.04"/>
<stop offset="1" stop-color="#FDB81D" stop-opacity="0.65"/>
</linearGradient>
<linearGradient id="paint11_linear_1365_39646" x1="101.17" y1="447.28" x2="217.78" y2="134.24" gradientUnits="userSpaceOnUse">
<stop offset="0.22" stop-color="#FDB81D" stop-opacity="0.04"/>
<stop offset="1" stop-color="#FDB81D" stop-opacity="0.65"/>
</linearGradient>
<clipPath id="clip0_1365_39646">
<rect width="327.25" height="327.25" fill="white" transform="translate(0 116)"/>
</clipPath>
</defs>
</svg>
