<svg width="376" height="323" viewBox="0 0 376 323" fill="none" xmlns="http://www.w3.org/2000/svg">
<g clip-path="url(#clip0_1365_39647)">
<path d="M274.09 287.14C274.09 288.14 273.27 288.95 272.27 288.95C271.27 288.95 270.45 288.14 270.45 287.14C270.45 286.14 271.27 285.33 272.27 285.33C273.27 285.33 274.09 286.14 274.09 287.14ZM255.31 167.84C254.3 167.84 253.49 168.65 253.49 169.65C253.49 170.65 254.31 171.46 255.31 171.46C256.31 171.46 257.13 170.65 257.13 169.65C257.13 168.65 256.31 167.84 255.31 167.84ZM255.31 285.33C254.3 285.33 253.49 286.14 253.49 287.14C253.49 288.14 254.31 288.95 255.31 288.95C256.31 288.95 257.13 288.14 257.13 287.14C257.13 286.14 256.31 285.33 255.31 285.33ZM255.31 134.27C254.3 134.27 253.49 135.08 253.49 136.08C253.49 137.08 254.31 137.89 255.31 137.89C256.31 137.89 257.13 137.08 257.13 136.08C257.13 135.08 256.31 134.27 255.31 134.27ZM255.31 251.77C254.3 251.77 253.49 252.58 253.49 253.58C253.49 254.58 254.31 255.39 255.31 255.39C256.31 255.39 257.13 254.58 257.13 253.58C257.13 252.58 256.31 251.77 255.31 251.77ZM255.31 268.55C254.3 268.55 253.49 269.36 253.49 270.36C253.49 271.36 254.31 272.17 255.31 272.17C256.31 272.17 257.13 271.36 257.13 270.36C257.13 269.36 256.31 268.55 255.31 268.55ZM255.31 234.98C254.3 234.98 253.49 235.79 253.49 236.79C253.49 237.79 254.31 238.6 255.31 238.6C256.31 238.6 257.13 237.79 257.13 236.79C257.13 235.79 256.31 234.98 255.31 234.98ZM255.31 218.2C254.3 218.2 253.49 219.01 253.49 220.01C253.49 221.01 254.31 221.82 255.31 221.82C256.31 221.82 257.13 221.01 257.13 220.01C257.13 219.01 256.31 218.2 255.31 218.2ZM255.31 201.42C254.3 201.42 253.49 202.23 253.49 203.23C253.49 204.23 254.31 205.04 255.31 205.04C256.31 205.04 257.13 204.23 257.13 203.23C257.13 202.23 256.31 201.42 255.31 201.42ZM255.31 151.06C254.3 151.06 253.49 151.87 253.49 152.87C253.49 153.87 254.31 154.68 255.31 154.68C256.31 154.68 257.13 153.87 257.13 152.87C257.13 151.87 256.31 151.06 255.31 151.06ZM255.31 16.79C254.3 16.79 253.49 17.6 253.49 18.6C253.49 19.6 254.31 20.41 255.31 20.41C256.31 20.41 257.13 19.6 257.13 18.6C257.13 17.6 256.31 16.79 255.31 16.79ZM255.31 33.57C254.3 33.57 253.49 34.38 253.49 35.38C253.49 36.38 254.31 37.19 255.31 37.19C256.31 37.19 257.13 36.38 257.13 35.38C257.13 34.38 256.31 33.57 255.31 33.57ZM255.31 0C254.3 0 253.49 0.81 253.49 1.81C253.49 2.81 254.31 3.62 255.31 3.62C256.31 3.62 257.13 2.81 257.13 1.81C257.13 0.81 256.31 0 255.31 0ZM238.35 302.12C237.34 302.12 236.53 302.93 236.53 303.93C236.53 304.93 237.35 305.74 238.35 305.74C239.35 305.74 240.17 304.93 240.17 303.93C240.17 302.93 239.35 302.12 238.35 302.12ZM255.31 67.14C254.3 67.14 253.49 67.95 253.49 68.95C253.49 69.95 254.31 70.76 255.31 70.76C256.31 70.76 257.13 69.95 257.13 68.95C257.13 67.95 256.31 67.14 255.31 67.14ZM255.31 83.92C254.3 83.92 253.49 84.73 253.49 85.73C253.49 86.73 254.31 87.54 255.31 87.54C256.31 87.54 257.13 86.73 257.13 85.73C257.13 84.73 256.31 83.92 255.31 83.92ZM255.31 50.35C254.3 50.35 253.49 51.16 253.49 52.16C253.49 53.16 254.31 53.97 255.31 53.97C256.31 53.97 257.13 53.16 257.13 52.16C257.13 51.16 256.31 50.35 255.31 50.35ZM255.31 100.7C254.3 100.7 253.49 101.51 253.49 102.51C253.49 103.51 254.31 104.32 255.31 104.32C256.31 104.32 257.13 103.51 257.13 102.51C257.13 101.51 256.31 100.7 255.31 100.7ZM255.31 117.48C254.3 117.48 253.49 118.29 253.49 119.29C253.49 120.29 254.31 121.1 255.31 121.1C256.31 121.1 257.13 120.29 257.13 119.29C257.13 118.29 256.31 117.48 255.31 117.48ZM272.27 134.26C271.26 134.26 270.45 135.07 270.45 136.07C270.45 137.07 271.27 137.88 272.27 137.88C273.27 137.88 274.09 137.07 274.09 136.07C274.09 135.07 273.27 134.26 272.27 134.26ZM272.27 201.4C271.26 201.4 270.45 202.21 270.45 203.21C270.45 204.21 271.27 205.02 272.27 205.02C273.27 205.02 274.09 204.21 274.09 203.21C274.09 202.21 273.27 201.4 272.27 201.4ZM272.27 184.62C271.26 184.62 270.45 185.43 270.45 186.43C270.45 187.43 271.27 188.24 272.27 188.24C273.27 188.24 274.09 187.43 274.09 186.43C274.09 185.43 273.27 184.62 272.27 184.62ZM272.27 218.19C271.26 218.19 270.45 219 270.45 220C270.45 221 271.27 221.81 272.27 221.81C273.27 221.81 274.09 221 274.09 220C274.09 219 273.27 218.19 272.27 218.19ZM272.27 167.84C271.26 167.84 270.45 168.65 270.45 169.65C270.45 170.65 271.27 171.46 272.27 171.46C273.27 171.46 274.09 170.65 274.09 169.65C274.09 168.65 273.27 167.84 272.27 167.84ZM238.36 318.9C237.35 318.9 236.54 319.71 236.54 320.71C236.54 321.71 237.36 322.52 238.36 322.52C239.36 322.52 240.18 321.71 240.18 320.71C240.18 319.71 239.36 318.9 238.36 318.9ZM272.27 151.05C271.26 151.05 270.45 151.86 270.45 152.86C270.45 153.86 271.27 154.67 272.27 154.67C273.27 154.67 274.09 153.86 274.09 152.86C274.09 151.86 273.27 151.05 272.27 151.05ZM272.27 268.55C271.26 268.55 270.45 269.36 270.45 270.36C270.45 271.36 271.27 272.17 272.27 272.17C273.27 272.17 274.09 271.36 274.09 270.36C274.09 269.36 273.27 268.55 272.27 268.55ZM272.27 302.12C271.26 302.12 270.45 302.93 270.45 303.93C270.45 304.93 271.27 305.74 272.27 305.74C273.27 305.74 274.09 304.93 274.09 303.93C274.09 302.93 273.27 302.12 272.27 302.12ZM272.27 234.98C271.26 234.98 270.45 235.79 270.45 236.79C270.45 237.79 271.27 238.6 272.27 238.6C273.27 238.6 274.09 237.79 274.09 236.79C274.09 235.79 273.27 234.98 272.27 234.98ZM272.27 251.76C271.26 251.76 270.45 252.57 270.45 253.57C270.45 254.57 271.27 255.38 272.27 255.38C273.27 255.38 274.09 254.57 274.09 253.57C274.09 252.57 273.27 251.76 272.27 251.76ZM272.27 16.78C271.26 16.78 270.45 17.59 270.45 18.59C270.45 19.59 271.27 20.4 272.27 20.4C273.27 20.4 274.09 19.59 274.09 18.59C274.09 17.59 273.27 16.78 272.27 16.78ZM255.31 318.9C254.3 318.9 253.49 319.71 253.49 320.71C253.49 321.71 254.31 322.52 255.31 322.52C256.31 322.52 257.13 321.71 257.13 320.71C257.13 319.71 256.31 318.9 255.31 318.9ZM272.27 3.62C272.64 3.62 272.98 3.51 273.27 3.32C272.36 2.97 271.44 2.62 270.52 2.29C270.73 3.05 271.43 3.62 272.27 3.62ZM272.27 33.57C271.26 33.57 270.45 34.38 270.45 35.38C270.45 36.38 271.27 37.19 272.27 37.19C273.27 37.19 274.09 36.38 274.09 35.38C274.09 34.38 273.27 33.57 272.27 33.57ZM255.31 302.12C254.3 302.12 253.49 302.93 253.49 303.93C253.49 304.93 254.31 305.74 255.31 305.74C256.31 305.74 257.13 304.93 257.13 303.93C257.13 302.93 256.31 302.12 255.31 302.12ZM272.27 117.49C271.26 117.49 270.45 118.3 270.45 119.3C270.45 120.3 271.27 121.11 272.27 121.11C273.27 121.11 274.09 120.3 274.09 119.3C274.09 118.3 273.27 117.49 272.27 117.49ZM272.27 100.71C271.26 100.71 270.45 101.52 270.45 102.52C270.45 103.52 271.27 104.33 272.27 104.33C273.27 104.33 274.09 103.52 274.09 102.52C274.09 101.52 273.27 100.71 272.27 100.71ZM272.27 83.93C271.26 83.93 270.45 84.74 270.45 85.74C270.45 86.74 271.27 87.55 272.27 87.55C273.27 87.55 274.09 86.74 274.09 85.74C274.09 84.74 273.27 83.93 272.27 83.93ZM272.27 50.36C271.26 50.36 270.45 51.17 270.45 52.17C270.45 53.17 271.27 53.98 272.27 53.98C273.27 53.98 274.09 53.17 274.09 52.17C274.09 51.17 273.27 50.36 272.27 50.36ZM272.27 67.14C271.26 67.14 270.45 67.95 270.45 68.95C270.45 69.95 271.27 70.76 272.27 70.76C273.27 70.76 274.09 69.95 274.09 68.95C274.09 67.95 273.27 67.14 272.27 67.14ZM255.31 184.64C254.3 184.64 253.49 185.45 253.49 186.45C253.49 187.45 254.31 188.26 255.31 188.26C256.31 188.26 257.13 187.45 257.13 186.45C257.13 185.45 256.31 184.64 255.31 184.64ZM221.4 268.56C220.39 268.56 219.58 269.37 219.58 270.37C219.58 271.37 220.4 272.18 221.4 272.18C222.4 272.18 223.22 271.37 223.22 270.37C223.22 269.37 222.4 268.56 221.4 268.56ZM221.4 151.06C220.39 151.06 219.58 151.87 219.58 152.87C219.58 153.87 220.4 154.68 221.4 154.68C222.4 154.68 223.22 153.87 223.22 152.87C223.22 151.87 222.4 151.06 221.4 151.06ZM221.4 167.85C220.39 167.85 219.58 168.66 219.58 169.66C219.58 170.66 220.4 171.47 221.4 171.47C222.4 171.47 223.22 170.66 223.22 169.66C223.22 168.66 222.4 167.85 221.4 167.85ZM221.4 134.27C220.39 134.27 219.58 135.08 219.58 136.08C219.58 137.08 220.4 137.89 221.4 137.89C222.4 137.89 223.22 137.08 223.22 136.08C223.22 135.08 222.4 134.27 221.4 134.27ZM221.4 117.49C220.39 117.49 219.58 118.3 219.58 119.3C219.58 120.3 220.4 121.11 221.4 121.11C222.4 121.11 223.22 120.3 223.22 119.3C223.22 118.3 222.4 117.49 221.4 117.49ZM221.4 251.77C220.39 251.77 219.58 252.58 219.58 253.58C219.58 254.58 220.4 255.39 221.4 255.39C222.4 255.39 223.22 254.58 223.22 253.58C223.22 252.58 222.4 251.77 221.4 251.77ZM221.4 100.71C220.39 100.71 219.58 101.52 219.58 102.52C219.58 103.52 220.4 104.33 221.4 104.33C222.4 104.33 223.22 103.52 223.22 102.52C223.22 101.52 222.4 100.71 221.4 100.71ZM221.4 234.99C220.39 234.99 219.58 235.8 219.58 236.8C219.58 237.8 220.4 238.61 221.4 238.61C222.4 238.61 223.22 237.8 223.22 236.8C223.22 235.8 222.4 234.99 221.4 234.99ZM221.4 201.42C220.39 201.42 219.58 202.23 219.58 203.23C219.58 204.23 220.4 205.04 221.4 205.04C222.4 205.04 223.22 204.23 223.22 203.23C223.22 202.23 222.4 201.42 221.4 201.42ZM221.4 218.2C220.39 218.2 219.58 219.01 219.58 220.01C219.58 221.01 220.4 221.82 221.4 221.82C222.4 221.82 223.22 221.01 223.22 220.01C223.22 219.01 222.4 218.2 221.4 218.2ZM221.4 184.63C220.39 184.63 219.58 185.44 219.58 186.44C219.58 187.44 220.4 188.25 221.4 188.25C222.4 188.25 223.22 187.44 223.22 186.44C223.22 185.44 222.4 184.63 221.4 184.63ZM270.52 320.23C271.44 319.9 272.36 319.55 273.27 319.2C272.98 319.01 272.64 318.9 272.27 318.9C271.43 318.9 270.73 319.46 270.52 320.23ZM221.4 83.92C220.39 83.92 219.58 84.73 219.58 85.73C219.58 86.73 220.4 87.54 221.4 87.54C222.4 87.54 223.22 86.73 223.22 85.73C223.22 84.73 222.4 83.92 221.4 83.92ZM304.45 303.4C305.09 302.98 305.73 302.56 306.37 302.14C306.31 302.14 306.25 302.12 306.19 302.12C305.37 302.12 304.68 302.66 304.45 303.4ZM221.4 0C220.39 0 219.58 0.81 219.58 1.81C219.58 2.81 220.4 3.62 221.4 3.62C222.4 3.62 223.22 2.81 223.22 1.81C223.22 0.81 222.4 0 221.4 0ZM221.4 322.52C222.41 322.52 223.22 321.71 223.22 320.71C223.22 319.71 222.4 318.9 221.4 318.9C220.4 318.9 219.58 319.71 219.58 320.71C219.58 321.71 220.4 322.52 221.4 322.52ZM221.4 67.13C220.39 67.13 219.58 67.94 219.58 68.94C219.58 69.94 220.4 70.75 221.4 70.75C222.4 70.75 223.22 69.94 223.22 68.94C223.22 67.94 222.4 67.13 221.4 67.13ZM221.4 16.78C220.39 16.78 219.58 17.59 219.58 18.59C219.58 19.59 220.4 20.4 221.4 20.4C222.4 20.4 223.22 19.59 223.22 18.59C223.22 17.59 222.4 16.78 221.4 16.78ZM221.4 50.35C220.39 50.35 219.58 51.16 219.58 52.16C219.58 53.16 220.4 53.97 221.4 53.97C222.4 53.97 223.22 53.16 223.22 52.16C223.22 51.16 222.4 50.35 221.4 50.35ZM221.4 33.57C220.39 33.57 219.58 34.38 219.58 35.38C219.58 36.38 220.4 37.19 221.4 37.19C222.4 37.19 223.22 36.38 223.22 35.38C223.22 34.38 222.4 33.57 221.4 33.57ZM238.36 184.63C237.35 184.63 236.54 185.44 236.54 186.44C236.54 187.44 237.36 188.25 238.36 188.25C239.36 188.25 240.18 187.44 240.18 186.44C240.18 185.44 239.36 184.63 238.36 184.63ZM238.36 167.85C237.35 167.85 236.54 168.66 236.54 169.66C236.54 170.66 237.36 171.47 238.36 171.47C239.36 171.47 240.18 170.66 240.18 169.66C240.18 168.66 239.36 167.85 238.36 167.85ZM238.36 285.34C237.35 285.34 236.54 286.15 236.54 287.15C236.54 288.15 237.36 288.96 238.36 288.96C239.36 288.96 240.18 288.15 240.18 287.15C240.18 286.15 239.36 285.34 238.36 285.34ZM238.36 151.06C237.35 151.06 236.54 151.87 236.54 152.87C236.54 153.87 237.36 154.68 238.36 154.68C239.36 154.68 240.18 153.87 240.18 152.87C240.18 151.87 239.36 151.06 238.36 151.06ZM238.36 134.28C237.35 134.28 236.54 135.09 236.54 136.09C236.54 137.09 237.36 137.9 238.36 137.9C239.36 137.9 240.18 137.09 240.18 136.09C240.18 135.09 239.36 134.28 238.36 134.28ZM238.36 201.42C237.35 201.42 236.54 202.23 236.54 203.23C236.54 204.23 237.36 205.04 238.36 205.04C239.36 205.04 240.18 204.23 240.18 203.23C240.18 202.23 239.36 201.42 238.36 201.42ZM238.36 251.77C237.35 251.77 236.54 252.58 236.54 253.58C236.54 254.58 237.36 255.39 238.36 255.39C239.36 255.39 240.18 254.58 240.18 253.58C240.18 252.58 239.36 251.77 238.36 251.77ZM238.36 218.2C237.35 218.2 236.54 219.01 236.54 220.01C236.54 221.01 237.36 221.82 238.36 221.82C239.36 221.82 240.18 221.01 240.18 220.01C240.18 219.01 239.36 218.2 238.36 218.2ZM238.36 268.55C237.35 268.55 236.54 269.36 236.54 270.36C236.54 271.36 237.36 272.17 238.36 272.17C239.36 272.17 240.18 271.36 240.18 270.36C240.18 269.36 239.36 268.55 238.36 268.55ZM238.36 234.98C237.35 234.98 236.54 235.79 236.54 236.79C236.54 237.79 237.36 238.6 238.36 238.6C239.36 238.6 240.18 237.79 240.18 236.79C240.18 235.79 239.36 234.98 238.36 234.98ZM238.36 50.35C237.35 50.35 236.54 51.16 236.54 52.16C236.54 53.16 237.36 53.97 238.36 53.97C239.36 53.97 240.18 53.16 240.18 52.16C240.18 51.16 239.36 50.35 238.36 50.35ZM238.36 0C237.35 0 236.54 0.81 236.54 1.81C236.54 2.81 237.36 3.62 238.36 3.62C239.36 3.62 240.18 2.81 240.18 1.81C240.18 0.81 239.36 0 238.36 0ZM238.36 16.78C237.35 16.78 236.54 17.59 236.54 18.59C236.54 19.59 237.36 20.4 238.36 20.4C239.36 20.4 240.18 19.59 240.18 18.59C240.18 17.59 239.36 16.78 238.36 16.78ZM221.4 285.33C220.39 285.33 219.58 286.14 219.58 287.14C219.58 288.14 220.4 288.95 221.4 288.95C222.4 288.95 223.22 288.14 223.22 287.14C223.22 286.14 222.4 285.33 221.4 285.33ZM238.36 33.56C237.35 33.56 236.54 34.37 236.54 35.37C236.54 36.37 237.36 37.18 238.36 37.18C239.36 37.18 240.18 36.37 240.18 35.37C240.18 34.37 239.36 33.56 238.36 33.56ZM221.4 302.11C220.39 302.11 219.58 302.92 219.58 303.92C219.58 304.92 220.4 305.73 221.4 305.73C222.4 305.73 223.22 304.92 223.22 303.92C223.22 302.92 222.4 302.11 221.4 302.11ZM238.36 83.91C237.35 83.91 236.54 84.72 236.54 85.72C236.54 86.72 237.36 87.53 238.36 87.53C239.36 87.53 240.18 86.72 240.18 85.72C240.18 84.72 239.36 83.91 238.36 83.91ZM238.36 117.48C237.35 117.48 236.54 118.29 236.54 119.29C236.54 120.29 237.36 121.1 238.36 121.1C239.36 121.1 240.18 120.29 240.18 119.29C240.18 118.29 239.36 117.48 238.36 117.48ZM238.36 100.7C237.35 100.7 236.54 101.51 236.54 102.51C236.54 103.51 237.36 104.32 238.36 104.32C239.36 104.32 240.18 103.51 240.18 102.51C240.18 101.51 239.36 100.7 238.36 100.7ZM238.36 67.13C237.35 67.13 236.54 67.94 236.54 68.94C236.54 69.94 237.36 70.75 238.36 70.75C239.36 70.75 240.18 69.94 240.18 68.94C240.18 67.94 239.36 67.13 238.36 67.13ZM357.06 171.46C358.07 171.46 358.88 170.65 358.88 169.65C358.88 168.65 358.06 167.84 357.06 167.84C356.06 167.84 355.24 168.65 355.24 169.65C355.24 170.65 356.06 171.46 357.06 171.46ZM374.02 188.24C375.03 188.24 375.84 187.43 375.84 186.43C375.84 185.43 375.02 184.62 374.02 184.62C373.02 184.62 372.2 185.43 372.2 186.43C372.2 187.43 373.02 188.24 374.02 188.24ZM340.11 50.34C339.1 50.34 338.29 51.15 338.29 52.15C338.29 53.15 339.11 53.96 340.11 53.96C341.11 53.96 341.93 53.15 341.93 52.15C341.93 52.1 341.92 52.05 341.92 52C341.47 51.46 341.02 50.93 340.55 50.4C340.41 50.36 340.26 50.34 340.11 50.34ZM374.02 171.45C375.03 171.45 375.84 170.64 375.84 169.64C375.84 168.64 375.02 167.83 374.02 167.83C373.02 167.83 372.2 168.64 372.2 169.64C372.2 170.64 373.02 171.45 374.02 171.45ZM374.02 205.02C375.03 205.02 375.84 204.21 375.84 203.21C375.84 202.21 375.02 201.4 374.02 201.4C373.02 201.4 372.2 202.21 372.2 203.21C372.2 204.21 373.02 205.02 374.02 205.02ZM374.02 117.47C373.01 117.47 372.2 118.28 372.2 119.28C372.2 120.28 373.02 121.09 374.02 121.09C375.02 121.09 375.84 120.28 375.84 119.28C375.84 118.28 375.02 117.47 374.02 117.47ZM374.02 137.87C375.03 137.87 375.84 137.06 375.84 136.06C375.84 135.06 375.02 134.25 374.02 134.25C373.02 134.25 372.2 135.06 372.2 136.06C372.2 137.06 373.02 137.87 374.02 137.87ZM374.02 154.65C375.03 154.65 375.84 153.84 375.84 152.84C375.84 151.84 375.02 151.03 374.02 151.03C373.02 151.03 372.2 151.84 372.2 152.84C372.2 153.84 373.02 154.65 374.02 154.65ZM357.06 221.79C358.07 221.79 358.88 220.98 358.88 219.98C358.88 218.98 358.06 218.17 357.06 218.17C356.06 218.17 355.24 218.98 355.24 219.98C355.24 220.98 356.06 221.79 357.06 221.79ZM323.15 134.24C322.14 134.24 321.33 135.05 321.33 136.05C321.33 137.05 322.15 137.86 323.15 137.86C324.15 137.86 324.97 137.05 324.97 136.05C324.97 135.05 324.15 134.24 323.15 134.24ZM357.06 238.57C358.07 238.57 358.88 237.76 358.88 236.76C358.88 235.76 358.06 234.95 357.06 234.95C356.06 234.95 355.24 235.76 355.24 236.76C355.24 237.76 356.06 238.57 357.06 238.57ZM357.06 188.22C358.07 188.22 358.88 187.41 358.88 186.41C358.88 185.41 358.06 184.6 357.06 184.6C356.06 184.6 355.24 185.41 355.24 186.41C355.24 187.41 356.06 188.22 357.06 188.22ZM323.15 167.82C322.14 167.82 321.33 168.63 321.33 169.63C321.33 170.63 322.15 171.44 323.15 171.44C324.15 171.44 324.97 170.63 324.97 169.63C324.97 168.63 324.15 167.82 323.15 167.82ZM323.15 184.6C322.14 184.6 321.33 185.41 321.33 186.41C321.33 187.41 322.15 188.22 323.15 188.22C324.15 188.22 324.97 187.41 324.97 186.41C324.97 185.41 324.15 184.6 323.15 184.6ZM323.15 151.02C322.14 151.02 321.33 151.83 321.33 152.83C321.33 153.83 322.15 154.64 323.15 154.64C324.15 154.64 324.97 153.83 324.97 152.83C324.97 151.83 324.15 151.02 323.15 151.02ZM323.15 201.38C322.14 201.38 321.33 202.19 321.33 203.19C321.33 204.19 322.15 205 323.15 205C324.15 205 324.97 204.19 324.97 203.19C324.97 202.19 324.15 201.38 323.15 201.38ZM323.15 251.73C322.14 251.73 321.33 252.54 321.33 253.54C321.33 254.54 322.15 255.35 323.15 255.35C324.15 255.35 324.97 254.54 324.97 253.54C324.97 252.54 324.15 251.73 323.15 251.73ZM323.15 268.51C322.14 268.51 321.33 269.32 321.33 270.32C321.33 271.32 322.15 272.13 323.15 272.13C324.15 272.13 324.97 271.32 324.97 270.32C324.97 269.32 324.15 268.51 323.15 268.51ZM323.15 33.53C322.14 33.53 321.33 34.34 321.33 35.34C321.33 36.34 322.15 37.15 323.15 37.15C324.15 37.15 324.97 36.34 324.97 35.34C324.97 35.01 324.87 34.71 324.72 34.44C324.43 34.18 324.14 33.92 323.85 33.67C323.63 33.58 323.39 33.53 323.14 33.53H323.15ZM323.15 218.16C322.14 218.16 321.33 218.97 321.33 219.97C321.33 220.97 322.15 221.78 323.15 221.78C324.15 221.78 324.97 220.97 324.97 219.97C324.97 218.97 324.15 218.16 323.15 218.16ZM323.15 234.94C322.14 234.94 321.33 235.75 321.33 236.75C321.33 237.75 322.15 238.56 323.15 238.56C324.15 238.56 324.97 237.75 324.97 236.75C324.97 235.75 324.15 234.94 323.15 234.94ZM357.06 204.99C358.07 204.99 358.88 204.18 358.88 203.18C358.88 202.18 358.06 201.37 357.06 201.37C356.06 201.37 355.24 202.18 355.24 203.18C355.24 204.18 356.06 204.99 357.06 204.99ZM340.1 184.59C339.09 184.59 338.28 185.4 338.28 186.4C338.28 187.4 339.1 188.21 340.1 188.21C341.1 188.21 341.92 187.4 341.92 186.4C341.92 185.4 341.1 184.59 340.1 184.59ZM340.1 167.81C339.09 167.81 338.28 168.62 338.28 169.62C338.28 170.62 339.1 171.43 340.1 171.43C341.1 171.43 341.92 170.62 341.92 169.62C341.92 168.62 341.1 167.81 340.1 167.81ZM340.1 201.38C339.09 201.38 338.28 202.19 338.28 203.19C338.28 204.19 339.1 205 340.1 205C341.1 205 341.92 204.19 341.92 203.19C341.92 202.19 341.1 201.38 340.1 201.38ZM340.1 151.02C339.09 151.02 338.28 151.83 338.28 152.83C338.28 153.83 339.1 154.64 340.1 154.64C341.1 154.64 341.92 153.83 341.92 152.83C341.92 151.83 341.1 151.02 340.1 151.02ZM340.1 234.95C339.09 234.95 338.28 235.76 338.28 236.76C338.28 237.76 339.1 238.57 340.1 238.57C341.1 238.57 341.92 237.76 341.92 236.76C341.92 235.76 341.1 234.95 340.1 234.95ZM340.1 134.24C339.09 134.24 338.28 135.05 338.28 136.05C338.28 137.05 339.1 137.86 340.1 137.86C341.1 137.86 341.92 137.05 341.92 136.05C341.92 135.05 341.1 134.24 340.1 134.24ZM340.1 268.52C339.09 268.52 338.28 269.33 338.28 270.33C338.28 271.33 339.1 272.14 340.1 272.14C340.25 272.14 340.4 272.12 340.54 272.08C341 271.55 341.45 271.01 341.91 270.48C341.91 270.43 341.92 270.38 341.92 270.33C341.92 269.33 341.1 268.52 340.1 268.52ZM340.1 251.74C339.09 251.74 338.28 252.55 338.28 253.55C338.28 254.55 339.1 255.36 340.1 255.36C341.1 255.36 341.92 254.55 341.92 253.55C341.92 252.55 341.1 251.74 340.1 251.74ZM340.1 218.17C339.09 218.17 338.28 218.98 338.28 219.98C338.28 220.98 339.1 221.79 340.1 221.79C341.1 221.79 341.92 220.98 341.92 219.98C341.92 218.98 341.1 218.17 340.1 218.17ZM340.1 100.67C339.09 100.67 338.28 101.48 338.28 102.48C338.28 103.48 339.1 104.29 340.1 104.29C341.1 104.29 341.92 103.48 341.92 102.48C341.92 101.48 341.1 100.67 340.1 100.67ZM357.06 137.86C358.07 137.86 358.88 137.05 358.88 136.05C358.88 135.05 358.06 134.24 357.06 134.24C356.06 134.24 355.24 135.05 355.24 136.05C355.24 137.05 356.06 137.86 357.06 137.86ZM357.06 87.51C358.07 87.51 358.88 86.7 358.88 85.7C358.88 84.7 358.06 83.89 357.06 83.89C356.06 83.89 355.24 84.7 355.24 85.7C355.24 86.7 356.06 87.51 357.06 87.51ZM357.06 121.08C358.07 121.08 358.88 120.27 358.88 119.27C358.88 118.27 358.06 117.46 357.06 117.46C356.06 117.46 355.24 118.27 355.24 119.27C355.24 120.27 356.06 121.08 357.06 121.08ZM340.1 117.46C339.09 117.46 338.28 118.27 338.28 119.27C338.28 120.27 339.1 121.08 340.1 121.08C341.1 121.08 341.92 120.27 341.92 119.27C341.92 118.27 341.1 117.46 340.1 117.46ZM357.06 154.65C358.07 154.65 358.88 153.84 358.88 152.84C358.88 151.84 358.06 151.03 357.06 151.03C356.06 151.03 355.24 151.84 355.24 152.84C355.24 153.84 356.06 154.65 357.06 154.65ZM340.1 83.89C339.09 83.89 338.28 84.7 338.28 85.7C338.28 86.7 339.1 87.51 340.1 87.51C341.1 87.51 341.92 86.7 341.92 85.7C341.92 84.7 341.1 83.89 340.1 83.89ZM323.14 285.31C322.13 285.31 321.32 286.12 321.32 287.12C321.32 288.12 322.14 288.93 323.14 288.93C323.39 288.93 323.63 288.88 323.85 288.79C324.14 288.54 324.43 288.28 324.72 288.02C324.87 287.75 324.97 287.45 324.97 287.12C324.97 286.12 324.15 285.31 323.15 285.31H323.14ZM340.1 67.11C339.09 67.11 338.28 67.92 338.28 68.92C338.28 69.92 339.1 70.73 340.1 70.73C341.1 70.73 341.92 69.92 341.92 68.92C341.92 67.92 341.1 67.11 340.1 67.11ZM357.06 104.3C358.07 104.3 358.88 103.49 358.88 102.49C358.88 101.49 358.06 100.68 357.06 100.68C356.06 100.68 355.24 101.49 355.24 102.49C355.24 103.49 356.06 104.3 357.06 104.3ZM323.15 67.11C322.14 67.11 321.33 67.92 321.33 68.92C321.33 69.92 322.15 70.73 323.15 70.73C324.15 70.73 324.97 69.92 324.97 68.92C324.97 67.92 324.15 67.11 323.15 67.11ZM289.24 251.74C288.23 251.74 287.42 252.55 287.42 253.55C287.42 254.55 288.24 255.36 289.24 255.36C290.24 255.36 291.06 254.55 291.06 253.55C291.06 252.55 290.24 251.74 289.24 251.74ZM289.24 218.17C288.23 218.17 287.42 218.98 287.42 219.98C287.42 220.98 288.24 221.79 289.24 221.79C290.24 221.79 291.06 220.98 291.06 219.98C291.06 218.98 290.24 218.17 289.24 218.17ZM289.24 234.95C288.23 234.95 287.42 235.76 287.42 236.76C287.42 237.76 288.24 238.57 289.24 238.57C290.24 238.57 291.06 237.76 291.06 236.76C291.06 235.76 290.24 234.95 289.24 234.95ZM289.24 201.38C288.23 201.38 287.42 202.19 287.42 203.19C287.42 204.19 288.24 205 289.24 205C290.24 205 291.06 204.19 291.06 203.19C291.06 202.19 290.24 201.38 289.24 201.38ZM289.24 302.08C288.23 302.08 287.42 302.89 287.42 303.89C287.42 304.89 288.24 305.7 289.24 305.7C290.24 305.7 291.06 304.89 291.06 303.89C291.06 302.89 290.24 302.08 289.24 302.08ZM289.24 268.51C288.23 268.51 287.42 269.32 287.42 270.32C287.42 271.32 288.24 272.13 289.24 272.13C290.24 272.13 291.06 271.32 291.06 270.32C291.06 269.32 290.24 268.51 289.24 268.51ZM306.2 20.36C306.26 20.36 306.32 20.35 306.38 20.34C305.74 19.92 305.11 19.49 304.46 19.08C304.69 19.82 305.38 20.36 306.2 20.36ZM289.24 285.29C288.23 285.29 287.42 286.1 287.42 287.1C287.42 288.1 288.24 288.91 289.24 288.91C290.24 288.91 291.06 288.1 291.06 287.1C291.06 286.1 290.24 285.29 289.24 285.29ZM289.24 184.59C288.23 184.59 287.42 185.4 287.42 186.4C287.42 187.4 288.24 188.21 289.24 188.21C290.24 188.21 291.06 187.4 291.06 186.4C291.06 185.4 290.24 184.59 289.24 184.59ZM289.24 134.23C288.23 134.23 287.42 135.04 287.42 136.04C287.42 137.04 288.24 137.85 289.24 137.85C290.24 137.85 291.06 137.04 291.06 136.04C291.06 135.04 290.24 134.23 289.24 134.23ZM289.24 50.31C288.23 50.31 287.42 51.12 287.42 52.12C287.42 53.12 288.24 53.93 289.24 53.93C290.24 53.93 291.06 53.12 291.06 52.12C291.06 51.12 290.24 50.31 289.24 50.31ZM289.24 83.88C288.23 83.88 287.42 84.69 287.42 85.69C287.42 86.69 288.24 87.5 289.24 87.5C290.24 87.5 291.06 86.69 291.06 85.69C291.06 84.69 290.24 83.88 289.24 83.88ZM289.24 167.81C288.23 167.81 287.42 168.62 287.42 169.62C287.42 170.62 288.24 171.43 289.24 171.43C290.24 171.43 291.06 170.62 291.06 169.62C291.06 168.62 290.24 167.81 289.24 167.81ZM289.24 33.53C288.23 33.53 287.42 34.34 287.42 35.34C287.42 36.34 288.24 37.15 289.24 37.15C290.24 37.15 291.06 36.34 291.06 35.34C291.06 34.34 290.24 33.53 289.24 33.53ZM289.24 67.1C288.23 67.1 287.42 67.91 287.42 68.91C287.42 69.91 288.24 70.72 289.24 70.72C290.24 70.72 291.06 69.91 291.06 68.91C291.06 67.91 290.24 67.1 289.24 67.1ZM306.2 33.53C305.19 33.53 304.38 34.34 304.38 35.34C304.38 36.34 305.2 37.15 306.2 37.15C307.2 37.15 308.02 36.34 308.02 35.34C308.02 34.34 307.2 33.53 306.2 33.53ZM289.24 151.02C288.23 151.02 287.42 151.83 287.42 152.83C287.42 153.83 288.24 154.64 289.24 154.64C290.24 154.64 291.06 153.83 291.06 152.83C291.06 151.83 290.24 151.02 289.24 151.02ZM323.15 117.45C322.14 117.45 321.33 118.26 321.33 119.26C321.33 120.26 322.15 121.07 323.15 121.07C324.15 121.07 324.97 120.26 324.97 119.26C324.97 118.26 324.15 117.45 323.15 117.45ZM289.24 100.67C288.23 100.67 287.42 101.48 287.42 102.48C287.42 103.48 288.24 104.29 289.24 104.29C290.24 104.29 291.06 103.48 291.06 102.48C291.06 101.48 290.24 100.67 289.24 100.67ZM289.24 117.45C288.23 117.45 287.42 118.26 287.42 119.26C287.42 120.26 288.24 121.07 289.24 121.07C290.24 121.07 291.06 120.26 291.06 119.26C291.06 118.26 290.24 117.45 289.24 117.45ZM306.2 285.3C305.19 285.3 304.38 286.11 304.38 287.11C304.38 288.11 305.2 288.92 306.2 288.92C307.2 288.92 308.02 288.11 308.02 287.11C308.02 286.11 307.2 285.3 306.2 285.3ZM306.2 251.73C305.19 251.73 304.38 252.54 304.38 253.54C304.38 254.54 305.2 255.35 306.2 255.35C307.2 255.35 308.02 254.54 308.02 253.54C308.02 252.54 307.2 251.73 306.2 251.73ZM306.2 268.51C305.19 268.51 304.38 269.32 304.38 270.32C304.38 271.32 305.2 272.13 306.2 272.13C307.2 272.13 308.02 271.32 308.02 270.32C308.02 269.32 307.2 268.51 306.2 268.51ZM306.2 234.94C305.19 234.94 304.38 235.75 304.38 236.75C304.38 237.75 305.2 238.56 306.2 238.56C307.2 238.56 308.02 237.75 308.02 236.75C308.02 235.75 307.2 234.94 306.2 234.94ZM323.16 50.31C322.15 50.31 321.34 51.12 321.34 52.12C321.34 53.12 322.16 53.93 323.16 53.93C324.16 53.93 324.98 53.12 324.98 52.12C324.98 51.12 324.16 50.31 323.16 50.31ZM323.16 100.66C322.15 100.66 321.34 101.47 321.34 102.47C321.34 103.47 322.16 104.28 323.16 104.28C324.16 104.28 324.98 103.47 324.98 102.47C324.98 101.47 324.16 100.66 323.16 100.66ZM323.16 83.88C322.15 83.88 321.34 84.69 321.34 85.69C321.34 86.69 322.16 87.5 323.16 87.5C324.16 87.5 324.98 86.69 324.98 85.69C324.98 84.69 324.16 83.88 323.16 83.88ZM289.23 16.78C288.22 16.78 287.41 17.59 287.41 18.59C287.41 19.59 288.23 20.4 289.23 20.4C290.23 20.4 291.05 19.59 291.05 18.59C291.05 17.59 290.23 16.78 289.23 16.78ZM306.19 218.2C305.18 218.2 304.37 219.01 304.37 220.01C304.37 221.01 305.19 221.82 306.19 221.82C307.19 221.82 308.01 221.01 308.01 220.01C308.01 219.01 307.19 218.2 306.19 218.2ZM306.19 134.27C305.18 134.27 304.37 135.08 304.37 136.08C304.37 137.08 305.19 137.89 306.19 137.89C307.19 137.89 308.01 137.08 308.01 136.08C308.01 135.08 307.19 134.27 306.19 134.27ZM306.19 201.41C305.18 201.41 304.37 202.22 304.37 203.22C304.37 204.22 305.19 205.03 306.19 205.03C307.19 205.03 308.01 204.22 308.01 203.22C308.01 202.22 307.19 201.41 306.19 201.41ZM306.19 100.7C305.18 100.7 304.37 101.51 304.37 102.51C304.37 103.51 305.19 104.32 306.19 104.32C307.19 104.32 308.01 103.51 308.01 102.51C308.01 101.51 307.19 100.7 306.19 100.7ZM306.19 83.92C305.18 83.92 304.37 84.73 304.37 85.73C304.37 86.73 305.19 87.54 306.19 87.54C307.19 87.54 308.01 86.73 308.01 85.73C308.01 84.73 307.19 83.92 306.19 83.92ZM306.19 67.14C305.18 67.14 304.37 67.95 304.37 68.95C304.37 69.95 305.19 70.76 306.19 70.76C307.19 70.76 308.01 69.95 308.01 68.95C308.01 67.95 307.19 67.14 306.19 67.14ZM306.19 117.49C305.18 117.49 304.37 118.3 304.37 119.3C304.37 120.3 305.19 121.11 306.19 121.11C307.19 121.11 308.01 120.3 308.01 119.3C308.01 118.3 307.19 117.49 306.19 117.49ZM306.19 167.85C305.18 167.85 304.37 168.66 304.37 169.66C304.37 170.66 305.19 171.47 306.19 171.47C307.19 171.47 308.01 170.66 308.01 169.66C308.01 168.66 307.19 167.85 306.19 167.85ZM306.19 50.35C305.18 50.35 304.37 51.16 304.37 52.16C304.37 53.16 305.19 53.97 306.19 53.97C307.19 53.97 308.01 53.16 308.01 52.16C308.01 51.16 307.19 50.35 306.19 50.35ZM306.19 184.63C305.18 184.63 304.37 185.44 304.37 186.44C304.37 187.44 305.19 188.25 306.19 188.25C307.19 188.25 308.01 187.44 308.01 186.44C308.01 185.44 307.19 184.63 306.19 184.63ZM306.19 151.05C305.18 151.05 304.37 151.86 304.37 152.86C304.37 153.86 305.19 154.67 306.19 154.67C307.19 154.67 308.01 153.86 308.01 152.86C308.01 151.86 307.19 151.05 306.19 151.05ZM83.91 52.16C83.91 53.16 84.73 53.97 85.73 53.97C86.73 53.97 87.55 53.16 87.55 52.16C87.55 51.16 86.73 50.35 85.73 50.35C85.58 50.35 85.43 50.37 85.29 50.41C84.83 50.94 84.38 51.48 83.92 52.01C83.92 52.06 83.91 52.11 83.91 52.16V52.16ZM104.52 287.14C104.52 286.14 103.7 285.33 102.7 285.33C101.7 285.33 100.88 286.14 100.88 287.14C100.88 287.47 100.98 287.77 101.13 288.04C101.42 288.3 101.71 288.56 102 288.81C102.22 288.9 102.46 288.95 102.71 288.95C103.72 288.95 104.53 288.14 104.53 287.14H104.52ZM187.48 272.17C188.49 272.17 189.3 271.36 189.3 270.36C189.3 269.36 188.48 268.55 187.48 268.55C186.48 268.55 185.66 269.36 185.66 270.36C185.66 271.36 186.48 272.17 187.48 272.17ZM187.48 305.74C188.49 305.74 189.3 304.93 189.3 303.93C189.3 302.93 188.48 302.12 187.48 302.12C186.48 302.12 185.66 302.93 185.66 303.93C185.66 304.93 186.48 305.74 187.48 305.74ZM187.48 322.52C188.49 322.52 189.3 321.71 189.3 320.71C189.3 319.71 188.48 318.9 187.48 318.9C186.48 318.9 185.66 319.71 185.66 320.71C185.66 321.71 186.48 322.52 187.48 322.52ZM187.48 255.38C188.49 255.38 189.3 254.57 189.3 253.57C189.3 252.57 188.48 251.76 187.48 251.76C186.48 251.76 185.66 252.57 185.66 253.57C185.66 254.57 186.48 255.38 187.48 255.38ZM187.48 205.03C188.49 205.03 189.3 204.22 189.3 203.22C189.3 202.22 188.48 201.41 187.48 201.41C186.48 201.41 185.66 202.22 185.66 203.22C185.66 204.22 186.48 205.03 187.48 205.03ZM204.44 37.18C205.45 37.18 206.26 36.37 206.26 35.37C206.26 34.37 205.44 33.56 204.44 33.56C203.44 33.56 202.62 34.37 202.62 35.37C202.62 36.37 203.44 37.18 204.44 37.18ZM187.48 188.24C188.49 188.24 189.3 187.43 189.3 186.43C189.3 185.43 188.48 184.62 187.48 184.62C186.48 184.62 185.66 185.43 185.66 186.43C185.66 187.43 186.48 188.24 187.48 188.24ZM187.48 238.59C188.49 238.59 189.3 237.78 189.3 236.78C189.3 235.78 188.48 234.97 187.48 234.97C186.48 234.97 185.66 235.78 185.66 236.78C185.66 237.78 186.48 238.59 187.48 238.59ZM187.48 221.81C188.49 221.81 189.3 221 189.3 220C189.3 219 188.48 218.19 187.48 218.19C186.48 218.19 185.66 219 185.66 220C185.66 221 186.48 221.81 187.48 221.81ZM204.44 121.1C205.45 121.1 206.26 120.29 206.26 119.29C206.26 118.29 205.44 117.48 204.44 117.48C203.44 117.48 202.62 118.29 202.62 119.29C202.62 120.29 203.44 121.1 204.44 121.1ZM204.44 154.67C205.45 154.67 206.26 153.86 206.26 152.86C206.26 151.86 205.44 151.05 204.44 151.05C203.44 151.05 202.62 151.86 202.62 152.86C202.62 153.86 203.44 154.67 204.44 154.67ZM170.53 171.46C171.54 171.46 172.35 170.65 172.35 169.65C172.35 168.65 171.53 167.84 170.53 167.84C169.53 167.84 168.71 168.65 168.71 169.65C168.71 170.65 169.53 171.46 170.53 171.46ZM204.44 137.88C205.45 137.88 206.26 137.07 206.26 136.07C206.26 135.07 205.44 134.26 204.44 134.26C203.44 134.26 202.62 135.07 202.62 136.07C202.62 137.07 203.44 137.88 204.44 137.88ZM204.44 171.46C205.45 171.46 206.26 170.65 206.26 169.65C206.26 168.65 205.44 167.84 204.44 167.84C203.44 167.84 202.62 168.65 202.62 169.65C202.62 170.65 203.44 171.46 204.44 171.46ZM204.44 104.32C205.45 104.32 206.26 103.51 206.26 102.51C206.26 101.51 205.44 100.7 204.44 100.7C203.44 100.7 202.62 101.51 202.62 102.51C202.62 103.51 203.44 104.32 204.44 104.32ZM204.44 20.4C205.45 20.4 206.26 19.59 206.26 18.59C206.26 17.59 205.44 16.78 204.44 16.78C203.44 16.78 202.62 17.59 202.62 18.59C202.62 19.59 203.44 20.4 204.44 20.4ZM204.44 70.75C205.45 70.75 206.26 69.94 206.26 68.94C206.26 67.94 205.44 67.13 204.44 67.13C203.44 67.13 202.62 67.94 202.62 68.94C202.62 69.94 203.44 70.75 204.44 70.75ZM204.44 53.97C205.45 53.97 206.26 53.16 206.26 52.16C206.26 51.16 205.44 50.35 204.44 50.35C203.44 50.35 202.62 51.16 202.62 52.16C202.62 53.16 203.44 53.97 204.44 53.97ZM204.44 87.54C205.45 87.54 206.26 86.73 206.26 85.73C206.26 84.73 205.44 83.92 204.44 83.92C203.44 83.92 202.62 84.73 202.62 85.73C202.62 86.73 203.44 87.54 204.44 87.54ZM187.48 70.76C188.49 70.76 189.3 69.95 189.3 68.95C189.3 67.95 188.48 67.14 187.48 67.14C186.48 67.14 185.66 67.95 185.66 68.95C185.66 69.95 186.48 70.76 187.48 70.76ZM170.52 322.53C171.53 322.53 172.34 321.72 172.34 320.72C172.34 319.72 171.52 318.91 170.52 318.91C169.52 318.91 168.7 319.72 168.7 320.72C168.7 321.72 169.52 322.53 170.52 322.53ZM170.52 272.18C171.53 272.18 172.34 271.37 172.34 270.37C172.34 269.37 171.52 268.56 170.52 268.56C169.52 268.56 168.7 269.37 168.7 270.37C168.7 271.37 169.52 272.18 170.52 272.18ZM170.52 288.96C171.53 288.96 172.34 288.15 172.34 287.15C172.34 286.15 171.52 285.34 170.52 285.34C169.52 285.34 168.7 286.15 168.7 287.15C168.7 288.15 169.52 288.96 170.52 288.96ZM170.52 305.74C171.53 305.74 172.34 304.93 172.34 303.93C172.34 302.93 171.52 302.12 170.52 302.12C169.52 302.12 168.7 302.93 168.7 303.93C168.7 304.93 169.52 305.74 170.52 305.74ZM170.52 255.39C171.53 255.39 172.34 254.58 172.34 253.58C172.34 252.58 171.52 251.77 170.52 251.77C169.52 251.77 168.7 252.58 168.7 253.58C168.7 254.58 169.52 255.39 170.52 255.39ZM187.48 154.68C188.49 154.68 189.3 153.87 189.3 152.87C189.3 151.87 188.48 151.06 187.48 151.06C186.48 151.06 185.66 151.87 185.66 152.87C185.66 153.87 186.48 154.68 187.48 154.68ZM170.52 188.26C171.53 188.26 172.34 187.45 172.34 186.45C172.34 185.45 171.52 184.64 170.52 184.64C169.52 184.64 168.7 185.45 168.7 186.45C168.7 187.45 169.52 188.26 170.52 188.26ZM170.52 238.61C171.53 238.61 172.34 237.8 172.34 236.8C172.34 235.8 171.52 234.99 170.52 234.99C169.52 234.99 168.7 235.8 168.7 236.8C168.7 237.8 169.52 238.61 170.52 238.61ZM170.52 221.83C171.53 221.83 172.34 221.02 172.34 220.02C172.34 219.02 171.52 218.21 170.52 218.21C169.52 218.21 168.7 219.02 168.7 220.02C168.7 221.02 169.52 221.83 170.52 221.83ZM170.52 205.05C171.53 205.05 172.34 204.24 172.34 203.24C172.34 202.24 171.52 201.43 170.52 201.43C169.52 201.43 168.7 202.24 168.7 203.24C168.7 204.24 169.52 205.05 170.52 205.05ZM187.48 104.34C188.49 104.34 189.3 103.53 189.3 102.53C189.3 101.53 188.48 100.72 187.48 100.72C186.48 100.72 185.66 101.53 185.66 102.53C185.66 103.53 186.48 104.34 187.48 104.34ZM187.48 20.42C188.49 20.42 189.3 19.61 189.3 18.61C189.3 17.61 188.48 16.8 187.48 16.8C186.48 16.8 185.66 17.61 185.66 18.61C185.66 19.61 186.48 20.42 187.48 20.42ZM187.48 87.56C188.49 87.56 189.3 86.75 189.3 85.75C189.3 84.75 188.48 83.94 187.48 83.94C186.48 83.94 185.66 84.75 185.66 85.75C185.66 86.75 186.48 87.56 187.48 87.56ZM187.48 137.91C188.49 137.91 189.3 137.1 189.3 136.1C189.3 135.1 188.48 134.29 187.48 134.29C186.48 134.29 185.66 135.1 185.66 136.1C185.66 137.1 186.48 137.91 187.48 137.91ZM187.48 121.13C188.49 121.13 189.3 120.32 189.3 119.32C189.3 118.32 188.48 117.51 187.48 117.51C186.48 117.51 185.66 118.32 185.66 119.32C185.66 120.32 186.48 121.13 187.48 121.13ZM187.48 3.64C188.49 3.64 189.3 2.83 189.3 1.83C189.3 0.83 188.48 0.02 187.48 0.02C186.48 0.02 185.66 0.83 185.66 1.83C185.66 2.83 186.48 3.64 187.48 3.64ZM204.44 188.27C205.45 188.27 206.26 187.46 206.26 186.46C206.26 185.46 205.44 184.65 204.44 184.65C203.44 184.65 202.62 185.46 202.62 186.46C202.62 187.46 203.44 188.27 204.44 188.27ZM187.48 37.21C188.49 37.21 189.3 36.4 189.3 35.4C189.3 34.4 188.48 33.59 187.48 33.59C186.48 33.59 185.66 34.4 185.66 35.4C185.66 36.4 186.48 37.21 187.48 37.21ZM187.48 53.99C188.49 53.99 189.3 53.18 189.3 52.18C189.3 51.18 188.48 50.37 187.48 50.37C186.48 50.37 185.66 51.18 185.66 52.18C185.66 53.18 186.48 53.99 187.48 53.99ZM187.48 171.49C188.49 171.49 189.3 170.68 189.3 169.68C189.3 168.68 188.48 167.87 187.48 167.87C186.48 167.87 185.66 168.68 185.66 169.68C185.66 170.68 186.48 171.49 187.48 171.49ZM68.78 151.08C67.77 151.08 66.96 151.89 66.96 152.89C66.96 153.89 67.78 154.7 68.78 154.7C69.78 154.7 70.6 153.89 70.6 152.89C70.6 151.89 69.78 151.08 68.78 151.08ZM68.78 167.87C67.77 167.87 66.96 168.68 66.96 169.68C66.96 170.68 67.78 171.49 68.78 171.49C69.78 171.49 70.6 170.68 70.6 169.68C70.6 168.68 69.78 167.87 68.78 167.87ZM68.78 134.29C67.77 134.29 66.96 135.1 66.96 136.1C66.96 137.1 67.78 137.91 68.78 137.91C69.78 137.91 70.6 137.1 70.6 136.1C70.6 135.1 69.78 134.29 68.78 134.29ZM68.78 184.65C67.77 184.65 66.96 185.46 66.96 186.46C66.96 187.46 67.78 188.27 68.78 188.27C69.78 188.27 70.6 187.46 70.6 186.46C70.6 185.46 69.78 184.65 68.78 184.65ZM68.78 235C67.77 235 66.96 235.81 66.96 236.81C66.96 237.81 67.78 238.62 68.78 238.62C69.78 238.62 70.6 237.81 70.6 236.81C70.6 235.81 69.78 235 68.78 235ZM68.78 218.22C67.77 218.22 66.96 219.03 66.96 220.03C66.96 221.03 67.78 221.84 68.78 221.84C69.78 221.84 70.6 221.03 70.6 220.03C70.6 219.03 69.78 218.22 68.78 218.22ZM85.74 67.14C84.73 67.14 83.92 67.95 83.92 68.95C83.92 69.95 84.74 70.76 85.74 70.76C86.74 70.76 87.56 69.95 87.56 68.95C87.56 67.95 86.74 67.14 85.74 67.14ZM68.78 201.42C67.77 201.42 66.96 202.23 66.96 203.23C66.96 204.23 67.78 205.04 68.78 205.04C69.78 205.04 70.6 204.23 70.6 203.23C70.6 202.23 69.78 201.42 68.78 201.42ZM68.78 117.49C67.77 117.49 66.96 118.3 66.96 119.3C66.96 120.3 67.78 121.11 68.78 121.11C69.78 121.11 70.6 120.3 70.6 119.3C70.6 118.3 69.78 117.49 68.78 117.49ZM51.82 117.49C50.81 117.49 50 118.3 50 119.3C50 120.3 50.82 121.11 51.82 121.11C52.82 121.11 53.64 120.3 53.64 119.3C53.64 118.3 52.82 117.49 51.82 117.49V117.49ZM51.82 134.27C50.81 134.27 50 135.08 50 136.08C50 137.08 50.82 137.89 51.82 137.89C52.82 137.89 53.64 137.08 53.64 136.08C53.64 135.08 52.82 134.27 51.82 134.27V134.27ZM51.82 205.03C52.83 205.03 53.64 204.22 53.64 203.22C53.64 202.22 52.82 201.41 51.82 201.41C50.82 201.41 50 202.22 50 203.22C50 204.22 50.82 205.03 51.82 205.03V205.03ZM85.74 83.92C84.73 83.92 83.92 84.73 83.92 85.73C83.92 86.73 84.74 87.54 85.74 87.54C86.74 87.54 87.56 86.73 87.56 85.73C87.56 84.73 86.74 83.92 85.74 83.92ZM87.56 270.36C87.56 269.36 86.74 268.55 85.74 268.55C84.74 268.55 83.92 269.36 83.92 270.36C83.92 270.41 83.93 270.46 83.93 270.51C84.38 271.05 84.83 271.58 85.3 272.11C85.44 272.15 85.59 272.17 85.74 272.17C86.75 272.17 87.56 271.36 87.56 270.36V270.36ZM204.44 205.03C205.45 205.03 206.26 204.22 206.26 203.22C206.26 202.22 205.44 201.41 204.44 201.41C203.44 201.41 202.62 202.22 202.62 203.22C202.62 204.22 203.44 205.03 204.44 205.03ZM68.78 100.7C67.77 100.7 66.96 101.51 66.96 102.51C66.96 103.51 67.78 104.32 68.78 104.32C69.78 104.32 70.6 103.51 70.6 102.51C70.6 101.51 69.78 100.7 68.78 100.7ZM51.82 151.06C50.81 151.06 50 151.87 50 152.87C50 153.87 50.82 154.68 51.82 154.68C52.82 154.68 53.64 153.87 53.64 152.87C53.64 151.87 52.82 151.06 51.82 151.06ZM68.78 83.92C67.77 83.92 66.96 84.73 66.96 85.73C66.96 86.73 67.78 87.54 68.78 87.54C69.78 87.54 70.6 86.73 70.6 85.73C70.6 84.73 69.78 83.92 68.78 83.92ZM51.82 184.63C50.81 184.63 50 185.44 50 186.44C50 187.44 50.82 188.25 51.82 188.25C52.82 188.25 53.64 187.44 53.64 186.44C53.64 185.44 52.82 184.63 51.82 184.63ZM51.82 167.85C50.81 167.85 50 168.66 50 169.66C50 170.66 50.82 171.47 51.82 171.47C52.82 171.47 53.64 170.66 53.64 169.66C53.64 168.66 52.82 167.85 51.82 167.85ZM204.44 288.96C205.45 288.96 206.26 288.15 206.26 287.15C206.26 286.15 205.44 285.34 204.44 285.34C203.44 285.34 202.62 286.15 202.62 287.15C202.62 288.15 203.44 288.96 204.44 288.96ZM204.44 305.74C205.45 305.74 206.26 304.93 206.26 303.93C206.26 302.93 205.44 302.12 204.44 302.12C203.44 302.12 202.62 302.93 202.62 303.93C202.62 304.93 203.44 305.74 204.44 305.74ZM85.74 100.7C84.73 100.7 83.92 101.51 83.92 102.51C83.92 103.51 84.74 104.32 85.74 104.32C86.74 104.32 87.56 103.51 87.56 102.51C87.56 101.51 86.74 100.7 85.74 100.7ZM204.44 0C203.43 0 202.62 0.81 202.62 1.81C202.62 2.81 203.44 3.62 204.44 3.62C205.44 3.62 206.26 2.81 206.26 1.81C206.26 0.81 205.44 0 204.44 0ZM204.44 272.17C205.45 272.17 206.26 271.36 206.26 270.36C206.26 269.36 205.44 268.55 204.44 268.55C203.44 268.55 202.62 269.36 202.62 270.36C202.62 271.36 203.44 272.17 204.44 272.17ZM153.57 3.62C154.41 3.62 155.11 3.06 155.32 2.29C154.4 2.62 153.48 2.97 152.57 3.32C152.86 3.51 153.2 3.62 153.57 3.62ZM204.44 221.82C205.45 221.82 206.26 221.01 206.26 220.01C206.26 219.01 205.44 218.2 204.44 218.2C203.44 218.2 202.62 219.01 202.62 220.01C202.62 221.01 203.44 221.82 204.44 221.82ZM204.44 238.6C205.45 238.6 206.26 237.79 206.26 236.79C206.26 235.79 205.44 234.98 204.44 234.98C203.44 234.98 202.62 235.79 202.62 236.79C202.62 237.79 203.44 238.6 204.44 238.6ZM204.44 255.38C205.45 255.38 206.26 254.57 206.26 253.57C206.26 252.57 205.44 251.76 204.44 251.76C203.44 251.76 202.62 252.57 202.62 253.57C202.62 254.57 203.44 255.38 204.44 255.38ZM204.44 322.52C205.45 322.52 206.26 321.71 206.26 320.71C206.26 319.71 205.44 318.9 204.44 318.9C203.44 318.9 202.62 319.71 202.62 320.71C202.62 321.71 203.44 322.52 204.44 322.52ZM85.74 134.27C84.73 134.27 83.92 135.08 83.92 136.08C83.92 137.08 84.74 137.89 85.74 137.89C86.74 137.89 87.56 137.08 87.56 136.08C87.56 135.08 86.74 134.27 85.74 134.27ZM85.74 151.05C84.73 151.05 83.92 151.86 83.92 152.86C83.92 153.86 84.74 154.67 85.74 154.67C86.74 154.67 87.56 153.86 87.56 152.86C87.56 151.86 86.74 151.05 85.74 151.05ZM85.74 117.48C84.73 117.48 83.92 118.29 83.92 119.29C83.92 120.29 84.74 121.1 85.74 121.1C86.74 121.1 87.56 120.29 87.56 119.29C87.56 118.29 86.74 117.48 85.74 117.48ZM85.74 234.98C84.73 234.98 83.92 235.79 83.92 236.79C83.92 237.79 84.74 238.6 85.74 238.6C86.74 238.6 87.56 237.79 87.56 236.79C87.56 235.79 86.74 234.98 85.74 234.98ZM85.74 167.84C84.73 167.84 83.92 168.65 83.92 169.65C83.92 170.65 84.74 171.46 85.74 171.46C86.74 171.46 87.56 170.65 87.56 169.65C87.56 168.65 86.74 167.84 85.74 167.84ZM85.74 251.76C84.73 251.76 83.92 252.57 83.92 253.57C83.92 254.57 84.74 255.38 85.74 255.38C86.74 255.38 87.56 254.57 87.56 253.57C87.56 252.57 86.74 251.76 85.74 251.76ZM85.74 218.19C84.73 218.19 83.92 219 83.92 220C83.92 221 84.74 221.81 85.74 221.81C86.74 221.81 87.56 221 87.56 220C87.56 219 86.74 218.19 85.74 218.19ZM85.74 201.41C84.73 201.41 83.92 202.22 83.92 203.22C83.92 204.22 84.74 205.03 85.74 205.03C86.74 205.03 87.56 204.22 87.56 203.22C87.56 202.22 86.74 201.41 85.74 201.41ZM85.74 184.63C84.73 184.63 83.92 185.44 83.92 186.44C83.92 187.44 84.74 188.25 85.74 188.25C86.74 188.25 87.56 187.44 87.56 186.44C87.56 185.44 86.74 184.63 85.74 184.63ZM187.48 288.95C188.49 288.95 189.3 288.14 189.3 287.14C189.3 286.14 188.48 285.33 187.48 285.33C186.48 285.33 185.66 286.14 185.66 287.14C185.66 288.14 186.48 288.95 187.48 288.95ZM136.61 167.84C135.6 167.84 134.79 168.65 134.79 169.65C134.79 170.65 135.61 171.46 136.61 171.46C137.61 171.46 138.43 170.65 138.43 169.65C138.43 168.65 137.61 167.84 136.61 167.84ZM136.61 184.62C135.6 184.62 134.79 185.43 134.79 186.43C134.79 187.43 135.61 188.24 136.61 188.24C137.61 188.24 138.43 187.43 138.43 186.43C138.43 185.43 137.61 184.62 136.61 184.62ZM136.61 201.4C135.6 201.4 134.79 202.21 134.79 203.21C134.79 204.21 135.61 205.02 136.61 205.02C137.61 205.02 138.43 204.21 138.43 203.21C138.43 202.21 137.61 201.4 136.61 201.4ZM136.61 134.26C135.6 134.26 134.79 135.07 134.79 136.07C134.79 137.07 135.61 137.88 136.61 137.88C137.61 137.88 138.43 137.07 138.43 136.07C138.43 135.07 137.61 134.26 136.61 134.26ZM136.61 151.04C135.6 151.04 134.79 151.85 134.79 152.85C134.79 153.85 135.61 154.66 136.61 154.66C137.61 154.66 138.43 153.85 138.43 152.85C138.43 151.85 137.61 151.04 136.61 151.04ZM136.61 234.97C135.6 234.97 134.79 235.78 134.79 236.78C134.79 237.78 135.61 238.59 136.61 238.59C137.61 238.59 138.43 237.78 138.43 236.78C138.43 235.78 137.61 234.97 136.61 234.97ZM136.61 268.54C135.6 268.54 134.79 269.35 134.79 270.35C134.79 271.35 135.61 272.16 136.61 272.16C137.61 272.16 138.43 271.35 138.43 270.35C138.43 269.35 137.61 268.54 136.61 268.54ZM119.65 234.97C118.64 234.97 117.83 235.78 117.83 236.78C117.83 237.78 118.65 238.59 119.65 238.59C120.65 238.59 121.47 237.78 121.47 236.78C121.47 235.78 120.65 234.97 119.65 234.97ZM136.61 302.11C135.6 302.11 134.79 302.92 134.79 303.92C134.79 304.92 135.61 305.73 136.61 305.73C137.61 305.73 138.43 304.92 138.43 303.92C138.43 302.92 137.61 302.11 136.61 302.11ZM136.61 117.48C135.6 117.48 134.79 118.29 134.79 119.29C134.79 120.29 135.61 121.1 136.61 121.1C137.61 121.1 138.43 120.29 138.43 119.29C138.43 118.29 137.61 117.48 136.61 117.48ZM136.61 218.19C135.6 218.19 134.79 219 134.79 220C134.79 221 135.61 221.81 136.61 221.81C137.61 221.81 138.43 221 138.43 220C138.43 219 137.61 218.19 136.61 218.19ZM119.65 285.33C118.64 285.33 117.83 286.14 117.83 287.14C117.83 288.14 118.65 288.95 119.65 288.95C120.65 288.95 121.47 288.14 121.47 287.14C121.47 286.14 120.65 285.33 119.65 285.33ZM136.61 100.7C135.6 100.7 134.79 101.51 134.79 102.51C134.79 103.51 135.61 104.32 136.61 104.32C137.61 104.32 138.43 103.51 138.43 102.51C138.43 101.51 137.61 100.7 136.61 100.7ZM119.65 268.55C118.64 268.55 117.83 269.36 117.83 270.36C117.83 271.36 118.65 272.17 119.65 272.17C120.65 272.17 121.47 271.36 121.47 270.36C121.47 269.36 120.65 268.55 119.65 268.55ZM119.65 251.77C118.64 251.77 117.83 252.58 117.83 253.58C117.83 254.58 118.65 255.39 119.65 255.39C120.65 255.39 121.47 254.58 121.47 253.58C121.47 252.58 120.65 251.77 119.65 251.77ZM136.61 16.78C135.6 16.78 134.79 17.59 134.79 18.59C134.79 19.59 135.61 20.4 136.61 20.4C137.61 20.4 138.43 19.59 138.43 18.59C138.43 17.59 137.61 16.78 136.61 16.78ZM136.61 67.13C135.6 67.13 134.79 67.94 134.79 68.94C134.79 69.94 135.61 70.75 136.61 70.75C137.61 70.75 138.43 69.94 138.43 68.94C138.43 67.94 137.61 67.13 136.61 67.13ZM136.61 33.56C135.6 33.56 134.79 34.37 134.79 35.37C134.79 36.37 135.61 37.18 136.61 37.18C137.61 37.18 138.43 36.37 138.43 35.37C138.43 34.37 137.61 33.56 136.61 33.56ZM136.61 83.91C135.6 83.91 134.79 84.72 134.79 85.72C134.79 86.72 135.61 87.53 136.61 87.53C137.61 87.53 138.43 86.72 138.43 85.72C138.43 84.72 137.61 83.91 136.61 83.91ZM136.61 50.34C135.6 50.34 134.79 51.15 134.79 52.15C134.79 53.15 135.61 53.96 136.61 53.96C137.61 53.96 138.43 53.15 138.43 52.15C138.43 51.15 137.61 50.34 136.61 50.34ZM136.61 251.76C135.6 251.76 134.79 252.57 134.79 253.57C134.79 254.57 135.61 255.38 136.61 255.38C137.61 255.38 138.43 254.57 138.43 253.57C138.43 252.57 137.61 251.76 136.61 251.76ZM153.57 201.41C152.56 201.41 151.75 202.22 151.75 203.22C151.75 204.22 152.57 205.03 153.57 205.03C154.57 205.03 155.39 204.22 155.39 203.22C155.39 202.22 154.57 201.41 153.57 201.41ZM153.57 218.19C152.56 218.19 151.75 219 151.75 220C151.75 221 152.57 221.81 153.57 221.81C154.57 221.81 155.39 221 155.39 220C155.39 219 154.57 218.19 153.57 218.19ZM153.57 184.62C152.56 184.62 151.75 185.43 151.75 186.43C151.75 187.43 152.57 188.24 153.57 188.24C154.57 188.24 155.39 187.43 155.39 186.43C155.39 185.43 154.57 184.62 153.57 184.62ZM153.57 234.97C152.56 234.97 151.75 235.78 151.75 236.78C151.75 237.78 152.57 238.59 153.57 238.59C154.57 238.59 155.39 237.78 155.39 236.78C155.39 235.78 154.57 234.97 153.57 234.97ZM153.57 251.75C152.56 251.75 151.75 252.56 151.75 253.56C151.75 254.56 152.57 255.37 153.57 255.37C154.57 255.37 155.39 254.56 155.39 253.56C155.39 252.56 154.57 251.75 153.57 251.75ZM153.57 302.1C152.56 302.1 151.75 302.91 151.75 303.91C151.75 304.91 152.57 305.72 153.57 305.72C154.57 305.72 155.39 304.91 155.39 303.91C155.39 302.91 154.57 302.1 153.57 302.1ZM153.57 285.32C152.56 285.32 151.75 286.13 151.75 287.13C151.75 288.13 152.57 288.94 153.57 288.94C154.57 288.94 155.39 288.13 155.39 287.13C155.39 286.13 154.57 285.32 153.57 285.32ZM153.57 167.83C152.56 167.83 151.75 168.64 151.75 169.64C151.75 170.64 152.57 171.45 153.57 171.45C154.57 171.45 155.39 170.64 155.39 169.64C155.39 168.64 154.57 167.83 153.57 167.83ZM153.57 268.53C152.56 268.53 151.75 269.34 151.75 270.34C151.75 271.34 152.57 272.15 153.57 272.15C154.57 272.15 155.39 271.34 155.39 270.34C155.39 269.34 154.57 268.53 153.57 268.53ZM153.57 67.11C152.56 67.11 151.75 67.92 151.75 68.92C151.75 69.92 152.57 70.73 153.57 70.73C154.57 70.73 155.39 69.92 155.39 68.92C155.39 67.92 154.57 67.11 153.57 67.11ZM153.57 50.33C152.56 50.33 151.75 51.14 151.75 52.14C151.75 53.14 152.57 53.95 153.57 53.95C154.57 53.95 155.39 53.14 155.39 52.14C155.39 51.14 154.57 50.33 153.57 50.33ZM153.57 151.03C152.56 151.03 151.75 151.84 151.75 152.84C151.75 153.84 152.57 154.65 153.57 154.65C154.57 154.65 155.39 153.84 155.39 152.84C155.39 151.84 154.57 151.03 153.57 151.03ZM136.61 285.31C135.6 285.31 134.79 286.12 134.79 287.12C134.79 288.12 135.61 288.93 136.61 288.93C137.61 288.93 138.43 288.12 138.43 287.12C138.43 286.12 137.61 285.31 136.61 285.31ZM153.57 16.78C152.56 16.78 151.75 17.59 151.75 18.59C151.75 19.59 152.57 20.4 153.57 20.4C154.57 20.4 155.39 19.59 155.39 18.59C155.39 17.59 154.57 16.78 153.57 16.78ZM153.57 33.56C152.56 33.56 151.75 34.37 151.75 35.37C151.75 36.37 152.57 37.18 153.57 37.18C154.57 37.18 155.39 36.37 155.39 35.37C155.39 34.37 154.57 33.56 153.57 33.56ZM153.57 134.26C152.56 134.26 151.75 135.07 151.75 136.07C151.75 137.07 152.57 137.88 153.57 137.88C154.57 137.88 155.39 137.07 155.39 136.07C155.39 135.07 154.57 134.26 153.57 134.26ZM153.57 117.48C152.56 117.48 151.75 118.29 151.75 119.29C151.75 120.29 152.57 121.1 153.57 121.1C154.57 121.1 155.39 120.29 155.39 119.29C155.39 118.29 154.57 117.48 153.57 117.48ZM153.57 83.91C152.56 83.91 151.75 84.72 151.75 85.72C151.75 86.72 152.57 87.53 153.57 87.53C154.57 87.53 155.39 86.72 155.39 85.72C155.39 84.72 154.57 83.91 153.57 83.91ZM153.57 100.69C152.56 100.69 151.75 101.5 151.75 102.5C151.75 103.5 152.57 104.31 153.57 104.31C154.57 104.31 155.39 103.5 155.39 102.5C155.39 101.5 154.57 100.69 153.57 100.69ZM102.7 251.77C101.69 251.77 100.88 252.58 100.88 253.58C100.88 254.58 101.7 255.39 102.7 255.39C103.7 255.39 104.52 254.58 104.52 253.58C104.52 252.58 103.7 251.77 102.7 251.77ZM102.7 67.14C101.69 67.14 100.88 67.95 100.88 68.95C100.88 69.95 101.7 70.76 102.7 70.76C103.7 70.76 104.52 69.95 104.52 68.95C104.52 67.95 103.7 67.14 102.7 67.14ZM102.7 50.36C101.69 50.36 100.88 51.17 100.88 52.17C100.88 53.17 101.7 53.98 102.7 53.98C103.7 53.98 104.52 53.17 104.52 52.17C104.52 51.17 103.7 50.36 102.7 50.36ZM102.7 83.93C101.69 83.93 100.88 84.74 100.88 85.74C100.88 86.74 101.7 87.55 102.7 87.55C103.7 87.55 104.52 86.74 104.52 85.74C104.52 84.74 103.7 83.93 102.7 83.93ZM119.66 302.13C119.6 302.13 119.54 302.14 119.48 302.15C120.12 302.57 120.75 303 121.4 303.41C121.17 302.67 120.48 302.13 119.66 302.13ZM102.7 134.28C101.69 134.28 100.88 135.09 100.88 136.09C100.88 137.09 101.7 137.9 102.7 137.9C103.7 137.9 104.52 137.09 104.52 136.09C104.52 135.09 103.7 134.28 102.7 134.28ZM102.7 151.06C101.69 151.06 100.88 151.87 100.88 152.87C100.88 153.87 101.7 154.68 102.7 154.68C103.7 154.68 104.52 153.87 104.52 152.87C104.52 151.87 103.7 151.06 102.7 151.06ZM153.57 318.91C153.2 318.91 152.86 319.02 152.57 319.21C153.48 319.56 154.4 319.91 155.32 320.24C155.11 319.48 154.41 318.91 153.57 318.91ZM102.7 117.49C101.69 117.49 100.88 118.3 100.88 119.3C100.88 120.3 101.7 121.11 102.7 121.11C103.7 121.11 104.52 120.3 104.52 119.3C104.52 118.3 103.7 117.49 102.7 117.49ZM102.7 100.71C101.69 100.71 100.88 101.52 100.88 102.52C100.88 103.52 101.7 104.33 102.7 104.33C103.7 104.33 104.52 103.52 104.52 102.52C104.52 101.52 103.7 100.71 102.7 100.71ZM170.53 70.76C171.54 70.76 172.35 69.95 172.35 68.95C172.35 67.95 171.53 67.14 170.53 67.14C169.53 67.14 168.71 67.95 168.71 68.95C168.71 69.95 169.53 70.76 170.53 70.76ZM170.53 87.54C171.54 87.54 172.35 86.73 172.35 85.73C172.35 84.73 171.53 83.92 170.53 83.92C169.53 83.92 168.71 84.73 168.71 85.73C168.71 86.73 169.53 87.54 170.53 87.54ZM119.66 218.2C118.65 218.2 117.84 219.01 117.84 220.01C117.84 221.01 118.66 221.82 119.66 221.82C120.66 221.82 121.48 221.01 121.48 220.01C121.48 219.01 120.66 218.2 119.66 218.2ZM170.53 121.11C171.54 121.11 172.35 120.3 172.35 119.3C172.35 118.3 171.53 117.49 170.53 117.49C169.53 117.49 168.71 118.3 168.71 119.3C168.71 120.3 169.53 121.11 170.53 121.11ZM170.53 137.89C171.54 137.89 172.35 137.08 172.35 136.08C172.35 135.08 171.53 134.27 170.53 134.27C169.53 134.27 168.71 135.08 168.71 136.08C168.71 137.08 169.53 137.89 170.53 137.89ZM170.53 37.19C171.54 37.19 172.35 36.38 172.35 35.38C172.35 34.38 171.53 33.57 170.53 33.57C169.53 33.57 168.71 34.38 168.71 35.38C168.71 36.38 169.53 37.19 170.53 37.19ZM170.53 20.41C171.54 20.41 172.35 19.6 172.35 18.6C172.35 17.6 171.53 16.79 170.53 16.79C169.53 16.79 168.71 17.6 168.71 18.6C168.71 19.6 169.53 20.41 170.53 20.41ZM102.7 167.85C101.69 167.85 100.88 168.66 100.88 169.66C100.88 170.66 101.7 171.47 102.7 171.47C103.7 171.47 104.52 170.66 104.52 169.66C104.52 168.66 103.7 167.85 102.7 167.85ZM170.53 3.62C171.54 3.62 172.35 2.81 172.35 1.81C172.35 0.81 171.53 0 170.53 0C169.53 0 168.71 0.81 168.71 1.81C168.71 2.81 169.53 3.62 170.53 3.62ZM170.53 53.97C171.54 53.97 172.35 53.16 172.35 52.16C172.35 51.16 171.53 50.35 170.53 50.35C169.53 50.35 168.71 51.16 168.71 52.16C168.71 53.16 169.53 53.97 170.53 53.97ZM170.53 104.32C171.54 104.32 172.35 103.51 172.35 102.51C172.35 101.51 171.53 100.7 170.53 100.7C169.53 100.7 168.71 101.51 168.71 102.51C168.71 103.51 169.53 104.32 170.53 104.32ZM119.66 134.27C118.65 134.27 117.84 135.08 117.84 136.08C117.84 137.08 118.66 137.89 119.66 137.89C120.66 137.89 121.48 137.08 121.48 136.08C121.48 135.08 120.66 134.27 119.66 134.27ZM119.66 117.49C118.65 117.49 117.84 118.3 117.84 119.3C117.84 120.3 118.66 121.11 119.66 121.11C120.66 121.11 121.48 120.3 121.48 119.3C121.48 118.3 120.66 117.49 119.66 117.49ZM119.66 100.71C118.65 100.71 117.84 101.52 117.84 102.52C117.84 103.52 118.66 104.33 119.66 104.33C120.66 104.33 121.48 103.52 121.48 102.52C121.48 101.52 120.66 100.71 119.66 100.71ZM119.66 83.93C118.65 83.93 117.84 84.74 117.84 85.74C117.84 86.74 118.66 87.55 119.66 87.55C120.66 87.55 121.48 86.74 121.48 85.74C121.48 84.74 120.66 83.93 119.66 83.93ZM119.66 167.86C118.65 167.86 117.84 168.67 117.84 169.67C117.84 170.67 118.66 171.48 119.66 171.48C120.66 171.48 121.48 170.67 121.48 169.67C121.48 168.67 120.66 167.86 119.66 167.86ZM119.66 184.64C118.65 184.64 117.84 185.45 117.84 186.45C117.84 187.45 118.66 188.26 119.66 188.26C120.66 188.26 121.48 187.45 121.48 186.45C121.48 185.45 120.66 184.64 119.66 184.64ZM119.66 201.42C118.65 201.42 117.84 202.23 117.84 203.23C117.84 204.23 118.66 205.04 119.66 205.04C120.66 205.04 121.48 204.23 121.48 203.23C121.48 202.23 120.66 201.42 119.66 201.42ZM119.66 67.14C118.65 67.14 117.84 67.95 117.84 68.95C117.84 69.95 118.66 70.76 119.66 70.76C120.66 70.76 121.48 69.95 121.48 68.95C121.48 67.95 120.66 67.14 119.66 67.14ZM119.66 151.06C118.65 151.06 117.84 151.87 117.84 152.87C117.84 153.87 118.66 154.68 119.66 154.68C120.66 154.68 121.48 153.87 121.48 152.87C121.48 151.87 120.66 151.06 119.66 151.06ZM102.7 37.19C103.71 37.19 104.52 36.38 104.52 35.38C104.52 34.38 103.7 33.57 102.7 33.57C102.45 33.57 102.21 33.62 101.99 33.71C101.7 33.96 101.41 34.22 101.12 34.48C100.97 34.75 100.87 35.05 100.87 35.38C100.87 36.38 101.69 37.19 102.69 37.19H102.7ZM102.7 234.99C101.69 234.99 100.88 235.8 100.88 236.8C100.88 237.8 101.7 238.61 102.7 238.61C103.7 238.61 104.52 237.8 104.52 236.8C104.52 235.8 103.7 234.99 102.7 234.99ZM102.7 218.21C101.69 218.21 100.88 219.02 100.88 220.02C100.88 221.02 101.7 221.83 102.7 221.83C103.7 221.83 104.52 221.02 104.52 220.02C104.52 219.02 103.7 218.21 102.7 218.21ZM102.7 201.43C101.69 201.43 100.88 202.24 100.88 203.24C100.88 204.24 101.7 205.05 102.7 205.05C103.7 205.05 104.52 204.24 104.52 203.24C104.52 202.24 103.7 201.43 102.7 201.43ZM102.7 268.57C101.69 268.57 100.88 269.38 100.88 270.38C100.88 271.38 101.7 272.19 102.7 272.19C103.7 272.19 104.52 271.38 104.52 270.38C104.52 269.38 103.7 268.57 102.7 268.57ZM121.39 19.12C120.75 19.54 120.11 19.96 119.47 20.38C119.53 20.38 119.59 20.4 119.65 20.4C120.47 20.4 121.16 19.86 121.39 19.12ZM119.65 50.35C118.64 50.35 117.83 51.16 117.83 52.16C117.83 53.16 118.65 53.97 119.65 53.97C120.65 53.97 121.47 53.16 121.47 52.16C121.47 51.16 120.65 50.35 119.65 50.35ZM119.65 33.57C118.64 33.57 117.83 34.38 117.83 35.38C117.83 36.38 118.65 37.19 119.65 37.19C120.65 37.19 121.47 36.38 121.47 35.38C121.47 34.38 120.65 33.57 119.65 33.57ZM102.69 184.63C101.68 184.63 100.87 185.44 100.87 186.44C100.87 187.44 101.69 188.25 102.69 188.25C103.69 188.25 104.51 187.44 104.51 186.44C104.51 185.44 103.69 184.63 102.69 184.63ZM170.52 154.67C171.53 154.67 172.34 153.86 172.34 152.86C172.34 151.86 171.52 151.05 170.52 151.05C169.52 151.05 168.7 151.86 168.7 152.86C168.7 153.86 169.52 154.67 170.52 154.67Z" fill="url(#paint0_linear_1365_39647)"/>
</g>
<path d="M71.42 127.13H71.17C71.01 127.13 70.85 127.13 70.69 127.13C70.6 127.13 70.51 127.13 70.43 127.13L70.77 152.13C70.99 152.13 71.21 152.13 71.43 152.13V127.13H71.42ZM65.13 127.4C64.9 127.42 64.68 127.44 64.45 127.46C64.34 127.47 64.24 127.48 64.13 127.49L66.65 152.36C66.87 152.34 67.08 152.32 67.3 152.3L65.13 127.39V127.4ZM58.89 128.22L58.74 128.25H58.7C58.44 128.3 58.17 128.35 57.91 128.4L62.61 152.95C62.82 152.91 63.03 152.87 63.25 152.83L58.89 128.21V128.22ZM52.65 129.62C52.53 129.65 52.41 129.69 52.29 129.72H52.24C52.05 129.79 51.87 129.84 51.69 129.89L58.59 153.92C58.8 153.86 59.01 153.8 59.21 153.75L52.65 129.62V129.62ZM46.65 131.54C46.49 131.6 46.34 131.66 46.18 131.71L46.14 131.73H46.11L46.09 131.75L46.05 131.77C45.94 131.81 45.83 131.85 45.72 131.9L54.72 155.22C54.92 155.14 55.12 155.07 55.33 154.99L46.66 131.54H46.65ZM40.85 133.98C40.61 134.1 40.36 134.21 40.12 134.33L39.95 134.41L50.98 156.84C51.17 156.74 51.37 156.65 51.56 156.56L40.84 133.97L40.85 133.98ZM35.2 136.98H35.18L35.15 137.01H35.14C34.87 137.18 34.61 137.34 34.34 137.5L47.34 158.86C47.53 158.75 47.71 158.64 47.9 158.53L35.2 136.99V136.98ZM29.92 140.41C29.85 140.46 29.78 140.51 29.72 140.56L29.67 140.59H29.66L29.63 140.62H29.61L29.58 140.65H29.56L29.53 140.69H29.51L29.46 140.74L29.42 140.78L29.38 140.82L29.33 140.86C29.26 140.91 29.2 140.96 29.13 141.01L43.96 161.14C44.13 161.01 44.31 160.88 44.49 160.76L29.95 140.43L29.92 140.41ZM24.96 144.3C24.71 144.52 24.46 144.73 24.21 144.96L40.74 163.71C40.9 163.57 41.07 163.42 41.23 163.28L24.96 144.3ZM20.29 148.68C20.22 148.75 20.15 148.83 20.07 148.9L20.04 148.94H20.03L20.01 148.98L19.99 149L19.97 149.02C19.85 149.15 19.73 149.28 19.61 149.4L37.74 166.61C37.89 166.45 38.04 166.3 38.19 166.14L20.3 148.68H20.29ZM16.09 153.38L16.07 153.41H16.06L16.04 153.44L16.02 153.47V153.49L15.98 153.52H15.97L15.95 153.56V153.58L15.91 153.61L15.89 153.63C15.75 153.82 15.61 153.99 15.47 154.16L35.04 169.71C35.18 169.54 35.31 169.37 35.45 169.2L16.1 153.37L16.09 153.38ZM12.32 158.43C12.13 158.71 11.95 158.98 11.76 159.26L32.62 173.04C32.74 172.86 32.86 172.68 32.98 172.5L12.31 158.43H12.32ZM8.96002 163.88L8.92999 163.93L8.90997 163.97L8.89001 164C8.83001 164.11 8.77002 164.22 8.71002 164.33L8.69 164.38C8.62 164.51 8.54999 164.63 8.48999 164.76L30.5 176.61C30.6 176.42 30.71 176.23 30.81 176.04L8.97003 163.88H8.96002ZM6.14001 169.51C6.11001 169.58 6.07999 169.65 6.04999 169.72V169.76L6.02002 169.79C5.93002 170.01 5.84 170.22 5.75 170.43L28.72 180.29C28.81 180.09 28.89 179.89 28.98 179.7L6.15002 169.52L6.14001 169.51ZM3.83002 175.37L3.81 175.43L3.78998 175.48V175.5L3.77002 175.53V175.56L3.75 175.58L3.71002 175.69V175.72L3.69 175.74L3.66998 175.79C3.60998 175.97 3.54999 176.15 3.48999 176.33L27.25 184.11C27.32 183.9 27.39 183.7 27.46 183.5L3.81 175.38L3.83002 175.37ZM2.03003 181.51C2.01003 181.58 1.99998 181.65 1.97998 181.71V181.75H1.97003C1.91003 182 1.85999 182.24 1.79999 182.48L26.16 188.09C26.21 187.88 26.26 187.67 26.31 187.46L2.03003 181.51V181.51ZM0.799988 187.69C0.749988 188.02 0.699973 188.35 0.659973 188.68L25.42 192.11C25.45 191.9 25.48 191.68 25.51 191.47L0.799988 187.69V187.69ZM0.119995 193.95C0.0999951 194.22 0.0900073 194.49 0.0700073 194.76V194.84V194.95L25.03 196.2C25.04 195.98 25.05 195.76 25.07 195.55L0.119995 193.95V193.95ZM24.99 199.74L0 200.35C0 200.44 0 200.54 0 200.63V200.82V200.88V200.94V201V201.06V201.12V201.36L24.99 200.41C24.99 200.19 24.97 199.97 24.97 199.75L24.99 199.74ZM25.27 203.84L0.429993 206.63L0.450012 206.81V206.89C0.480012 207.12 0.500029 207.34 0.530029 207.56V207.62L25.34 204.49C25.31 204.28 25.29 204.06 25.26 203.84H25.27ZM25.9 207.88L1.40002 212.85C1.47002 213.18 1.52999 213.5 1.60999 213.83L26.04 208.52C25.99 208.31 25.95 208.1 25.91 207.89L25.9 207.88ZM26.91 211.9L2.96002 219.06L3 219.19V219.24C3.06 219.42 3.11998 219.6 3.16998 219.77V219.82H3.19C3.21 219.89 3.23 219.95 3.25 220.02L27.1 212.53C27.04 212.32 26.97 212.12 26.91 211.91V211.9ZM28.25 215.75L5.03003 225C5.06003 225.08 5.09 225.15 5.12 225.23L5.14001 225.29L5.15997 225.35L5.17999 225.41C5.21999 225.51 5.25999 225.6 5.29999 225.7L5.32001 225.75V225.77L5.34003 225.8V225.83H5.35999L5.40002 225.93L28.49 216.35C28.41 216.15 28.33 215.95 28.25 215.75V215.75ZM29.93 219.47L7.62 230.74L7.65002 230.79L7.66998 230.84L7.69 230.88V230.9L7.72003 230.93V230.95L7.73999 230.98V231L7.76001 231.03L7.78003 231.06V231.08L7.81 231.13C7.89 231.28 7.95998 231.42 8.03998 231.57L8.07001 231.63L30.22 220.04C30.12 219.85 30.02 219.66 29.92 219.46L29.93 219.47ZM31.97 223.09L10.76 236.32C10.94 236.6 11.11 236.88 11.3 237.16L32.33 223.64C32.21 223.46 32.1 223.27 31.98 223.09H31.97ZM34.29 226.47L14.32 241.51C14.52 241.78 14.72 242.04 14.93 242.3L34.69 226.98C34.56 226.81 34.43 226.64 34.29 226.46V226.47ZM36.9 229.64L18.32 246.37L18.35 246.41L18.37 246.43L18.39 246.45L18.41 246.47L18.43 246.49L18.45 246.51L18.47 246.53L18.49 246.55L18.52 246.59L18.64 246.73L18.68 246.78L18.72 246.83L18.84 246.96L18.87 246.99L18.97 247.1L37.31 230.11C37.16 229.95 37.02 229.79 36.87 229.63L36.9 229.64ZM39.83 232.61L22.82 250.93C22.91 251.01 23 251.1 23.09 251.18L23.13 251.22C23.27 251.35 23.41 251.48 23.54 251.6L40.3 233.05C40.14 232.9 39.98 232.76 39.82 232.61H39.83ZM42.96 235.27L27.62 255.01C27.78 255.14 27.95 255.26 28.11 255.39L28.15 255.42L28.17 255.45C28.24 255.51 28.32 255.56 28.39 255.62L43.46 235.67C43.29 235.54 43.11 235.41 42.94 235.27H42.96ZM46.3 237.64L32.75 258.65C33.03 258.83 33.31 259.01 33.59 259.19L46.85 237.99C46.67 237.87 46.48 237.76 46.3 237.64V237.64ZM49.89 239.73L38.27 261.87C38.34 261.91 38.42 261.95 38.49 261.99L38.55 262.02L38.66 262.08L38.71 262.11L38.75 262.14H38.76L38.81 262.17C38.92 262.23 39.03 262.29 39.14 262.34L50.44 240.04C50.25 239.94 50.05 239.84 49.86 239.74L49.89 239.73ZM53.59 241.47L43.98 264.55C44.07 264.59 44.15 264.62 44.24 264.66C44.46 264.75 44.68 264.84 44.9 264.93L54.18 241.72C53.98 241.64 53.78 241.56 53.58 241.48L53.59 241.47ZM57.42 242.87L49.89 266.71C50.07 266.77 50.25 266.82 50.44 266.88L50.5 266.9H50.55V266.92H50.61L50.63 266.94H50.67L50.69 266.96H50.72L50.75 266.98H50.77L50.85 267.01L58.04 243.07C57.83 243.01 57.63 242.94 57.42 242.88V242.87ZM61.42 243.94L56.07 268.36C56.15 268.38 56.23 268.4 56.31 268.41C56.55 268.46 56.8 268.51 57.05 268.56L62.05 244.07C61.84 244.03 61.63 243.98 61.42 243.94V243.94ZM65.45 244.64L62.28 269.44H62.39L62.42 269.46H62.54L62.57 269.48H62.62C62.84 269.51 63.06 269.54 63.28 269.56L66.1 244.72C65.88 244.7 65.67 244.67 65.45 244.64V244.64ZM69.54 244.98L68.55 269.96H68.77C69.03 269.98 69.29 269.99 69.55 269.99L70.19 245C69.97 245 69.75 244.99 69.53 244.98H69.54ZM74.39 244.92C74.17 244.93 73.95 244.95 73.74 244.96L74.96 269.93C75.11 269.93 75.25 269.92 75.39 269.91H75.44C75.61 269.9 75.78 269.89 75.95 269.88L74.39 244.93V244.92ZM78.47 244.48C78.26 244.51 78.04 244.54 77.83 244.57L81.23 269.34C81.33 269.33 81.44 269.31 81.54 269.3H81.64C81.8 269.26 81.96 269.24 82.13 269.21H82.22L78.47 244.48V244.48ZM82.48 243.69C82.27 243.74 82.06 243.79 81.85 243.84L87.43 268.21C87.76 268.14 88.08 268.06 88.4 267.98L82.48 243.69V243.69ZM86.46 242.53C86.26 242.6 86.05 242.67 85.85 242.74L93.6 266.51L93.77 266.45H93.8L93.84 266.43H93.85L93.9 266.41L93.95 266.39H93.96L94 266.37H94.02L94.05 266.35H94.09C94.24 266.29 94.39 266.23 94.54 266.18L86.45 242.52L86.46 242.53ZM90.26 241.04C90.06 241.13 89.86 241.21 89.67 241.3L99.5 264.29C99.81 264.16 100.11 264.03 100.42 263.89L90.27 241.04H90.26ZM93.92 239.22C93.73 239.32 93.54 239.43 93.35 239.53L105.17 261.56C105.37 261.45 105.57 261.34 105.77 261.24H105.79L105.83 261.21C105.9 261.17 105.97 261.13 106.05 261.09L93.92 239.23V239.22ZM97.46 237.04C97.28 237.16 97.1 237.28 96.92 237.4L110.67 258.28C110.95 258.1 111.23 257.91 111.5 257.72L97.46 237.03V237.04ZM100.75 234.59C100.58 234.73 100.41 234.86 100.24 235L115.77 254.59C115.86 254.52 115.95 254.45 116.03 254.38H116.05L116.07 254.35L116.1 254.32C116.18 254.25 116.26 254.19 116.34 254.12L116.38 254.09H116.4L116.42 254.06L116.54 253.96L100.74 234.58L100.75 234.59ZM103.82 231.86C103.66 232.01 103.51 232.16 103.35 232.31L120.53 250.47L120.64 250.37H120.65L120.67 250.34L120.7 250.31C120.88 250.13 121.06 249.96 121.24 249.79L103.81 231.87L103.82 231.86ZM106.68 228.82C106.54 228.98 106.4 229.15 106.25 229.31L124.98 245.87C125.2 245.62 125.42 245.37 125.64 245.12L106.68 228.82ZM109.22 225.59C109.09 225.77 108.97 225.94 108.84 226.12L128.95 240.97C129.15 240.7 129.34 240.43 129.54 240.16L109.23 225.59H109.22ZM111.46 222.16C111.35 222.35 111.24 222.53 111.13 222.72L132.47 235.75C132.55 235.62 132.63 235.48 132.71 235.35L132.73 235.31L132.75 235.28C132.82 235.14 132.9 235.02 132.97 234.89L111.45 222.16H111.46ZM113.41 218.49C113.32 218.69 113.22 218.88 113.13 219.07L135.55 230.13C135.58 230.06 135.62 230 135.65 229.93V229.89L135.68 229.85C135.78 229.64 135.88 229.43 135.98 229.23L113.41 218.48V218.49ZM115 214.73C114.92 214.93 114.85 215.13 114.77 215.34L138.08 224.37C138.2 224.06 138.32 223.75 138.43 223.44L114.99 214.74L115 214.73ZM116.25 210.85C116.19 211.06 116.13 211.27 116.07 211.47L140.09 218.4C140.18 218.08 140.27 217.76 140.36 217.44L116.24 210.84L116.25 210.85ZM117.16 206.81C117.12 207.02 117.08 207.24 117.04 207.45L141.59 212.19C141.65 211.9 141.7 211.6 141.75 211.31L141.77 211.21L117.16 206.82V206.81ZM117.7 202.75C117.68 202.97 117.66 203.18 117.64 203.4L142.51 205.95C142.53 205.74 142.55 205.54 142.57 205.33V205.24C142.59 205.15 142.6 205.05 142.6 204.96L117.7 202.75ZM117.88 198.63C117.88 198.85 117.88 199.07 117.88 199.29L142.88 199.67C142.88 199.54 142.88 199.4 142.88 199.27V199.21V198.98C142.88 198.88 142.88 198.77 142.88 198.67L117.88 198.64V198.63ZM142.61 192.27L117.7 194.44C117.72 194.66 117.74 194.87 117.75 195.09L142.68 193.26C142.67 193.06 142.65 192.87 142.63 192.67V192.57C142.61 192.47 142.61 192.37 142.6 192.26L142.61 192.27ZM141.79 186.03L117.17 190.39C117.21 190.6 117.24 190.82 117.28 191.03L141.96 187.02C141.91 186.73 141.86 186.44 141.81 186.15L141.79 186.03ZM140.42 179.88L116.29 186.4C116.35 186.61 116.4 186.82 116.45 187.03L140.67 180.85C140.65 180.77 140.63 180.69 140.61 180.62C140.59 180.53 140.56 180.44 140.54 180.35V180.3L140.52 180.27V180.24C140.48 180.12 140.45 180 140.42 179.88V179.88ZM138.47 173.79L115.02 182.46C115.09 182.66 115.17 182.87 115.24 183.07L138.81 174.73L138.79 174.67V174.62L138.76 174.58L138.74 174.52C138.65 174.27 138.56 174.03 138.47 173.79V173.79ZM136.03 167.99L113.44 178.71C113.53 178.91 113.62 179.1 113.71 179.3L136.45 168.9C136.31 168.6 136.17 168.29 136.03 167.99ZM133.08 162.42L111.53 175.09C111.64 175.28 111.75 175.46 111.86 175.65L133.59 163.28C133.51 163.14 133.43 162.99 133.34 162.85L133.32 162.8L133.3 162.75V162.73L133.27 162.7V162.68L133.23 162.63L133.21 162.58L133.19 162.53L133.13 162.42H133.08ZM129.59 157.05L109.26 171.59C109.39 171.77 109.51 171.94 109.64 172.12L130.18 157.86L130.16 157.82L130.14 157.79L130.12 157.76V157.74L130.08 157.71L130.05 157.66L130.02 157.61L129.99 157.55L129.96 157.5L129.94 157.47L129.91 157.42C129.82 157.29 129.73 157.17 129.64 157.04L129.59 157.05ZM125.7 152.09L106.72 168.36C106.86 168.53 107 168.69 107.14 168.86L126.35 152.85L126.27 152.76L126.25 152.73C126.12 152.57 125.98 152.41 125.85 152.26H125.84L125.82 152.23L125.7 152.09V152.09ZM121.4 147.49L103.92 165.36C104.08 165.51 104.23 165.67 104.38 165.82L122.11 148.19L122.04 148.12H122.03L122.01 148.09L121.98 148.06C121.83 147.91 121.69 147.76 121.54 147.62L121.5 147.58L121.47 147.54H121.46L121.43 147.5L121.4 147.49ZM116.63 143.22L100.81 162.57C100.98 162.71 101.15 162.85 101.31 162.99L117.4 143.86C117.14 143.65 116.89 143.43 116.63 143.22ZM111.58 139.45L97.52 160.12C97.7 160.24 97.88 160.37 98.06 160.49L112.41 140.02L112.26 139.91L112.21 139.88L112.17 139.85H112.16L112.13 139.82H112.11L112.09 139.8C111.93 139.69 111.76 139.57 111.6 139.46L111.58 139.45ZM106.22 136.14L94.03 157.97C94.22 158.08 94.41 158.18 94.6 158.29L107.1 136.64C106.84 136.49 106.58 136.34 106.32 136.2L106.29 136.18L106.24 136.15L106.22 136.14ZM100.5 133.27L90.32 156.1C90.52 156.19 90.71 156.28 90.91 156.37L101.41 133.68C101.27 133.61 101.13 133.55 100.99 133.49L100.95 133.47H100.94L100.9 133.45H100.89C100.76 133.39 100.64 133.33 100.51 133.28L100.5 133.27ZM94.64 130.96L86.52 154.61C86.72 154.68 86.93 154.75 87.13 154.82L95.58 131.29C95.52 131.27 95.47 131.25 95.41 131.23L95.37 131.21H95.35L95.33 131.19C95.11 131.11 94.9 131.04 94.68 130.96H94.65H94.64ZM88.6 129.17L82.61 153.44C82.82 153.49 83.03 153.54 83.24 153.6L89.57 129.41C89.47 129.38 89.37 129.36 89.27 129.33H89.22L89.19 129.31H89.18C88.99 129.26 88.8 129.21 88.6 129.16V129.17ZM82.33 127.92L78.55 152.63C78.76 152.66 78.98 152.7 79.19 152.73L83.32 128.07L83.21 128.05H83.14L83.11 128.03H83.05L83.01 128.01H82.93L82.89 127.99H82.81L82.75 127.97H82.66L82.63 127.95H82.54L82.51 127.93H82.43L82.31 127.9L82.33 127.92ZM76.07 127.24L74.48 152.19C74.7 152.2 74.91 152.22 75.13 152.24L77.07 127.32C76.89 127.31 76.7 127.29 76.51 127.28H76.42C76.3 127.27 76.19 127.26 76.07 127.25V127.24Z" fill="url(#paint1_linear_1365_39647)"/>
<path d="M238.779 144.601C243.474 144.601 247.279 140.795 247.279 136.101C247.279 131.406 243.474 127.601 238.779 127.601C234.085 127.601 230.279 131.406 230.279 136.101C230.279 140.795 234.085 144.601 238.779 144.601Z" fill="#FDB81D"/>
<path d="M221.799 127.82C226.493 127.82 230.299 124.015 230.299 119.32C230.299 114.626 226.493 110.82 221.799 110.82C217.104 110.82 213.299 114.626 213.299 119.32C213.299 124.015 217.104 127.82 221.799 127.82Z" fill="white"/>
<path d="M323.539 194.96C328.233 194.96 332.039 191.154 332.039 186.46C332.039 181.766 328.233 177.96 323.539 177.96C318.845 177.96 315.039 181.766 315.039 186.46C315.039 191.154 318.845 194.96 323.539 194.96Z" fill="white"/>
<path d="M272.648 228.53C277.343 228.53 281.148 224.725 281.148 220.03C281.148 215.336 277.343 211.53 272.648 211.53C267.954 211.53 264.148 215.336 264.148 220.03C264.148 224.725 267.954 228.53 272.648 228.53Z" fill="#4F97B8"/>
<path d="M272.648 295.67C277.343 295.67 281.148 291.864 281.148 287.17C281.148 282.476 277.343 278.67 272.648 278.67C267.954 278.67 264.148 282.476 264.148 287.17C264.148 291.864 267.954 295.67 272.648 295.67Z" fill="#FDB81D"/>
<defs>
<linearGradient id="paint0_linear_1365_39647" x1="73.69" y1="252.52" x2="346.2" y2="73.9" gradientUnits="userSpaceOnUse">
<stop stop-color="#4F97B8" stop-opacity="0.1"/>
<stop offset="1" stop-color="#4F97B8"/>
</linearGradient>
<linearGradient id="paint1_linear_1365_39647" x1="22.7" y1="250.82" x2="120.11" y2="146.32" gradientUnits="userSpaceOnUse">
<stop stop-color="#B4D2E0" stop-opacity="0.1"/>
<stop offset="1" stop-color="#B4D2E0"/>
</linearGradient>
<clipPath id="clip0_1365_39647">
<rect width="325.84" height="322.52" fill="white" transform="translate(50)"/>
</clipPath>
</defs>
</svg>
